ISO-10303-21;
HEADER;
FILE_DESCRIPTION(('Open CASCADE Model'),'2;1');
FILE_NAME('Open CASCADE Shape Model','2026-06-17T03:21:49',('Author'),(
    'Open CASCADE'),'Open CASCADE STEP processor 7.8','build123d',
  'Unknown');
FILE_SCHEMA(('AUTOMOTIVE_DESIGN { 1 0 10303 214 1 1 1 1 }'));
ENDSEC;
DATA;
#1 = APPLICATION_PROTOCOL_DEFINITION('international standard',
  'automotive_design',2000,#2);
#2 = APPLICATION_CONTEXT(
  'core data for automotive mechanical design processes');
#3 = SHAPE_DEFINITION_REPRESENTATION(#4,#10);
#4 = PRODUCT_DEFINITION_SHAPE('','',#5);
#5 = PRODUCT_DEFINITION('design','',#6,#9);
#6 = PRODUCT_DEFINITION_FORMATION('','',#7);
#7 = PRODUCT('SOLID','SOLID','',(#8));
#8 = PRODUCT_CONTEXT('',#2,'mechanical');
#9 = PRODUCT_DEFINITION_CONTEXT('part definition',#2,'design');
#10 = ADVANCED_BREP_SHAPE_REPRESENTATION('',(#11,#15),#543);
#11 = AXIS2_PLACEMENT_3D('',#12,#13,#14);
#12 = CARTESIAN_POINT('',(0.,0.,0.));
#13 = DIRECTION('',(0.,0.,1.));
#14 = DIRECTION('',(1.,0.,-0.));
#15 = MANIFOLD_SOLID_BREP('',#16);
#16 = CLOSED_SHELL('',(#17,#210,#238,#394,#398,#403,#431,#533,#539));
#17 = ADVANCED_FACE('',(#18),#33,.T.);
#18 = FACE_BOUND('',#19,.T.);
#19 = EDGE_LOOP('',(#20,#56,#97,#127,#150,#177,#178));
#20 = ORIENTED_EDGE('',*,*,#21,.F.);
#21 = EDGE_CURVE('',#22,#24,#26,.T.);
#22 = VERTEX_POINT('',#23);
#23 = CARTESIAN_POINT('',(-39.88396482729,31.158314643883,152.));
#24 = VERTEX_POINT('',#25);
#25 = CARTESIAN_POINT('',(-36.8360351727,23.761685356117,152.));
#26 = SURFACE_CURVE('',#27,(#32,#44),.PCURVE_S1.);
#27 = CIRCLE('',#28,4.);
#28 = AXIS2_PLACEMENT_3D('',#29,#30,#31);
#29 = CARTESIAN_POINT('',(-38.36,27.46,152.));
#30 = DIRECTION('',(0.,0.,1.));
#31 = DIRECTION('',(1.,0.,0.));
#32 = PCURVE('',#33,#38);
#33 = CYLINDRICAL_SURFACE('',#34,4.);
#34 = AXIS2_PLACEMENT_3D('',#35,#36,#37);
#35 = CARTESIAN_POINT('',(-38.36,27.46,127.));
#36 = DIRECTION('',(0.,0.,1.));
#37 = DIRECTION('',(1.,0.,0.));
#38 = DEFINITIONAL_REPRESENTATION('',(#39),#43);
#39 = LINE('',#40,#41);
#40 = CARTESIAN_POINT('',(0.,25.));
#41 = VECTOR('',#42,1.);
#42 = DIRECTION('',(1.,0.));
#43 = ( GEOMETRIC_REPRESENTATION_CONTEXT(2) 
PARAMETRIC_REPRESENTATION_CONTEXT() REPRESENTATION_CONTEXT('2D SPACE',''
  ) );
#44 = PCURVE('',#45,#50);
#45 = PLANE('',#46);
#46 = AXIS2_PLACEMENT_3D('',#47,#48,#49);
#47 = CARTESIAN_POINT('',(-38.36,27.46,152.));
#48 = DIRECTION('',(0.,0.,1.));
#49 = DIRECTION('',(1.,0.,0.));
#50 = DEFINITIONAL_REPRESENTATION('',(#51),#55);
#51 = CIRCLE('',#52,4.);
#52 = AXIS2_PLACEMENT_2D('',#53,#54);
#53 = CARTESIAN_POINT('',(0.,0.));
#54 = DIRECTION('',(1.,0.));
#55 = ( GEOMETRIC_REPRESENTATION_CONTEXT(2) 
PARAMETRIC_REPRESENTATION_CONTEXT() REPRESENTATION_CONTEXT('2D SPACE',''
  ) );
#56 = ORIENTED_EDGE('',*,*,#57,.F.);
#57 = EDGE_CURVE('',#58,#22,#60,.T.);
#58 = VERTEX_POINT('',#59);
#59 = CARTESIAN_POINT('',(-34.66168535611,28.983964827298,148.));
#60 = SURFACE_CURVE('',#61,(#66,#79),.PCURVE_S1.);
#61 = ELLIPSE('',#62,5.656854249492,4.);
#62 = AXIS2_PLACEMENT_3D('',#63,#64,#65);
#63 = CARTESIAN_POINT('',(-38.36,27.46,152.));
#64 = DIRECTION('',(0.653775840913,0.269401465918,0.707106781187));
#65 = DIRECTION('',(-0.653775840913,-0.269401465918,0.707106781187));
#66 = PCURVE('',#33,#67);
#67 = DEFINITIONAL_REPRESENTATION('',(#68),#78);
#68 = B_SPLINE_CURVE_WITH_KNOTS('',8,(#69,#70,#71,#72,#73,#74,#75,#76,
    #77),.UNSPECIFIED.,.F.,.F.,(9,9),(3.14159265359,4.71238898759),
  .PIECEWISE_BEZIER_KNOTS.);
#69 = CARTESIAN_POINT('',(0.390868123256,21.));
#70 = CARTESIAN_POINT('',(0.587217665006,21.));
#71 = CARTESIAN_POINT('',(0.783567206755,21.176243105548));
#72 = CARTESIAN_POINT('',(0.979916748503,21.5287278195));
#73 = CARTESIAN_POINT('',(1.176266290257,22.042965007086));
#74 = CARTESIAN_POINT('',(1.372615832004,22.689946969987));
#75 = CARTESIAN_POINT('',(1.568965373755,23.429203507059));
#76 = CARTESIAN_POINT('',(1.765314915506,24.21460186182));
#77 = CARTESIAN_POINT('',(1.961664457256,25.00000002882));
#78 = ( GEOMETRIC_REPRESENTATION_CONTEXT(2) 
PARAMETRIC_REPRESENTATION_CONTEXT() REPRESENTATION_CONTEXT('2D SPACE',''
  ) );
#79 = PCURVE('',#80,#85);
#80 = CYLINDRICAL_SURFACE('',#81,4.);
#81 = AXIS2_PLACEMENT_3D('',#82,#83,#84);
#82 = CARTESIAN_POINT('',(-38.36,27.46,152.));
#83 = DIRECTION('',(0.924578660971,0.380991206824,2.22044604925E-16));
#84 = DIRECTION('',(2.052977034974E-16,8.459704199924E-17,-1.));
#85 = DEFINITIONAL_REPRESENTATION('',(#86),#96);
#86 = B_SPLINE_CURVE_WITH_KNOTS('',8,(#87,#88,#89,#90,#91,#92,#93,#94,
    #95),.UNSPECIFIED.,.F.,.F.,(9,9),(3.14159265359,4.71238898759),
  .PIECEWISE_BEZIER_KNOTS.);
#87 = CARTESIAN_POINT('',(0.,4.));
#88 = CARTESIAN_POINT('',(0.19634954175,4.));
#89 = CARTESIAN_POINT('',(0.3926990835,3.823756894438));
#90 = CARTESIAN_POINT('',(0.589048625249,3.471272180496));
#91 = CARTESIAN_POINT('',(0.785398166999,2.957034992877));
#92 = CARTESIAN_POINT('',(0.981747708747,2.310053029995));
#93 = CARTESIAN_POINT('',(1.1780972505,1.570796492927));
#94 = CARTESIAN_POINT('',(1.37444679225,0.78539813818));
#95 = CARTESIAN_POINT('',(1.570796334,-2.882050509356E-08));
#96 = ( GEOMETRIC_REPRESENTATION_CONTEXT(2) 
PARAMETRIC_REPRESENTATION_CONTEXT() REPRESENTATION_CONTEXT('2D SPACE',''
  ) );
#97 = ORIENTED_EDGE('',*,*,#98,.F.);
#98 = EDGE_CURVE('',#99,#58,#101,.T.);
#99 = VERTEX_POINT('',#100);
#100 = CARTESIAN_POINT('',(-34.36,27.46,148.30168535611));
#101 = SURFACE_CURVE('',#102,(#107,#117),.PCURVE_S1.);
#102 = ELLIPSE('',#103,5.656854249492,4.);
#103 = AXIS2_PLACEMENT_3D('',#104,#105,#106);
#104 = CARTESIAN_POINT('',(-38.36,27.46,152.));
#105 = DIRECTION('',(0.653775840913,0.269401465918,0.707106781187));
#106 = DIRECTION('',(-0.653775840913,-0.269401465918,0.707106781187));
#107 = PCURVE('',#33,#108);
#108 = DEFINITIONAL_REPRESENTATION('',(#109),#116);
#109 = B_SPLINE_CURVE_WITH_KNOTS('',5,(#110,#111,#112,#113,#114,#115),
  .UNSPECIFIED.,.F.,.F.,(6,6),(2.750724530334,3.14159265359),
  .PIECEWISE_BEZIER_KNOTS.);
#110 = CARTESIAN_POINT('',(1.15463194561E-14,21.301685356117));
#111 = CARTESIAN_POINT('',(7.817362465116E-02,21.182551501726));
#112 = CARTESIAN_POINT('',(0.156347249302,21.091668260003));
#113 = CARTESIAN_POINT('',(0.234520873953,21.030555151577));
#114 = CARTESIAN_POINT('',(0.312694498605,21.));
#115 = CARTESIAN_POINT('',(0.390868123256,21.));
#116 = ( GEOMETRIC_REPRESENTATION_CONTEXT(2) 
PARAMETRIC_REPRESENTATION_CONTEXT() REPRESENTATION_CONTEXT('2D SPACE',''
  ) );
#117 = PCURVE('',#80,#118);
#118 = DEFINITIONAL_REPRESENTATION('',(#119),#126);
#119 = B_SPLINE_CURVE_WITH_KNOTS('',5,(#120,#121,#122,#123,#124,#125),
  .UNSPECIFIED.,.F.,.F.,(6,6),(2.750724530334,3.14159265359),
  .PIECEWISE_BEZIER_KNOTS.);
#120 = CARTESIAN_POINT('',(5.892317183924,3.698314643883));
#121 = CARTESIAN_POINT('',(5.970490808575,3.817448498274));
#122 = CARTESIAN_POINT('',(6.048664433226,3.908331739997));
#123 = CARTESIAN_POINT('',(6.126838057877,3.969444848423));
#124 = CARTESIAN_POINT('',(6.205011682528,4.));
#125 = CARTESIAN_POINT('',(6.28318530718,4.));
#126 = ( GEOMETRIC_REPRESENTATION_CONTEXT(2) 
PARAMETRIC_REPRESENTATION_CONTEXT() REPRESENTATION_CONTEXT('2D SPACE',''
  ) );
#127 = ORIENTED_EDGE('',*,*,#128,.F.);
#128 = EDGE_CURVE('',#129,#99,#131,.T.);
#129 = VERTEX_POINT('',#130);
#130 = CARTESIAN_POINT('',(-34.36,27.46,127.));
#131 = SEAM_CURVE('',#132,(#136,#143),.PCURVE_S1.);
#132 = LINE('',#133,#134);
#133 = CARTESIAN_POINT('',(-34.36,27.46,127.));
#134 = VECTOR('',#135,1.);
#135 = DIRECTION('',(0.,0.,1.));
#136 = PCURVE('',#33,#137);
#137 = DEFINITIONAL_REPRESENTATION('',(#138),#142);
#138 = LINE('',#139,#140);
#139 = CARTESIAN_POINT('',(6.28318530718,-0.));
#140 = VECTOR('',#141,1.);
#141 = DIRECTION('',(0.,1.));
#142 = ( GEOMETRIC_REPRESENTATION_CONTEXT(2) 
PARAMETRIC_REPRESENTATION_CONTEXT() REPRESENTATION_CONTEXT('2D SPACE',''
  ) );
#143 = PCURVE('',#33,#144);
#144 = DEFINITIONAL_REPRESENTATION('',(#145),#149);
#145 = LINE('',#146,#147);
#146 = CARTESIAN_POINT('',(0.,-0.));
#147 = VECTOR('',#148,1.);
#148 = DIRECTION('',(0.,1.));
#149 = ( GEOMETRIC_REPRESENTATION_CONTEXT(2) 
PARAMETRIC_REPRESENTATION_CONTEXT() REPRESENTATION_CONTEXT('2D SPACE',''
  ) );
#150 = ORIENTED_EDGE('',*,*,#151,.T.);
#151 = EDGE_CURVE('',#129,#129,#152,.T.);
#152 = SURFACE_CURVE('',#153,(#158,#165),.PCURVE_S1.);
#153 = CIRCLE('',#154,4.);
#154 = AXIS2_PLACEMENT_3D('',#155,#156,#157);
#155 = CARTESIAN_POINT('',(-38.36,27.46,127.));
#156 = DIRECTION('',(0.,0.,1.));
#157 = DIRECTION('',(1.,0.,0.));
#158 = PCURVE('',#33,#159);
#159 = DEFINITIONAL_REPRESENTATION('',(#160),#164);
#160 = LINE('',#161,#162);
#161 = CARTESIAN_POINT('',(0.,0.));
#162 = VECTOR('',#163,1.);
#163 = DIRECTION('',(1.,0.));
#164 = ( GEOMETRIC_REPRESENTATION_CONTEXT(2) 
PARAMETRIC_REPRESENTATION_CONTEXT() REPRESENTATION_CONTEXT('2D SPACE',''
  ) );
#165 = PCURVE('',#166,#171);
#166 = PLANE('',#167);
#167 = AXIS2_PLACEMENT_3D('',#168,#169,#170);
#168 = CARTESIAN_POINT('',(-38.36,27.46,127.));
#169 = DIRECTION('',(0.,0.,1.));
#170 = DIRECTION('',(1.,0.,0.));
#171 = DEFINITIONAL_REPRESENTATION('',(#172),#176);
#172 = CIRCLE('',#173,4.);
#173 = AXIS2_PLACEMENT_2D('',#174,#175);
#174 = CARTESIAN_POINT('',(0.,0.));
#175 = DIRECTION('',(1.,0.));
#176 = ( GEOMETRIC_REPRESENTATION_CONTEXT(2) 
PARAMETRIC_REPRESENTATION_CONTEXT() REPRESENTATION_CONTEXT('2D SPACE',''
  ) );
#177 = ORIENTED_EDGE('',*,*,#128,.T.);
#178 = ORIENTED_EDGE('',*,*,#179,.F.);
#179 = EDGE_CURVE('',#24,#99,#180,.T.);
#180 = SURFACE_CURVE('',#181,(#186,#198),.PCURVE_S1.);
#181 = ELLIPSE('',#182,5.656854249492,4.);
#182 = AXIS2_PLACEMENT_3D('',#183,#184,#185);
#183 = CARTESIAN_POINT('',(-38.36,27.46,152.));
#184 = DIRECTION('',(0.653775840913,0.269401465918,0.707106781187));
#185 = DIRECTION('',(-0.653775840913,-0.269401465918,0.707106781187));
#186 = PCURVE('',#33,#187);
#187 = DEFINITIONAL_REPRESENTATION('',(#188),#197);
#188 = B_SPLINE_CURVE_WITH_KNOTS('',7,(#189,#190,#191,#192,#193,#194,
    #195,#196),.UNSPECIFIED.,.F.,.F.,(8,8),(1.570795735398,
    2.750724530334),.PIECEWISE_BEZIER_KNOTS.);
#189 = CARTESIAN_POINT('',(5.103256512243,25.00000236559));
#190 = CARTESIAN_POINT('',(5.271817768663,24.325757339912));
#191 = CARTESIAN_POINT('',(5.440379025082,23.651512527246));
#192 = CARTESIAN_POINT('',(5.608940281501,23.008555795435));
#193 = CARTESIAN_POINT('',(5.777501537921,22.428185993581));
#194 = CARTESIAN_POINT('',(5.946062794341,21.938041680822));
#195 = CARTESIAN_POINT('',(6.11462405076,21.558566782145));
#196 = CARTESIAN_POINT('',(6.28318530718,21.301685356117));
#197 = ( GEOMETRIC_REPRESENTATION_CONTEXT(2) 
PARAMETRIC_REPRESENTATION_CONTEXT() REPRESENTATION_CONTEXT('2D SPACE',''
  ) );
#198 = PCURVE('',#80,#199);
#199 = DEFINITIONAL_REPRESENTATION('',(#200),#209);
#200 = B_SPLINE_CURVE_WITH_KNOTS('',7,(#201,#202,#203,#204,#205,#206,
    #207,#208),.UNSPECIFIED.,.F.,.F.,(8,8),(1.570795735398,
    2.750724530334),.PIECEWISE_BEZIER_KNOTS.);
#201 = CARTESIAN_POINT('',(4.712388388987,-2.365589576669E-06));
#202 = CARTESIAN_POINT('',(4.880949645407,0.674242660088));
#203 = CARTESIAN_POINT('',(5.049510901826,1.348487472757));
#204 = CARTESIAN_POINT('',(5.218072158246,1.991444204558));
#205 = CARTESIAN_POINT('',(5.386633414666,2.571814006427));
#206 = CARTESIAN_POINT('',(5.555194671085,3.061958319175));
#207 = CARTESIAN_POINT('',(5.723755927504,3.441433217855));
#208 = CARTESIAN_POINT('',(5.892317183924,3.698314643883));
#209 = ( GEOMETRIC_REPRESENTATION_CONTEXT(2) 
PARAMETRIC_REPRESENTATION_CONTEXT() REPRESENTATION_CONTEXT('2D SPACE',''
  ) );
#210 = ADVANCED_FACE('',(#211),#45,.T.);
#211 = FACE_BOUND('',#212,.T.);
#212 = EDGE_LOOP('',(#213,#237));
#213 = ORIENTED_EDGE('',*,*,#214,.T.);
#214 = EDGE_CURVE('',#24,#22,#215,.T.);
#215 = SURFACE_CURVE('',#216,(#220,#226),.PCURVE_S1.);
#216 = LINE('',#217,#218);
#217 = CARTESIAN_POINT('',(-38.36,27.46,152.));
#218 = VECTOR('',#219,1.);
#219 = DIRECTION('',(-0.380991206824,0.924578660971,0.));
#220 = PCURVE('',#45,#221);
#221 = DEFINITIONAL_REPRESENTATION('',(#222),#225);
#222 = B_SPLINE_CURVE_WITH_KNOTS('',1,(#223,#224),.UNSPECIFIED.,.F.,.F.,
  (2,2),(-4.,4.),.PIECEWISE_BEZIER_KNOTS.);
#223 = CARTESIAN_POINT('',(1.523964827298,-3.698314643883));
#224 = CARTESIAN_POINT('',(-1.523964827298,3.698314643883));
#225 = ( GEOMETRIC_REPRESENTATION_CONTEXT(2) 
PARAMETRIC_REPRESENTATION_CONTEXT() REPRESENTATION_CONTEXT('2D SPACE',''
  ) );
#226 = PCURVE('',#227,#232);
#227 = PLANE('',#228);
#228 = AXIS2_PLACEMENT_3D('',#229,#230,#231);
#229 = CARTESIAN_POINT('',(-38.36,27.46,152.));
#230 = DIRECTION('',(0.924578660971,0.380991206824,2.22044604925E-16));
#231 = DIRECTION('',(2.052977034974E-16,8.459704199924E-17,-1.));
#232 = DEFINITIONAL_REPRESENTATION('',(#233),#236);
#233 = B_SPLINE_CURVE_WITH_KNOTS('',1,(#234,#235),.UNSPECIFIED.,.F.,.F.,
  (2,2),(-4.,4.),.PIECEWISE_BEZIER_KNOTS.);
#234 = CARTESIAN_POINT('',(-1.621367471437E-32,-4.));
#235 = CARTESIAN_POINT('',(1.621367471437E-32,4.));
#236 = ( GEOMETRIC_REPRESENTATION_CONTEXT(2) 
PARAMETRIC_REPRESENTATION_CONTEXT() REPRESENTATION_CONTEXT('2D SPACE',''
  ) );
#237 = ORIENTED_EDGE('',*,*,#21,.T.);
#238 = ADVANCED_FACE('',(#239),#80,.T.);
#239 = FACE_BOUND('',#240,.T.);
#240 = EDGE_LOOP('',(#241,#272,#313,#334,#335,#357,#358,#359,#360));
#241 = ORIENTED_EDGE('',*,*,#242,.F.);
#242 = EDGE_CURVE('',#243,#245,#247,.T.);
#243 = VERTEX_POINT('',#244);
#244 = CARTESIAN_POINT('',(6.346035172702,50.208314643883,152.));
#245 = VERTEX_POINT('',#246);
#246 = CARTESIAN_POINT('',(9.393964827298,42.811685356117,152.));
#247 = SURFACE_CURVE('',#248,(#253,#260),.PCURVE_S1.);
#248 = CIRCLE('',#249,4.);
#249 = AXIS2_PLACEMENT_3D('',#250,#251,#252);
#250 = CARTESIAN_POINT('',(7.87,46.51,152.));
#251 = DIRECTION('',(0.924578660971,0.380991206824,2.22044604925E-16));
#252 = DIRECTION('',(2.052977034974E-16,8.459704199924E-17,-1.));
#253 = PCURVE('',#80,#254);
#254 = DEFINITIONAL_REPRESENTATION('',(#255),#259);
#255 = LINE('',#256,#257);
#256 = CARTESIAN_POINT('',(0.,50.001153986683));
#257 = VECTOR('',#258,1.);
#258 = DIRECTION('',(1.,0.));
#259 = ( GEOMETRIC_REPRESENTATION_CONTEXT(2) 
PARAMETRIC_REPRESENTATION_CONTEXT() REPRESENTATION_CONTEXT('2D SPACE',''
  ) );
#260 = PCURVE('',#261,#266);
#261 = PLANE('',#262);
#262 = AXIS2_PLACEMENT_3D('',#263,#264,#265);
#263 = CARTESIAN_POINT('',(7.87,46.51,152.));
#264 = DIRECTION('',(0.924578660971,0.380991206824,2.22044604925E-16));
#265 = DIRECTION('',(2.052977034974E-16,8.459704199924E-17,-1.));
#266 = DEFINITIONAL_REPRESENTATION('',(#267),#271);
#267 = CIRCLE('',#268,4.);
#268 = AXIS2_PLACEMENT_2D('',#269,#270);
#269 = CARTESIAN_POINT('',(0.,0.));
#270 = DIRECTION('',(1.,0.));
#271 = ( GEOMETRIC_REPRESENTATION_CONTEXT(2) 
PARAMETRIC_REPRESENTATION_CONTEXT() REPRESENTATION_CONTEXT('2D SPACE',''
  ) );
#272 = ORIENTED_EDGE('',*,*,#273,.T.);
#273 = EDGE_CURVE('',#243,#274,#276,.T.);
#274 = VERTEX_POINT('',#275);
#275 = CARTESIAN_POINT('',(4.171685356117,44.986035172702,148.));
#276 = SURFACE_CURVE('',#277,(#282,#295),.PCURVE_S1.);
#277 = ELLIPSE('',#278,5.656854249492,4.);
#278 = AXIS2_PLACEMENT_3D('',#279,#280,#281);
#279 = CARTESIAN_POINT('',(7.87,46.51,152.));
#280 = DIRECTION('',(-0.653775840913,-0.269401465918,0.707106781187));
#281 = DIRECTION('',(0.653775840913,0.269401465918,0.707106781187));
#282 = PCURVE('',#80,#283);
#283 = DEFINITIONAL_REPRESENTATION('',(#284),#294);
#284 = B_SPLINE_CURVE_WITH_KNOTS('',8,(#285,#286,#287,#288,#289,#290,
    #291,#292,#293),.UNSPECIFIED.,.F.,.F.,(9,9),(1.570795708627,
    3.14159265359),.PIECEWISE_BEZIER_KNOTS.);
#285 = CARTESIAN_POINT('',(1.570796944963,50.001156459356));
#286 = CARTESIAN_POINT('',(1.374447326843,49.215757986874));
#287 = CARTESIAN_POINT('',(1.178097708721,48.430359218911));
#288 = CARTESIAN_POINT('',(0.981748090605,47.691102214913));
#289 = CARTESIAN_POINT('',(0.785398472476,47.044119793632));
#290 = CARTESIAN_POINT('',(0.589048854363,46.529882217499));
#291 = CARTESIAN_POINT('',(0.39269923624,46.177397229289));
#292 = CARTESIAN_POINT('',(0.19634961812,46.001153986683));
#293 = CARTESIAN_POINT('',(0.,46.001153986683));
#294 = ( GEOMETRIC_REPRESENTATION_CONTEXT(2) 
PARAMETRIC_REPRESENTATION_CONTEXT() REPRESENTATION_CONTEXT('2D SPACE',''
  ) );
#295 = PCURVE('',#296,#301);
#296 = CYLINDRICAL_SURFACE('',#297,4.);
#297 = AXIS2_PLACEMENT_3D('',#298,#299,#300);
#298 = CARTESIAN_POINT('',(7.87,46.51,127.));
#299 = DIRECTION('',(0.,0.,1.));
#300 = DIRECTION('',(1.,0.,0.));
#301 = DEFINITIONAL_REPRESENTATION('',(#302),#312);
#302 = B_SPLINE_CURVE_WITH_KNOTS('',8,(#303,#304,#305,#306,#307,#308,
    #309,#310,#311),.UNSPECIFIED.,.F.,.F.,(9,9),(1.570795708627,
    3.14159265359),.PIECEWISE_BEZIER_KNOTS.);
#303 = CARTESIAN_POINT('',(1.961663831883,25.000002472673));
#304 = CARTESIAN_POINT('',(2.158013450003,24.214604000191));
#305 = CARTESIAN_POINT('',(2.354363068123,23.429205232295));
#306 = CARTESIAN_POINT('',(2.55071268624,22.689948228115));
#307 = CARTESIAN_POINT('',(2.747062304359,22.042965807285));
#308 = CARTESIAN_POINT('',(2.943411922483,21.528728230676));
#309 = CARTESIAN_POINT('',(3.139761540604,21.176243242675));
#310 = CARTESIAN_POINT('',(3.336111158725,21.));
#311 = CARTESIAN_POINT('',(3.532460776846,21.));
#312 = ( GEOMETRIC_REPRESENTATION_CONTEXT(2) 
PARAMETRIC_REPRESENTATION_CONTEXT() REPRESENTATION_CONTEXT('2D SPACE',''
  ) );
#313 = ORIENTED_EDGE('',*,*,#314,.F.);
#314 = EDGE_CURVE('',#58,#274,#315,.T.);
#315 = SEAM_CURVE('',#316,(#320,#327),.PCURVE_S1.);
#316 = LINE('',#317,#318);
#317 = CARTESIAN_POINT('',(-38.36,27.46,148.));
#318 = VECTOR('',#319,1.);
#319 = DIRECTION('',(0.924578660971,0.380991206824,2.22044604925E-16));
#320 = PCURVE('',#80,#321);
#321 = DEFINITIONAL_REPRESENTATION('',(#322),#326);
#322 = LINE('',#323,#324);
#323 = CARTESIAN_POINT('',(6.28318530718,-0.));
#324 = VECTOR('',#325,1.);
#325 = DIRECTION('',(0.,1.));
#326 = ( GEOMETRIC_REPRESENTATION_CONTEXT(2) 
PARAMETRIC_REPRESENTATION_CONTEXT() REPRESENTATION_CONTEXT('2D SPACE',''
  ) );
#327 = PCURVE('',#80,#328);
#328 = DEFINITIONAL_REPRESENTATION('',(#329),#333);
#329 = LINE('',#330,#331);
#330 = CARTESIAN_POINT('',(0.,-0.));
#331 = VECTOR('',#332,1.);
#332 = DIRECTION('',(0.,1.));
#333 = ( GEOMETRIC_REPRESENTATION_CONTEXT(2) 
PARAMETRIC_REPRESENTATION_CONTEXT() REPRESENTATION_CONTEXT('2D SPACE',''
  ) );
#334 = ORIENTED_EDGE('',*,*,#57,.T.);
#335 = ORIENTED_EDGE('',*,*,#336,.T.);
#336 = EDGE_CURVE('',#22,#24,#337,.T.);
#337 = SURFACE_CURVE('',#338,(#343,#350),.PCURVE_S1.);
#338 = CIRCLE('',#339,4.);
#339 = AXIS2_PLACEMENT_3D('',#340,#341,#342);
#340 = CARTESIAN_POINT('',(-38.36,27.46,152.));
#341 = DIRECTION('',(0.924578660971,0.380991206824,2.22044604925E-16));
#342 = DIRECTION('',(2.052977034974E-16,8.459704199924E-17,-1.));
#343 = PCURVE('',#80,#344);
#344 = DEFINITIONAL_REPRESENTATION('',(#345),#349);
#345 = LINE('',#346,#347);
#346 = CARTESIAN_POINT('',(0.,0.));
#347 = VECTOR('',#348,1.);
#348 = DIRECTION('',(1.,0.));
#349 = ( GEOMETRIC_REPRESENTATION_CONTEXT(2) 
PARAMETRIC_REPRESENTATION_CONTEXT() REPRESENTATION_CONTEXT('2D SPACE',''
  ) );
#350 = PCURVE('',#227,#351);
#351 = DEFINITIONAL_REPRESENTATION('',(#352),#356);
#352 = CIRCLE('',#353,4.);
#353 = AXIS2_PLACEMENT_2D('',#354,#355);
#354 = CARTESIAN_POINT('',(0.,0.));
#355 = DIRECTION('',(1.,0.));
#356 = ( GEOMETRIC_REPRESENTATION_CONTEXT(2) 
PARAMETRIC_REPRESENTATION_CONTEXT() REPRESENTATION_CONTEXT('2D SPACE',''
  ) );
#357 = ORIENTED_EDGE('',*,*,#179,.T.);
#358 = ORIENTED_EDGE('',*,*,#98,.T.);
#359 = ORIENTED_EDGE('',*,*,#314,.T.);
#360 = ORIENTED_EDGE('',*,*,#361,.T.);
#361 = EDGE_CURVE('',#274,#245,#362,.T.);
#362 = SURFACE_CURVE('',#363,(#368,#381),.PCURVE_S1.);
#363 = ELLIPSE('',#364,5.656854249492,4.);
#364 = AXIS2_PLACEMENT_3D('',#365,#366,#367);
#365 = CARTESIAN_POINT('',(7.87,46.51,152.));
#366 = DIRECTION('',(-0.653775840913,-0.269401465918,0.707106781187));
#367 = DIRECTION('',(0.653775840913,0.269401465918,0.707106781187));
#368 = PCURVE('',#80,#369);
#369 = DEFINITIONAL_REPRESENTATION('',(#370),#380);
#370 = B_SPLINE_CURVE_WITH_KNOTS('',8,(#371,#372,#373,#374,#375,#376,
    #377,#378,#379),.UNSPECIFIED.,.F.,.F.,(9,9),(3.14159265359,
    4.712388967604),.PIECEWISE_BEZIER_KNOTS.);
#371 = CARTESIAN_POINT('',(6.28318530718,46.001153986683));
#372 = CARTESIAN_POINT('',(6.086835767928,46.001153986683));
#373 = CARTESIAN_POINT('',(5.890486228677,46.177397087746));
#374 = CARTESIAN_POINT('',(5.694136689424,46.529881792583));
#375 = CARTESIAN_POINT('',(5.497787150176,47.044118967623));
#376 = CARTESIAN_POINT('',(5.301437610922,47.691100915374));
#377 = CARTESIAN_POINT('',(5.10508807167,48.430357437338));
#378 = CARTESIAN_POINT('',(4.908738532418,49.215755778552));
#379 = CARTESIAN_POINT('',(4.712388993166,50.001153935559));
#380 = ( GEOMETRIC_REPRESENTATION_CONTEXT(2) 
PARAMETRIC_REPRESENTATION_CONTEXT() REPRESENTATION_CONTEXT('2D SPACE',''
  ) );
#381 = PCURVE('',#296,#382);
#382 = DEFINITIONAL_REPRESENTATION('',(#383),#393);
#383 = B_SPLINE_CURVE_WITH_KNOTS('',8,(#384,#385,#386,#387,#388,#389,
    #390,#391,#392),.UNSPECIFIED.,.F.,.F.,(9,9),(3.14159265359,
    4.712388967604),.PIECEWISE_BEZIER_KNOTS.);
#384 = CARTESIAN_POINT('',(3.532460776846,21.));
#385 = CARTESIAN_POINT('',(3.728810316097,21.));
#386 = CARTESIAN_POINT('',(3.925159855349,21.176243101076));
#387 = CARTESIAN_POINT('',(4.121509394584,21.528727805985));
#388 = CARTESIAN_POINT('',(4.317858933866,22.042964980953));
#389 = CARTESIAN_POINT('',(4.514208473088,22.689946928797));
#390 = CARTESIAN_POINT('',(4.710558012357,23.429203450633));
#391 = CARTESIAN_POINT('',(4.906907551608,24.214601791869));
#392 = CARTESIAN_POINT('',(5.103257090859,24.999999948876));
#393 = ( GEOMETRIC_REPRESENTATION_CONTEXT(2) 
PARAMETRIC_REPRESENTATION_CONTEXT() REPRESENTATION_CONTEXT('2D SPACE',''
  ) );
#394 = ADVANCED_FACE('',(#395),#166,.F.);
#395 = FACE_BOUND('',#396,.T.);
#396 = EDGE_LOOP('',(#397));
#397 = ORIENTED_EDGE('',*,*,#151,.F.);
#398 = ADVANCED_FACE('',(#399),#227,.F.);
#399 = FACE_BOUND('',#400,.F.);
#400 = EDGE_LOOP('',(#401,#402));
#401 = ORIENTED_EDGE('',*,*,#214,.T.);
#402 = ORIENTED_EDGE('',*,*,#336,.T.);
#403 = ADVANCED_FACE('',(#404),#261,.T.);
#404 = FACE_BOUND('',#405,.T.);
#405 = EDGE_LOOP('',(#406,#430));
#406 = ORIENTED_EDGE('',*,*,#407,.T.);
#407 = EDGE_CURVE('',#245,#243,#408,.T.);
#408 = SURFACE_CURVE('',#409,(#413,#419),.PCURVE_S1.);
#409 = LINE('',#410,#411);
#410 = CARTESIAN_POINT('',(7.87,46.51,152.));
#411 = VECTOR('',#412,1.);
#412 = DIRECTION('',(-0.380991206824,0.924578660971,0.));
#413 = PCURVE('',#261,#414);
#414 = DEFINITIONAL_REPRESENTATION('',(#415),#418);
#415 = B_SPLINE_CURVE_WITH_KNOTS('',1,(#416,#417),.UNSPECIFIED.,.F.,.F.,
  (2,2),(-4.,4.),.PIECEWISE_BEZIER_KNOTS.);
#416 = CARTESIAN_POINT('',(-3.808956544351E-31,-4.));
#417 = CARTESIAN_POINT('',(-3.484683050063E-31,4.));
#418 = ( GEOMETRIC_REPRESENTATION_CONTEXT(2) 
PARAMETRIC_REPRESENTATION_CONTEXT() REPRESENTATION_CONTEXT('2D SPACE',''
  ) );
#419 = PCURVE('',#420,#425);
#420 = PLANE('',#421);
#421 = AXIS2_PLACEMENT_3D('',#422,#423,#424);
#422 = CARTESIAN_POINT('',(7.87,46.51,152.));
#423 = DIRECTION('',(0.,0.,1.));
#424 = DIRECTION('',(1.,0.,0.));
#425 = DEFINITIONAL_REPRESENTATION('',(#426),#429);
#426 = B_SPLINE_CURVE_WITH_KNOTS('',1,(#427,#428),.UNSPECIFIED.,.F.,.F.,
  (2,2),(-4.,4.),.PIECEWISE_BEZIER_KNOTS.);
#427 = CARTESIAN_POINT('',(1.523964827298,-3.698314643883));
#428 = CARTESIAN_POINT('',(-1.523964827298,3.698314643883));
#429 = ( GEOMETRIC_REPRESENTATION_CONTEXT(2) 
PARAMETRIC_REPRESENTATION_CONTEXT() REPRESENTATION_CONTEXT('2D SPACE',''
  ) );
#430 = ORIENTED_EDGE('',*,*,#242,.T.);
#431 = ADVANCED_FACE('',(#432),#296,.T.);
#432 = FACE_BOUND('',#433,.T.);
#433 = EDGE_LOOP('',(#434,#459,#481,#482,#483,#505,#506));
#434 = ORIENTED_EDGE('',*,*,#435,.T.);
#435 = EDGE_CURVE('',#436,#438,#440,.T.);
#436 = VERTEX_POINT('',#437);
#437 = CARTESIAN_POINT('',(11.87,46.51,127.));
#438 = VERTEX_POINT('',#439);
#439 = CARTESIAN_POINT('',(11.87,46.51,152.));
#440 = SEAM_CURVE('',#441,(#445,#452),.PCURVE_S1.);
#441 = LINE('',#442,#443);
#442 = CARTESIAN_POINT('',(11.87,46.51,127.));
#443 = VECTOR('',#444,1.);
#444 = DIRECTION('',(0.,0.,1.));
#445 = PCURVE('',#296,#446);
#446 = DEFINITIONAL_REPRESENTATION('',(#447),#451);
#447 = LINE('',#448,#449);
#448 = CARTESIAN_POINT('',(6.28318530718,-0.));
#449 = VECTOR('',#450,1.);
#450 = DIRECTION('',(0.,1.));
#451 = ( GEOMETRIC_REPRESENTATION_CONTEXT(2) 
PARAMETRIC_REPRESENTATION_CONTEXT() REPRESENTATION_CONTEXT('2D SPACE',''
  ) );
#452 = PCURVE('',#296,#453);
#453 = DEFINITIONAL_REPRESENTATION('',(#454),#458);
#454 = LINE('',#455,#456);
#455 = CARTESIAN_POINT('',(0.,-0.));
#456 = VECTOR('',#457,1.);
#457 = DIRECTION('',(0.,1.));
#458 = ( GEOMETRIC_REPRESENTATION_CONTEXT(2) 
PARAMETRIC_REPRESENTATION_CONTEXT() REPRESENTATION_CONTEXT('2D SPACE',''
  ) );
#459 = ORIENTED_EDGE('',*,*,#460,.F.);
#460 = EDGE_CURVE('',#245,#438,#461,.T.);
#461 = SURFACE_CURVE('',#462,(#467,#474),.PCURVE_S1.);
#462 = CIRCLE('',#463,4.);
#463 = AXIS2_PLACEMENT_3D('',#464,#465,#466);
#464 = CARTESIAN_POINT('',(7.87,46.51,152.));
#465 = DIRECTION('',(0.,0.,1.));
#466 = DIRECTION('',(1.,0.,0.));
#467 = PCURVE('',#296,#468);
#468 = DEFINITIONAL_REPRESENTATION('',(#469),#473);
#469 = LINE('',#470,#471);
#470 = CARTESIAN_POINT('',(0.,25.));
#471 = VECTOR('',#472,1.);
#472 = DIRECTION('',(1.,0.));
#473 = ( GEOMETRIC_REPRESENTATION_CONTEXT(2) 
PARAMETRIC_REPRESENTATION_CONTEXT() REPRESENTATION_CONTEXT('2D SPACE',''
  ) );
#474 = PCURVE('',#420,#475);
#475 = DEFINITIONAL_REPRESENTATION('',(#476),#480);
#476 = CIRCLE('',#477,4.);
#477 = AXIS2_PLACEMENT_2D('',#478,#479);
#478 = CARTESIAN_POINT('',(0.,0.));
#479 = DIRECTION('',(1.,0.));
#480 = ( GEOMETRIC_REPRESENTATION_CONTEXT(2) 
PARAMETRIC_REPRESENTATION_CONTEXT() REPRESENTATION_CONTEXT('2D SPACE',''
  ) );
#481 = ORIENTED_EDGE('',*,*,#361,.F.);
#482 = ORIENTED_EDGE('',*,*,#273,.F.);
#483 = ORIENTED_EDGE('',*,*,#484,.F.);
#484 = EDGE_CURVE('',#438,#243,#485,.T.);
#485 = SURFACE_CURVE('',#486,(#491,#498),.PCURVE_S1.);
#486 = CIRCLE('',#487,4.);
#487 = AXIS2_PLACEMENT_3D('',#488,#489,#490);
#488 = CARTESIAN_POINT('',(7.87,46.51,152.));
#489 = DIRECTION('',(0.,0.,1.));
#490 = DIRECTION('',(1.,0.,0.));
#491 = PCURVE('',#296,#492);
#492 = DEFINITIONAL_REPRESENTATION('',(#493),#497);
#493 = LINE('',#494,#495);
#494 = CARTESIAN_POINT('',(0.,25.));
#495 = VECTOR('',#496,1.);
#496 = DIRECTION('',(1.,0.));
#497 = ( GEOMETRIC_REPRESENTATION_CONTEXT(2) 
PARAMETRIC_REPRESENTATION_CONTEXT() REPRESENTATION_CONTEXT('2D SPACE',''
  ) );
#498 = PCURVE('',#420,#499);
#499 = DEFINITIONAL_REPRESENTATION('',(#500),#504);
#500 = CIRCLE('',#501,4.);
#501 = AXIS2_PLACEMENT_2D('',#502,#503);
#502 = CARTESIAN_POINT('',(0.,0.));
#503 = DIRECTION('',(1.,0.));
#504 = ( GEOMETRIC_REPRESENTATION_CONTEXT(2) 
PARAMETRIC_REPRESENTATION_CONTEXT() REPRESENTATION_CONTEXT('2D SPACE',''
  ) );
#505 = ORIENTED_EDGE('',*,*,#435,.F.);
#506 = ORIENTED_EDGE('',*,*,#507,.T.);
#507 = EDGE_CURVE('',#436,#436,#508,.T.);
#508 = SURFACE_CURVE('',#509,(#514,#521),.PCURVE_S1.);
#509 = CIRCLE('',#510,4.);
#510 = AXIS2_PLACEMENT_3D('',#511,#512,#513);
#511 = CARTESIAN_POINT('',(7.87,46.51,127.));
#512 = DIRECTION('',(0.,0.,1.));
#513 = DIRECTION('',(1.,0.,0.));
#514 = PCURVE('',#296,#515);
#515 = DEFINITIONAL_REPRESENTATION('',(#516),#520);
#516 = LINE('',#517,#518);
#517 = CARTESIAN_POINT('',(0.,0.));
#518 = VECTOR('',#519,1.);
#519 = DIRECTION('',(1.,0.));
#520 = ( GEOMETRIC_REPRESENTATION_CONTEXT(2) 
PARAMETRIC_REPRESENTATION_CONTEXT() REPRESENTATION_CONTEXT('2D SPACE',''
  ) );
#521 = PCURVE('',#522,#527);
#522 = PLANE('',#523);
#523 = AXIS2_PLACEMENT_3D('',#524,#525,#526);
#524 = CARTESIAN_POINT('',(7.87,46.51,127.));
#525 = DIRECTION('',(0.,0.,1.));
#526 = DIRECTION('',(1.,0.,0.));
#527 = DEFINITIONAL_REPRESENTATION('',(#528),#532);
#528 = CIRCLE('',#529,4.);
#529 = AXIS2_PLACEMENT_2D('',#530,#531);
#530 = CARTESIAN_POINT('',(0.,0.));
#531 = DIRECTION('',(1.,0.));
#532 = ( GEOMETRIC_REPRESENTATION_CONTEXT(2) 
PARAMETRIC_REPRESENTATION_CONTEXT() REPRESENTATION_CONTEXT('2D SPACE',''
  ) );
#533 = ADVANCED_FACE('',(#534),#420,.T.);
#534 = FACE_BOUND('',#535,.T.);
#535 = EDGE_LOOP('',(#536,#537,#538));
#536 = ORIENTED_EDGE('',*,*,#460,.T.);
#537 = ORIENTED_EDGE('',*,*,#484,.T.);
#538 = ORIENTED_EDGE('',*,*,#407,.F.);
#539 = ADVANCED_FACE('',(#540),#522,.F.);
#540 = FACE_BOUND('',#541,.T.);
#541 = EDGE_LOOP('',(#542));
#542 = ORIENTED_EDGE('',*,*,#507,.F.);
#543 = ( GEOMETRIC_REPRESENTATION_CONTEXT(3) 
GLOBAL_UNCERTAINTY_ASSIGNED_CONTEXT((#547)) GLOBAL_UNIT_ASSIGNED_CONTEXT
((#544,#545,#546)) REPRESENTATION_CONTEXT('Context #1',
  '3D Context with UNIT and UNCERTAINTY') );
#544 = ( LENGTH_UNIT() NAMED_UNIT(*) SI_UNIT(.MILLI.,.METRE.) );
#545 = ( NAMED_UNIT(*) PLANE_ANGLE_UNIT() SI_UNIT($,.RADIAN.) );
#546 = ( NAMED_UNIT(*) SI_UNIT($,.STERADIAN.) SOLID_ANGLE_UNIT() );
#547 = UNCERTAINTY_MEASURE_WITH_UNIT(LENGTH_MEASURE(2.E-07),#544,
  'distance_accuracy_value','confusion accuracy');
#548 = PRODUCT_RELATED_PRODUCT_CATEGORY('part',$,(#7));
ENDSEC;
END-ISO-10303-21;
