0
SECTION
2
ENTITIES
0
ARC
8
CUT
10
0.000
20
0.000
40
88.750
50
56.274
51
108.526
0
LINE
8
CUT
10
58.777
20
66.497
11
75.996
21
85.978
0
LINE
8
CUT
10
49.277
20
73.813
11
63.713
21
95.437
0
ARC
8
CUT
10
0.000
20
0.000
40
114.750
50
48.526
51
56.274
0
ARC
8
CUT
10
0.000
20
0.000
40
88.750
50
116.274
51
168.526
0
LINE
8
CUT
10
-28.200
20
84.151
11
-36.461
21
108.803
0
LINE
8
CUT
10
-39.286
20
79.581
11
-50.795
21
102.895
0
ARC
8
CUT
10
0.000
20
0.000
40
114.750
50
108.526
51
116.274
0
ARC
8
CUT
10
0.000
20
0.000
40
88.750
50
176.274
51
228.526
0
LINE
8
CUT
10
-86.976
20
17.654
11
-112.457
21
22.825
0
LINE
8
CUT
10
-88.562
20
5.768
11
-114.507
21
7.458
0
ARC
8
CUT
10
0.000
20
0.000
40
114.750
50
168.526
51
176.274
0
ARC
8
CUT
10
0.000
20
0.000
40
88.750
50
236.274
51
288.526
0
LINE
8
CUT
10
-58.777
20
-66.497
11
-75.996
21
-85.978
0
LINE
8
CUT
10
-49.277
20
-73.813
11
-63.713
21
-95.437
0
ARC
8
CUT
10
0.000
20
0.000
40
114.750
50
228.526
51
236.274
0
ARC
8
CUT
10
0.000
20
0.000
40
88.750
50
296.274
51
348.526
0
LINE
8
CUT
10
28.200
20
-84.151
11
44.246
21
-132.034
0
LINE
8
CUT
10
39.286
20
-79.581
11
61.640
21
-124.864
0
ARC
8
CUT
10
0.000
20
0.000
40
139.250
50
288.526
51
296.274
0
ARC
8
CUT
10
0.000
20
0.000
40
88.750
50
356.274
51
48.526
0
LINE
8
CUT
10
86.976
20
-17.654
11
112.457
21
-22.825
0
LINE
8
CUT
10
88.562
20
-5.768
11
114.507
21
-7.458
0
ARC
8
CUT
10
0.000
20
0.000
40
114.750
50
348.526
51
356.274
0
CIRCLE
8
CUT
10
0.000
20
0.000
40
40.750
0
LINE
8
CUT
10
40.750
20
0.019
11
46.250
21
0.021
0
LINE
8
CUT
10
39.700
20
9.190
11
45.058
21
10.431
0
ARC
8
CUT
10
0.000
20
0.000
40
46.250
50
0.026
51
13.034
0
LINE
8
CUT
10
13.527
20
38.439
11
15.352
21
43.628
0
LINE
8
CUT
10
4.528
20
40.498
11
5.139
21
45.964
0
ARC
8
CUT
10
0.000
20
0.000
40
46.250
50
70.613
51
83.621
0
LINE
8
CUT
10
-31.758
20
25.534
11
-36.045
21
28.980
0
LINE
8
CUT
10
-36.690
20
17.731
11
-41.643
21
20.124
0
ARC
8
CUT
10
0.000
20
0.000
40
46.250
50
141.200
51
154.208
0
LINE
8
CUT
10
-34.638
20
-21.466
11
-39.313
21
-24.363
0
LINE
8
CUT
10
-28.918
20
-28.711
11
-32.821
21
-32.586
0
ARC
8
CUT
10
0.000
20
0.000
40
46.250
50
211.787
51
224.795
0
CIRCLE
8
CUT
10
70.932
20
25.569
40
2.000
0
CIRCLE
8
CUT
10
69.152
20
30.053
40
2.000
0
CIRCLE
8
CUT
10
67.088
20
34.414
40
2.000
0
CIRCLE
8
CUT
10
64.750
20
38.634
40
2.000
0
CIRCLE
8
CUT
10
62.147
20
42.696
40
2.000
0
CIRCLE
8
CUT
10
59.289
20
46.583
40
2.000
0
CIRCLE
8
CUT
10
52.858
20
53.770
40
2.000
0
CIRCLE
8
CUT
10
49.311
20
57.041
40
2.000
0
CIRCLE
8
CUT
10
45.562
20
60.077
40
2.000
0
CIRCLE
8
CUT
10
41.626
20
62.868
40
2.000
0
CIRCLE
8
CUT
10
37.520
20
65.402
40
2.000
0
CIRCLE
8
CUT
10
33.261
20
67.668
40
2.000
0
CIRCLE
8
CUT
10
-0.539
20
75.398
40
2.000
0
CIRCLE
8
CUT
10
-5.360
20
75.209
40
2.000
0
CIRCLE
8
CUT
10
-10.159
20
74.712
40
2.000
0
CIRCLE
8
CUT
10
-14.916
20
73.910
40
2.000
0
CIRCLE
8
CUT
10
-19.613
20
72.805
40
2.000
0
CIRCLE
8
CUT
10
-24.229
20
71.401
40
2.000
0
CIRCLE
8
CUT
10
-33.145
20
67.724
40
2.000
0
CIRCLE
8
CUT
10
-37.408
20
65.466
40
2.000
0
CIRCLE
8
CUT
10
-41.518
20
62.940
40
2.000
0
CIRCLE
8
CUT
10
-45.459
20
60.155
40
2.000
0
CIRCLE
8
CUT
10
-49.213
20
57.125
40
2.000
0
CIRCLE
8
CUT
10
-52.765
20
53.861
40
2.000
0
CIRCLE
8
CUT
10
-71.291
20
24.552
40
2.000
0
CIRCLE
8
CUT
10
-72.715
20
19.942
40
2.000
0
CIRCLE
8
CUT
10
-73.841
20
15.251
40
2.000
0
CIRCLE
8
CUT
10
-74.666
20
10.497
40
2.000
0
CIRCLE
8
CUT
10
-75.184
20
5.701
40
2.000
0
CIRCLE
8
CUT
10
-75.395
20
0.881
40
2.000
0
CIRCLE
8
CUT
10
-74.891
20
-8.750
40
2.000
0
CIRCLE
8
CUT
10
-74.178
20
-13.522
40
2.000
0
CIRCLE
8
CUT
10
-73.161
20
-18.238
40
2.000
0
CIRCLE
8
CUT
10
-71.845
20
-22.880
40
2.000
0
CIRCLE
8
CUT
10
-70.234
20
-27.428
40
2.000
0
CIRCLE
8
CUT
10
-68.336
20
-31.864
40
2.000
0
CIRCLE
8
CUT
10
-46.842
20
-59.085
40
2.000
0
CIRCLE
8
CUT
10
-42.946
20
-61.974
40
2.000
0
CIRCLE
8
CUT
10
-38.873
20
-64.607
40
2.000
0
CIRCLE
8
CUT
10
-34.640
20
-66.972
40
2.000
0
CIRCLE
8
CUT
10
-30.262
20
-69.060
40
2.000
0
CIRCLE
8
CUT
10
-25.760
20
-70.863
40
2.000
0
CIRCLE
8
CUT
10
-21.151
20
-72.373
40
2.000
0
CIRCLE
8
CUT
10
-6.878
20
-75.086
40
2.000
0
CIRCLE
8
CUT
10
-2.037
20
-75.372
40
2.000
0
CIRCLE
8
CUT
10
2.813
20
-75.348
40
2.000
0
CIRCLE
8
CUT
10
7.651
20
-75.011
40
2.000
0
CIRCLE
8
CUT
10
12.457
20
-74.364
40
2.000
0
CIRCLE
8
CUT
10
17.212
20
-73.409
40
2.000
0
CIRCLE
8
CUT
10
21.896
20
-72.151
40
2.000
0
CIRCLE
8
CUT
10
26.489
20
-70.594
40
2.000
0
CIRCLE
8
CUT
10
30.972
20
-68.745
40
2.000
0
CIRCLE
8
CUT
10
35.328
20
-66.612
40
2.000
0
CIRCLE
8
CUT
10
39.537
20
-64.203
40
2.000
0
CIRCLE
8
CUT
10
43.583
20
-61.528
40
2.000
0
CIRCLE
8
CUT
10
47.448
20
-58.599
40
2.000
0
CIRCLE
8
CUT
10
51.117
20
-55.428
40
2.000
0
CIRCLE
8
CUT
10
54.574
20
-52.027
40
2.000
0
CIRCLE
8
CUT
10
57.806
20
-48.411
40
2.000
0
CIRCLE
8
CUT
10
66.018
20
-36.425
40
2.000
0
CIRCLE
8
CUT
10
68.223
20
-32.106
40
2.000
0
CIRCLE
8
CUT
10
70.146
20
-27.653
40
2.000
0
CIRCLE
8
CUT
10
71.779
20
-23.087
40
2.000
0
CIRCLE
8
CUT
10
73.114
20
-18.425
40
2.000
0
CIRCLE
8
CUT
10
74.147
20
-13.686
40
2.000
0
CIRCLE
8
CUT
10
74.874
20
-8.891
40
2.000
0
CIRCLE
8
CUT
10
67.574
20
87.746
40
1.800
0
CIRCLE
8
CUT
10
-42.204
20
102.393
40
1.800
0
CIRCLE
8
CUT
10
-109.777
20
14.647
40
1.800
0
CIRCLE
8
CUT
10
-67.574
20
-87.746
40
1.800
0
CIRCLE
8
CUT
10
42.204
20
-102.393
40
1.800
0
CIRCLE
8
CUT
10
109.777
20
-14.647
40
1.800
0
CIRCLE
8
FOLD
10
0.000
20
0.000
40
78.750
0
ARC
8
FOLD
10
0.000
20
0.000
40
114.750
50
289.404
51
295.396
0
TEXT
8
NOTE
10
-150.000
20
140.750
40
5.000
1
04a CAP SHELL FLAT BLANK - 304SS 1.2mm - DIMS IN MM
0
TEXT
8
NOTE
10
-150.000
20
132.750
40
4.000
1
FOLD layer: circle R78.75 = skirt fold 90deg DOWN (10mm drop)
0
TEXT
8
NOTE
10
-150.000
20
125.750
40
4.000
1
6 fingers fold down with skirt; bolt holes D3.6 land at 32mm below rim
0
TEXT
8
NOTE
10
-150.000
20
118.750
40
4.000
1
HINGE TAB at 292.4deg: fold 180deg UP at FOLD arc, then curl last 13.5mm
0
TEXT
8
NOTE
10
-150.000
20
111.750
40
4.000
1
into two D8 barrels for D5 pin (piano hinge style)
0
TEXT
8
NOTE
10
-150.000
20
104.750
40
4.000
1
FORM (no cut): top dips 23.5mm at the 4 slot zones for R>46.25 - see 3D model
0
ENDSEC
0
EOF
