  0
SECTION
  2
HEADER
  9
$ACADVER
  1
AC1024
  9
$ACADMAINTVER
 70
6
  9
$DWGCODEPAGE
  3
ANSI_1252
  9
$LASTSAVEDBY
  1
ezdxf
  9
$INSBASE
 10
0.0
 20
0.0
 30
0.0
  9
$EXTMIN
 10
1e+20
 20
1e+20
 30
1e+20
  9
$EXTMAX
 10
-1e+20
 20
-1e+20
 30
-1e+20
  9
$LIMMIN
 10
0.0
 20
0.0
  9
$LIMMAX
 10
420.0
 20
297.0
  9
$ORTHOMODE
 70
0
  9
$REGENMODE
 70
1
  9
$FILLMODE
 70
1
  9
$QTEXTMODE
 70
0
  9
$MIRRTEXT
 70
1
  9
$LTSCALE
 40
1.0
  9
$ATTMODE
 70
1
  9
$TEXTSIZE
 40
2.5
  9
$TRACEWID
 40
1.0
  9
$TEXTSTYLE
  7
Standard
  9
$CLAYER
  8
0
  9
$CELTYPE
  6
ByLayer
  9
$CECOLOR
 62
256
  9
$CELTSCALE
 40
1.0
  9
$DISPSILH
 70
0
  9
$DIMSCALE
 40
1.0
  9
$DIMASZ
 40
2.5
  9
$DIMEXO
 40
0.625
  9
$DIMDLI
 40
3.75
  9
$DIMRND
 40
0.0
  9
$DIMDLE
 40
0.0
  9
$DIMEXE
 40
1.25
  9
$DIMTP
 40
0.0
  9
$DIMTM
 40
0.0
  9
$DIMTXT
 40
2.5
  9
$DIMCEN
 40
2.5
  9
$DIMTSZ
 40
0.0
  9
$DIMTOL
 70
0
  9
$DIMLIM
 70
0
  9
$DIMTIH
 70
0
  9
$DIMTOH
 70
0
  9
$DIMSE1
 70
0
  9
$DIMSE2
 70
0
  9
$DIMTAD
 70
1
  9
$DIMZIN
 70
8
  9
$DIMBLK
  1

  9
$DIMASO
 70
1
  9
$DIMSHO
 70
1
  9
$DIMPOST
  1

  9
$DIMAPOST
  1

  9
$DIMALT
 70
0
  9
$DIMALTD
 70
3
  9
$DIMALTF
 40
0.03937007874
  9
$DIMLFAC
 40
1.0
  9
$DIMTOFL
 70
1
  9
$DIMTVP
 40
0.0
  9
$DIMTIX
 70
0
  9
$DIMSOXD
 70
0
  9
$DIMSAH
 70
0
  9
$DIMBLK1
  1

  9
$DIMBLK2
  1

  9
$DIMSTYLE
  2
ISO-25
  9
$DIMCLRD
 70
0
  9
$DIMCLRE
 70
0
  9
$DIMCLRT
 70
0
  9
$DIMTFAC
 40
1.0
  9
$DIMGAP
 40
0.625
  9
$DIMJUST
 70
0
  9
$DIMSD1
 70
0
  9
$DIMSD2
 70
0
  9
$DIMTOLJ
 70
0
  9
$DIMTZIN
 70
8
  9
$DIMALTZ
 70
0
  9
$DIMALTTZ
 70
0
  9
$DIMUPT
 70
0
  9
$DIMDEC
 70
2
  9
$DIMTDEC
 70
2
  9
$DIMALTU
 70
2
  9
$DIMALTTD
 70
3
  9
$DIMTXSTY
  7
Standard
  9
$DIMAUNIT
 70
0
  9
$DIMADEC
 70
0
  9
$DIMALTRND
 40
0.0
  9
$DIMAZIN
 70
0
  9
$DIMDSEP
 70
44
  9
$DIMATFIT
 70
3
  9
$DIMFRAC
 70
0
  9
$DIMLDRBLK
  1

  9
$DIMLUNIT
 70
2
  9
$DIMLWD
 70
-2
  9
$DIMLWE
 70
-2
  9
$DIMTMOVE
 70
0
  9
$DIMFXL
 40
1.0
  9
$DIMFXLON
 70
0
  9
$DIMJOGANG
 40
0.785398163397
  9
$DIMTFILL
 70
0
  9
$DIMTFILLCLR
 70
0
  9
$DIMARCSYM
 70
0
  9
$DIMLTYPE
  6

  9
$DIMLTEX1
  6

  9
$DIMLTEX2
  6

  9
$DIMTXTDIRECTION
 70
0
  9
$LUNITS
 70
2
  9
$LUPREC
 70
4
  9
$SKETCHINC
 40
1.0
  9
$FILLETRAD
 40
10.0
  9
$AUNITS
 70
0
  9
$AUPREC
 70
2
  9
$MENU
  1
.
  9
$ELEVATION
 40
0.0
  9
$PELEVATION
 40
0.0
  9
$THICKNESS
 40
0.0
  9
$LIMCHECK
 70
0
  9
$CHAMFERA
 40
0.0
  9
$CHAMFERB
 40
0.0
  9
$CHAMFERC
 40
0.0
  9
$CHAMFERD
 40
0.0
  9
$SKPOLY
 70
0
  9
$TDCREATE
 40
2461097.785289352
  9
$TDUCREATE
 40
2458532.153996898
  9
$TDUPDATE
 40
2461097.785289352
  9
$TDUUPDATE
 40
2458532.1544311
  9
$TDINDWG
 40
0.0
  9
$TDUSRTIMER
 40
0.0
  9
$USRTIMER
 70
1
  9
$ANGBASE
 50
0.0
  9
$ANGDIR
 70
0
  9
$PDMODE
 70
0
  9
$PDSIZE
 40
0.0
  9
$PLINEWID
 40
0.0
  9
$SPLFRAME
 70
0
  9
$SPLINETYPE
 70
6
  9
$SPLINESEGS
 70
8
  9
$HANDSEED
  5
52
  9
$SURFTAB1
 70
6
  9
$SURFTAB2
 70
6
  9
$SURFTYPE
 70
6
  9
$SURFU
 70
6
  9
$SURFV
 70
6
  9
$UCSBASE
  2

  9
$UCSNAME
  2

  9
$UCSORG
 10
0.0
 20
0.0
 30
0.0
  9
$UCSXDIR
 10
1.0
 20
0.0
 30
0.0
  9
$UCSYDIR
 10
0.0
 20
1.0
 30
0.0
  9
$UCSORTHOREF
  2

  9
$UCSORTHOVIEW
 70
0
  9
$UCSORGTOP
 10
0.0
 20
0.0
 30
0.0
  9
$UCSORGBOTTOM
 10
0.0
 20
0.0
 30
0.0
  9
$UCSORGLEFT
 10
0.0
 20
0.0
 30
0.0
  9
$UCSORGRIGHT
 10
0.0
 20
0.0
 30
0.0
  9
$UCSORGFRONT
 10
0.0
 20
0.0
 30
0.0
  9
$UCSORGBACK
 10
0.0
 20
0.0
 30
0.0
  9
$PUCSBASE
  2

  9
$PUCSNAME
  2

  9
$PUCSORG
 10
0.0
 20
0.0
 30
0.0
  9
$PUCSXDIR
 10
1.0
 20
0.0
 30
0.0
  9
$PUCSYDIR
 10
0.0
 20
1.0
 30
0.0
  9
$PUCSORTHOREF
  2

  9
$PUCSORTHOVIEW
 70
0
  9
$PUCSORGTOP
 10
0.0
 20
0.0
 30
0.0
  9
$PUCSORGBOTTOM
 10
0.0
 20
0.0
 30
0.0
  9
$PUCSORGLEFT
 10
0.0
 20
0.0
 30
0.0
  9
$PUCSORGRIGHT
 10
0.0
 20
0.0
 30
0.0
  9
$PUCSORGFRONT
 10
0.0
 20
0.0
 30
0.0
  9
$PUCSORGBACK
 10
0.0
 20
0.0
 30
0.0
  9
$USERI1
 70
0
  9
$USERI2
 70
0
  9
$USERI3
 70
0
  9
$USERI4
 70
0
  9
$USERI5
 70
0
  9
$USERR1
 40
0.0
  9
$USERR2
 40
0.0
  9
$USERR3
 40
0.0
  9
$USERR4
 40
0.0
  9
$USERR5
 40
0.0
  9
$WORLDVIEW
 70
1
  9
$SHADEDGE
 70
3
  9
$SHADEDIF
 70
70
  9
$TILEMODE
 70
1
  9
$MAXACTVP
 70
64
  9
$PINSBASE
 10
0.0
 20
0.0
 30
0.0
  9
$PLIMCHECK
 70
0
  9
$PEXTMIN
 10
1e+20
 20
1e+20
 30
1e+20
  9
$PEXTMAX
 10
-1e+20
 20
-1e+20
 30
-1e+20
  9
$PLIMMIN
 10
0.0
 20
0.0
  9
$PLIMMAX
 10
420.0
 20
297.0
  9
$UNITMODE
 70
0
  9
$VISRETAIN
 70
1
  9
$PLINEGEN
 70
0
  9
$PSLTSCALE
 70
1
  9
$TREEDEPTH
 70
3020
  9
$CMLSTYLE
  2
Standard
  9
$CMLJUST
 70
0
  9
$CMLSCALE
 40
20.0
  9
$PROXYGRAPHICS
 70
1
  9
$MEASUREMENT
 70
1
  9
$CELWEIGHT
370
-1
  9
$ENDCAPS
280
0
  9
$JOINSTYLE
280
0
  9
$LWDISPLAY
290
0
  9
$INSUNITS
 70
6
  9
$HYPERLINKBASE
  1

  9
$STYLESHEET
  1

  9
$XEDIT
290
1
  9
$CEPSNTYPE
380
0
  9
$PSTYLEMODE
290
1
  9
$FINGERPRINTGUID
  2
{FD171981-26DD-465C-AF26-6134024EAFCD}
  9
$VERSIONGUID
  2
{441077BB-FEB5-4D16-991B-EB7CFC84B419}
  9
$EXTNAMES
290
1
  9
$PSVPSCALE
 40
0.0
  9
$OLESTARTUP
290
0
  9
$SORTENTS
280
127
  9
$INDEXCTL
280
0
  9
$HIDETEXT
280
1
  9
$XCLIPFRAME
280
1
  9
$HALOGAP
280
0
  9
$OBSCOLOR
 70
257
  9
$OBSLTYPE
280
0
  9
$INTERSECTIONDISPLAY
280
0
  9
$INTERSECTIONCOLOR
 70
257
  9
$DIMASSOC
280
2
  9
$PROJECTNAME
  1

  9
$CAMERADISPLAY
290
0
  9
$LENSLENGTH
 40
50.0
  9
$CAMERAHEIGHT
 40
0.0
  9
$STEPSPERSEC
 40
24.0
  9
$STEPSIZE
 40
100.0
  9
$3DDWFPREC
 40
2.0
  9
$PSOLWIDTH
 40
0.005
  9
$PSOLHEIGHT
 40
0.08
  9
$LOFTANG1
 40
1.570796326795
  9
$LOFTANG2
 40
1.570796326795
  9
$LOFTMAG1
 40
0.0
  9
$LOFTMAG2
 40
0.0
  9
$LOFTPARAM
 70
7
  9
$LOFTNORMALS
280
1
  9
$LATITUDE
 40
37.795
  9
$LONGITUDE
 40
-122.394
  9
$NORTHDIRECTION
 40
0.0
  9
$TIMEZONE
 70
-8000
  9
$LIGHTGLYPHDISPLAY
280
1
  9
$TILEMODELIGHTSYNCH
280
1
  9
$CMATERIAL
347
20
  9
$SOLIDHIST
280
0
  9
$SHOWHIST
280
1
  9
$DWFFRAME
280
2
  9
$DGNFRAME
280
2
  9
$REALWORLDSCALE
290
1
  9
$INTERFERECOLOR
 62
256
  9
$CSHADOW
280
0
  9
$SHADOWPLANELOCATION
 40
0.0
  0
ENDSEC
  0
SECTION
  2
CLASSES
  0
CLASS
  1
ACDBDICTIONARYWDFLT
  2
AcDbDictionaryWithDefault
  3
ObjectDBX Classes
 90
0
 91
0
280
0
281
0
  0
CLASS
  1
SUN
  2
AcDbSun
  3
SCENEOE
 90
1153
 91
0
280
0
281
0
  0
CLASS
  1
VISUALSTYLE
  2
AcDbVisualStyle
  3
ObjectDBX Classes
 90
4095
 91
0
280
0
281
0
  0
CLASS
  1
MATERIAL
  2
AcDbMaterial
  3
ObjectDBX Classes
 90
1153
 91
0
280
0
281
0
  0
CLASS
  1
SCALE
  2
AcDbScale
  3
ObjectDBX Classes
 90
1153
 91
0
280
0
281
0
  0
CLASS
  1
TABLESTYLE
  2
AcDbTableStyle
  3
ObjectDBX Classes
 90
4095
 91
0
280
0
281
0
  0
CLASS
  1
MLEADERSTYLE
  2
AcDbMLeaderStyle
  3
ACDB_MLEADERSTYLE_CLASS
 90
4095
 91
0
280
0
281
0
  0
CLASS
  1
DICTIONARYVAR
  2
AcDbDictionaryVar
  3
ObjectDBX Classes
 90
0
 91
0
280
0
281
0
  0
CLASS
  1
CELLSTYLEMAP
  2
AcDbCellStyleMap
  3
ObjectDBX Classes
 90
1152
 91
0
280
0
281
0
  0
CLASS
  1
MENTALRAYRENDERSETTINGS
  2
AcDbMentalRayRenderSettings
  3
SCENEOE
 90
1024
 91
0
280
0
281
0
  0
CLASS
  1
ACDBDETAILVIEWSTYLE
  2
AcDbDetailViewStyle
  3
ObjectDBX Classes
 90
1025
 91
0
280
0
281
0
  0
CLASS
  1
ACDBSECTIONVIEWSTYLE
  2
AcDbSectionViewStyle
  3
ObjectDBX Classes
 90
1025
 91
0
280
0
281
0
  0
CLASS
  1
RASTERVARIABLES
  2
AcDbRasterVariables
  3
ISM
 90
0
 91
0
280
0
281
0
  0
CLASS
  1
LAYOUT
  2
AcDbLayout
  3
ObjectDBX Classes
 90
0
 91
0
280
0
281
0
  0
CLASS
  1
ACDBPLACEHOLDER
  2
AcDbPlaceHolder
  3
ObjectDBX Classes
 90
0
 91
0
280
0
281
0
  0
ENDSEC
  0
SECTION
  2
TABLES
  0
TABLE
  2
VPORT
  5
8
330
0
100
AcDbSymbolTable
 70
1
  0
VPORT
  5
23
330
8
100
AcDbSymbolTableRecord
100
AcDbViewportTableRecord
  2
*Active
 70
0
 10
0.0
 20
0.0
 11
1.0
 21
1.0
 12
0.0
 22
0.0
 13
0.0
 23
0.0
 14
0.5
 24
0.5
 15
0.5
 25
0.5
 16
0.0
 26
0.0
 36
1.0
 17
0.0
 27
0.0
 37
0.0
 40
1000.0
 41
1.34
 42
50.0
 43
0.0
 44
0.0
 50
0.0
 51
0.0
 71
0
 72
1000
 73
1
 74
3
 75
0
 76
0
 77
0
 78
0
281
0
 65
0
146
0.0
  0
ENDTAB
  0
TABLE
  2
LTYPE
  5
2
330
0
100
AcDbSymbolTable
 70
4
  0
LTYPE
  5
24
330
2
100
AcDbSymbolTableRecord
100
AcDbLinetypeTableRecord
  2
ByBlock
 70
0
  3

 72
65
 73
0
 40
0.0
  0
LTYPE
  5
25
330
2
100
AcDbSymbolTableRecord
100
AcDbLinetypeTableRecord
  2
ByLayer
 70
0
  3

 72
65
 73
0
 40
0.0
  0
LTYPE
  5
26
330
2
100
AcDbSymbolTableRecord
100
AcDbLinetypeTableRecord
  2
Continuous
 70
0
  3

 72
65
 73
0
 40
0.0
  0
LTYPE
  5
2F
330
2
100
AcDbSymbolTableRecord
100
AcDbLinetypeTableRecord
  2
DASHED
 70
0
  3

 72
65
 73
2
 40
0.5
 49
0.25
 74
0
 49
-0.25
 74
0
  0
ENDTAB
  0
TABLE
  2
LAYER
  5
1
330
0
100
AcDbSymbolTable
 70
7
  0
LAYER
  5
27
330
1
100
AcDbSymbolTableRecord
100
AcDbLayerTableRecord
  2
0
 70
0
 62
7
  6
Continuous
370
-3
390
13
347
21
  0
LAYER
  5
28
330
1
100
AcDbSymbolTableRecord
100
AcDbLayerTableRecord
  2
Defpoints
 70
0
 62
7
  6
Continuous
290
0
370
-3
390
13
347
21
  0
LAYER
  5
30
330
1
100
AcDbSymbolTableRecord
100
AcDbLayerTableRecord
  2
CUT
 70
0
 62
1
  6
Continuous
370
-3
390
13
347
21
  0
LAYER
  5
31
330
1
100
AcDbSymbolTableRecord
100
AcDbLayerTableRecord
  2
HOLE
 70
0
 62
3
  6
Continuous
370
-3
390
13
347
21
  0
LAYER
  5
32
330
1
100
AcDbSymbolTableRecord
100
AcDbLayerTableRecord
  2
BEND
 70
0
 62
2
  6
DASHED
370
-3
390
13
347
21
  0
LAYER
  5
33
330
1
100
AcDbSymbolTableRecord
100
AcDbLayerTableRecord
  2
LABEL
 70
0
 62
4
  6
Continuous
370
-3
390
13
347
21
  0
LAYER
  5
34
330
1
100
AcDbSymbolTableRecord
100
AcDbLayerTableRecord
  2
CENTERLINE
 70
0
 62
6
  6
Continuous
370
-3
390
13
347
21
  0
ENDTAB
  0
TABLE
  2
STYLE
  5
5
330
0
100
AcDbSymbolTable
 70
1
  0
STYLE
  5
29
330
5
100
AcDbSymbolTableRecord
100
AcDbTextStyleTableRecord
  2
Standard
 70
0
 40
0.0
 41
1.0
 50
0.0
 71
0
 42
2.5
  3
txt
  4

  0
ENDTAB
  0
TABLE
  2
VIEW
  5
7
330
0
100
AcDbSymbolTable
 70
0
  0
ENDTAB
  0
TABLE
  2
UCS
  5
6
330
0
100
AcDbSymbolTable
 70
0
  0
ENDTAB
  0
TABLE
  2
APPID
  5
3
330
0
100
AcDbSymbolTable
 70
3
  0
APPID
  5
2A
330
3
100
AcDbSymbolTableRecord
100
AcDbRegAppTableRecord
  2
ACAD
 70
0
  0
APPID
  5
4F
330
3
100
AcDbSymbolTableRecord
100
AcDbRegAppTableRecord
  2
HATCHBACKGROUNDCOLOR
 70
0
  0
APPID
  5
50
330
3
100
AcDbSymbolTableRecord
100
AcDbRegAppTableRecord
  2
EZDXF
 70
0
  0
ENDTAB
  0
TABLE
  2
DIMSTYLE
  5
4
330
0
100
AcDbSymbolTable
 70
1
100
AcDbDimStyleTable
  0
DIMSTYLE
105
2B
330
4
100
AcDbSymbolTableRecord
100
AcDbDimStyleTableRecord
  2
Standard
 70
0
 40
1.0
 41
2.5
 42
0.625
 43
3.75
 44
1.25
 45
0.0
 46
0.0
 47
0.0
 48
0.0
 49
2.5
140
2.5
141
2.5
142
0.0
143
0.03937007874
144
1.0
145
0.0
146
1.0
147
0.625
148
0.0
 69
0
 70
0
 71
0
 72
0
 73
0
 74
0
 75
0
 76
0
 77
1
 78
8
 79
3
170
0
171
3
172
1
173
0
174
0
175
0
176
0
177
0
178
0
179
2
271
2
272
2
273
2
274
3
275
0
276
0
277
2
278
44
279
0
280
0
281
0
282
0
283
0
284
8
285
0
286
0
288
0
289
3
290
0
371
-2
372
-2
  0
ENDTAB
  0
TABLE
  2
BLOCK_RECORD
  5
9
330
0
100
AcDbSymbolTable
 70
2
  0
BLOCK_RECORD
  5
17
330
9
100
AcDbSymbolTableRecord
100
AcDbBlockTableRecord
  2
*Model_Space
340
1A
 70
0
280
1
281
0
  0
BLOCK_RECORD
  5
1B
330
9
100
AcDbSymbolTableRecord
100
AcDbBlockTableRecord
  2
*Paper_Space
340
1E
 70
0
280
1
281
0
  0
ENDTAB
  0
ENDSEC
  0
SECTION
  2
BLOCKS
  0
BLOCK
  5
18
330
17
100
AcDbEntity
  8
0
100
AcDbBlockBegin
  2
*Model_Space
 70
0
 10
0.0
 20
0.0
 30
0.0
  3
*Model_Space
  1

  0
ENDBLK
  5
19
330
17
100
AcDbEntity
  8
0
100
AcDbBlockEnd
  0
BLOCK
  5
1C
330
1B
100
AcDbEntity
  8
0
100
AcDbBlockBegin
  2
*Paper_Space
 70
0
 10
0.0
 20
0.0
 30
0.0
  3
*Paper_Space
  1

  0
ENDBLK
  5
1D
330
1B
100
AcDbEntity
  8
0
100
AcDbBlockEnd
  0
ENDSEC
  0
SECTION
  2
ENTITIES
  0
LWPOLYLINE
  5
35
330
17
100
AcDbEntity
  8
CUT
100
AcDbPolyline
 90
723
 70
1
 10
0.0
 20
122.7
 10
0.6287548630309572
 20
102.48294791781562
 10
1.2575097260619144
 20
101.6867470634981
 10
1.8862645890928715
 20
101.12193121489496
 10
2.5150194521238287
 20
100.6829429210671
 10
3.143774315154786
 20
100.32936917648156
 10
3.772529178185743
 20
100.04061456869944
 10
4.401284041216701
 20
99.80457606562707
 10
5.030038904247657
 20
99.61352924865994
 10
5.658793767278615
 20
99.46230140472237
 10
6.287548630309572
 20
99.34735094521042
 10
6.9163034933405285
 20
99.26626393171884
 10
7.545058356371486
 20
99.21746581233367
 10
8.173813219402442
 20
99.20005613602977
 10
8.802568082433401
 20
99.21372181078735
 10
9.431322945464357
 20
99.2587082411934
 10
10.060077808495315
 20
99.33584189474688
 10
10.688832671526272
 20
99.44660932204542
 10
11.31758753455723
 20
99.59331125382703
 10
11.946342397588186
 20
99.77933248577814
 10
12.575097260619144
 20
100.00961188297066
 10
13.203852123650101
 20
100.29149541523074
 10
13.832606986681057
 20
100.63640900416912
 10
14.461361849712015
 20
101.0635572741206
 10
15.090116712742972
 20
101.60980378528447
 10
15.71887157577393
 20
102.36682048523153
 10
16.347626438804884
 20
103.91449893215659
 10
16.976381301835843
 20
122.7
 10
17.605136164866803
 20
122.7
 10
18.23389102789776
 20
122.7
 10
18.862645890928714
 20
122.7
 10
19.491400753959674
 20
122.7
 10
20.12015561699063
 20
122.7
 10
20.748910480021586
 20
122.7
 10
21.377665343052545
 20
122.7
 10
22.0064202060835
 20
122.7
 10
22.63517506911446
 20
122.7
 10
23.263929932145416
 20
122.7
 10
23.892684795176372
 20
122.7
 10
24.52143965820733
 20
122.7
 10
25.150194521238287
 20
122.7
 10
25.778949384269243
 20
122.7
 10
26.407704247300202
 20
122.7
 10
27.036459110331162
 20
122.7
 10
27.665213973362114
 20
122.7
 10
28.293968836393073
 20
122.7
 10
28.92272369942403
 20
122.7
 10
29.55147856245499
 20
122.7
 10
30.180233425485945
 20
122.7
 10
30.8089882885169
 20
122.7
 10
31.43774315154786
 20
122.7
 10
32.06649801457882
 20
122.7
 10
32.69525287760977
 20
122.7
 10
33.32400774064073
 20
122.7
 10
33.95276260367169
 20
122.7
 10
34.58151746670265
 20
122.7
 10
35.210272329733606
 20
122.7
 10
35.83902719276456
 20
122.7
 10
36.46778205579552
 20
122.7
 10
37.09653691882647
 20
122.7
 10
37.72529178185743
 20
122.7
 10
38.35404664488839
 20
122.7
 10
38.98280150791935
 20
122.7
 10
39.611556370950304
 20
122.7
 10
40.24031123398126
 20
122.7
 10
40.869066097012215
 20
122.7
 10
41.49782096004317
 20
122.7
 10
42.126575823074134
 20
122.7
 10
42.75533068610509
 20
122.7
 10
43.384085549136046
 20
122.7
 10
44.012840412167
 20
122.7
 10
44.64159527519796
 20
122.7
 10
45.27035013822892
 20
122.7
 10
45.899105001259876
 20
122.7
 10
46.52785986429083
 20
122.7
 10
47.15661472732179
 20
122.7
 10
47.785369590352744
 20
122.7
 10
48.4141244533837
 20
122.7
 10
49.04287931641466
 20
122.7
 10
49.67163417944562
 20
122.7
 10
50.300389042476574
 20
122.7
 10
50.92914390550753
 20
122.7
 10
51.557898768538486
 20
122.7
 10
52.18665363156945
 20
122.7
 10
52.815408494600405
 20
122.7
 10
53.44416335763136
 20
122.7
 10
54.072918220662324
 20
122.7
 10
54.70167308369327
 20
122.7
 10
55.33042794672423
 20
122.7
 10
55.95918280975519
 20
122.7
 10
56.58793767278615
 20
122.7
 10
57.2166925358171
 20
122.7
 10
57.84544739884806
 20
122.7
 10
58.47420226187902
 20
122.7
 10
59.10295712490998
 20
122.7
 10
59.73171198794093
 20
122.7
 10
60.36046685097189
 20
122.7
 10
60.989221714002845
 20
122.7
 10
61.6179765770338
 20
122.7
 10
62.246731440064764
 20
122.7
 10
62.87548630309572
 20
122.7
 10
63.504241166126675
 20
122.7
 10
64.13299602915764
 20
122.7
 10
64.76175089218859
 20
122.7
 10
65.39050575521954
 20
122.7
 10
66.01926061825051
 20
122.7
 10
66.64801548128146
 20
122.7
 10
67.27677034431242
 20
122.7
 10
67.90552520734337
 20
122.7
 10
68.53428007037432
 20
122.7
 10
69.1630349334053
 20
122.7
 10
69.79178979643625
 20
122.7
 10
70.42054465946721
 20
122.7
 10
71.04929952249816
 20
122.7
 10
71.67805438552912
 20
122.7
 10
72.30680924856007
 20
122.7
 10
72.93556411159103
 20
122.7
 10
73.564318974622
 20
122.7
 10
74.19307383765295
 20
122.7
 10
74.82182870068391
 20
122.7
 10
75.45058356371486
 20
122.7
 10
76.07933842674582
 20
122.7
 10
76.70809328977678
 20
122.7
 10
77.33684815280773
 20
122.7
 10
77.9656030158387
 20
122.7
 10
78.59435787886964
 20
122.7
 10
79.22311274190061
 20
122.7
 10
79.85186760493157
 20
122.7
 10
80.48062246796252
 20
122.7
 10
81.10937733099348
 20
122.7
 10
81.73813219402443
 20
122.7
 10
82.3668870570554
 20
122.7
 10
82.99564192008634
 20
122.7
 10
83.6243967831173
 20
122.7
 10
84.25315164614827
 20
122.7
 10
84.88190650917922
 20
122.7
 10
85.51066137221018
 20
122.7
 10
86.13941623524113
 20
122.7
 10
86.76817109827209
 20
122.7
 10
87.39692596130305
 20
122.7
 10
88.025680824334
 20
122.7
 10
88.65443568736497
 20
122.7
 10
89.28319055039591
 20
102.66658763955016
 10
89.91194541342688
 20
101.80358134381177
 10
90.54070027645784
 20
101.20952072827481
 10
91.16945513948879
 20
100.75242210800315
 10
91.79821000251975
 20
100.3858074880081
 10
92.4269648655507
 20
100.08680834343461
 10
93.05571972858166
 20
99.84224303597115
 10
93.68447459161261
 20
99.64379471959066
 10
94.31322945464358
 20
99.48592946206878
 10
94.94198431767454
 20
99.36486621966318
 10
95.57073918070549
 20
99.2780200142951
 10
96.19949404373645
 20
99.22368480367044
 10
96.8282489067674
 20
99.2008509031956
 10
97.45700376979838
 20
99.20910655519279
 10
98.08575863282933
 20
99.24859979338181
 10
98.71451349586027
 20
99.32005202080606
 10
99.34326835889124
 20
99.42482631351831
 10
99.97202322192219
 20
99.56506632188075
 10
100.60077808495315
 20
99.74394160149035
 10
101.22953294798411
 20
99.96607354977955
 10
101.85828781101506
 20
100.23830089844566
 10
102.48704267404602
 20
100.57115682408732
 10
103.11579753707697
 20
100.98205513382078
 10
103.74455240010793
 20
101.5034662810962
 10
104.3733072631389
 20
102.21132126720714
 10
105.00206212616986
 20
103.44227675876523
 10
105.63081698920081
 20
122.7
 10
106.25957185223176
 20
122.7
 10
106.88832671526272
 20
122.7
 10
107.51708157829367
 20
122.7
 10
108.14583644132465
 20
122.7
 10
108.7745913043556
 20
122.7
 10
109.40334616738654
 20
122.7
 10
110.03210103041751
 20
122.7
 10
110.66085589344846
 20
122.7
 10
111.28961075647942
 20
122.7
 10
111.91836561951038
 20
122.7
 10
112.54712048254135
 20
122.7
 10
113.1758753455723
 20
122.7
 10
113.80463020860324
 20
122.7
 10
114.4333850716342
 20
122.7
 10
115.06213993466515
 20
122.7
 10
115.69089479769612
 20
122.7
 10
116.31964966072707
 20
122.7
 10
116.94840452375804
 20
122.7
 10
117.577159386789
 20
122.7
 10
118.20591424981995
 20
122.7
 10
118.83466911285092
 20
122.7
 10
119.46342397588187
 20
122.7
 10
120.09217883891283
 20
122.7
 10
120.72093370194378
 20
122.7
 10
121.34968856497473
 20
122.7
 10
121.97844342800569
 20
122.7
 10
122.60719829103664
 20
122.7
 10
123.2359531540676
 20
122.7
 10
123.86470801709858
 20
122.7
 10
124.49346288012953
 20
122.7
 10
125.12221774316049
 20
122.7
 10
125.75097260619144
 20
122.7
 10
126.3797274692224
 20
122.7
 10
127.00848233225335
 20
122.7
 10
127.63723719528431
 20
122.7
 10
128.26599205831528
 20
122.7
 10
128.8947469213462
 20
122.7
 10
129.52350178437717
 20
122.7
 10
130.15225664740814
 20
122.7
 10
130.78101151043907
 20
122.7
 10
131.40976637347006
 20
122.7
 10
132.03852123650103
 20
122.7
 10
132.66727609953196
 20
122.7
 10
133.29603096256292
 20
122.7
 10
133.9247858255939
 20
122.7
 10
134.55354068862485
 20
122.7
 10
135.18229555165578
 20
122.7
 10
135.81105041468675
 20
122.7
 10
136.4398052777177
 20
122.7
 10
137.06856014074864
 20
122.7
 10
137.6973150037796
 20
122.7
 10
138.3260698668106
 20
122.7
 10
138.95482472984156
 20
122.7
 10
139.5835795928725
 20
122.7
 10
140.21233445590346
 20
122.7
 10
140.84108931893442
 20
122.7
 10
141.46984418196536
 20
122.7
 10
142.09859904499632
 20
122.7
 10
142.72735390802728
 20
122.7
 10
143.35610877105825
 20
122.7
 10
143.98486363408918
 20
122.7
 10
144.61361849712014
 20
122.7
 10
145.24237336015113
 20
122.7
 10
145.87112822318207
 20
122.7
 10
146.49988308621303
 20
122.7
 10
147.128637949244
 20
122.7
 10
147.75739281227493
 20
122.7
 10
148.3861476753059
 20
122.7
 10
149.01490253833686
 20
122.7
 10
149.64365740136782
 20
122.7
 10
150.27241226439875
 20
122.7
 10
150.90116712742972
 20
122.7
 10
151.52992199046068
 20
122.7
 10
152.15867685349164
 20
122.7
 10
152.7874317165226
 20
122.7
 10
153.41618657955357
 20
122.7
 10
154.04494144258453
 20
122.7
 10
154.67369630561547
 20
122.7
 10
155.30245116864643
 20
122.7
 10
155.9312060316774
 20
122.7
 10
156.55996089470833
 20
122.7
 10
157.1887157577393
 20
122.7
 10
157.81747062077025
 20
122.7
 10
158.44622548380121
 20
122.7
 10
159.07498034683215
 20
122.7
 10
159.70373520986314
 20
122.7
 10
160.3324900728941
 20
122.7
 10
160.96124493592504
 20
122.7
 10
161.589999798956
 20
122.7
 10
162.21875466198696
 20
122.7
 10
162.8475095250179
 20
122.7
 10
163.47626438804886
 20
122.7
 10
164.10501925107982
 20
122.7
 10
164.7337741141108
 20
122.7
 10
165.36252897714172
 20
122.7
 10
165.99128384017268
 20
122.7
 10
166.62003870320368
 20
122.7
 10
167.2487935662346
 20
122.7
 10
167.87754842926557
 20
122.7
 10
168.50630329229654
 20
122.7
 10
169.1350581553275
 20
122.7
 10
169.76381301835843
 20
122.7
 10
170.3925678813894
 20
122.7
 10
171.02132274442036
 20
122.7
 10
171.6500776074513
 20
122.7
 10
172.27883247048226
 20
122.7
 10
172.90758733351322
 20
122.7
 10
173.53634219654418
 20
122.7
 10
174.16509705957515
 20
122.7
 10
174.7938519226061
 20
122.7
 10
175.42260678563707
 20
122.7
 10
176.051361648668
 20
122.7
 10
176.68011651169897
 20
122.7
 10
177.30887137472993
 20
122.7
 10
177.93762623776087
 20
102.8745768985126
 10
178.56638110079183
 20
101.9277729752317
 10
179.1951359638228
 20
101.30111090533717
 10
179.82389082685376
 20
100.82459270608871
 10
180.45264568988472
 20
100.44427213689602
 10
181.08140055291568
 20
100.13463958283972
 10
181.71015541594664
 20
99.88130024000442
 10
182.33891027897758
 20
99.67528517980212
 10
182.96766514200854
 20
99.51066928808217
 10
183.5964200050395
 20
99.38341571673618
 10
184.22517486807047
 20
99.29075908031221
 10
184.8539297311014
 20
99.23085643178985
 10
185.48268459413237
 20
99.20258592695012
 10
186.11143945716333
 20
99.20543600737506
 10
186.74019432019426
 20
99.23945774015047
 10
187.36894918322523
 20
99.30526949579848
 10
187.99770404625622
 20
99.40411500029094
 10
188.62645890928715
 20
99.53798808531982
 10
189.25521377231811
 20
99.70985561191698
 10
189.88396863534908
 20
99.924043886643
 10
190.51272349838004
 20
100.18692706953823
 10
191.14147836141098
 20
100.50823579712306
 10
191.77023322444194
 20
100.90381593794513
 10
192.3989880874729
 20
101.40245345841846
 10
193.02774295050384
 20
102.06801330933962
 10
193.6564978135348
 20
103.1330400856123
 10
194.28525267656576
 20
122.7
 10
194.91400753959675
 20
122.7
 10
195.5427624026277
 20
122.7
 10
196.17151726565865
 20
122.7
 10
196.8002721286896
 20
122.7
 10
197.42902699172055
 20
122.7
 10
198.0577818547515
 20
122.7
 10
198.68653671778247
 20
122.7
 10
199.31529158081344
 20
122.7
 10
199.94404644384437
 20
122.7
 10
200.57280130687533
 20
122.7
 10
201.2015561699063
 20
122.7
 10
201.83031103293726
 20
122.7
 10
202.45906589596822
 20
122.7
 10
203.0878207589992
 20
122.7
 10
203.71657562203012
 20
122.7
 10
204.34533048506108
 20
122.7
 10
204.97408534809205
 20
122.7
 10
205.602840211123
 20
122.7
 10
206.23159507415394
 20
122.7
 10
206.8603499371849
 20
122.7
 10
207.48910480021587
 20
122.7
 10
208.11785966324683
 20
122.7
 10
208.7466145262778
 20
122.7
 10
209.37536938930876
 20
122.7
 10
210.00412425233972
 20
122.7
 10
210.63287911537066
 20
122.7
 10
211.26163397840162
 20
122.7
 10
211.89038884143258
 20
122.7
 10
212.51914370446352
 20
122.7
 10
213.14789856749448
 20
122.7
 10
213.77665343052544
 20
122.7
 10
214.4054082935564
 20
122.7
 10
215.03416315658734
 20
122.7
 10
215.6629180196183
 20
122.7
 10
216.2916728826493
 20
122.7
 10
216.92042774568023
 20
122.7
 10
217.5491826087112
 20
122.7
 10
218.17793747174215
 20
122.7
 10
218.8066923347731
 20
122.7
 10
219.43544719780405
 20
122.7
 10
220.06420206083502
 20
122.7
 10
220.69295692386598
 20
122.7
 10
221.3217117868969
 20
122.7
 10
221.95046664992788
 20
122.7
 10
222.57922151295884
 20
122.7
 10
223.2079763759898
 20
122.7
 10
223.83673123902076
 20
122.7
 10
224.46548610205173
 20
122.7
 10
225.0942409650827
 20
122.7
 10
225.72299582811362
 20
122.7
 10
226.3517506911446
 20
122.7
 10
226.98050555417555
 20
122.7
 10
227.60926041720649
 20
122.7
 10
228.23801528023745
 20
122.7
 10
228.8667701432684
 20
122.7
 10
229.49552500629937
 20
122.7
 10
230.1242798693303
 20
122.7
 10
230.75303473236127
 20
122.7
 10
231.38178959539223
 20
122.7
 10
232.01054445842317
 20
122.7
 10
232.63929932145413
 20
122.7
 10
233.2680541844851
 20
122.7
 10
233.8968090475161
 20
122.7
 10
234.52556391054705
 20
122.7
 10
235.154318773578
 20
122.7
 10
235.78307363660898
 20
122.7
 10
236.4118284996399
 20
122.7
 10
237.04058336267087
 20
122.7
 10
237.66933822570184
 20
122.7
 10
238.29809308873277
 20
122.7
 10
238.92684795176373
 20
122.7
 10
239.5556028147947
 20
122.7
 10
240.18435767782566
 20
122.7
 10
240.8131125408566
 20
122.7
 10
241.44186740388756
 20
122.7
 10
242.07062226691852
 20
122.7
 10
242.69937712994945
 20
122.7
 10
243.32813199298042
 20
122.7
 10
243.95688685601138
 20
122.7
 10
244.58564171904234
 20
122.7
 10
245.21439658207328
 20
122.7
 10
245.84315144510424
 20
122.7
 10
246.4719063081352
 20
122.7
 10
247.10066117116614
 20
122.7
 10
247.72941603419716
 20
122.7
 10
248.35817089722812
 20
122.7
 10
248.98692576025906
 20
122.7
 10
249.61568062329002
 20
122.7
 10
250.24443548632098
 20
122.7
 10
250.87319034935194
 20
122.7
 10
251.50194521238288
 20
122.7
 10
252.13070007541384
 20
122.7
 10
252.7594549384448
 20
122.7
 10
253.38820980147574
 20
122.7
 10
254.0169646645067
 20
122.7
 10
254.64571952753766
 20
122.7
 10
255.27447439056863
 20
122.7
 10
255.90322925359956
 20
122.7
 10
256.53198411663055
 20
122.7
 10
257.16073897966146
 20
122.7
 10
257.7894938426924
 20
122.7
 10
258.4182487057234
 20
122.7
 10
259.04700356875435
 20
122.7
 10
259.6757584317853
 20
122.7
 10
260.3045132948163
 20
122.7
 10
260.93326815784724
 20
122.7
 10
261.56202302087814
 20
122.7
 10
262.19077788390916
 20
122.7
 10
262.8195327469401
 20
122.7
 10
263.4482876099711
 20
122.7
 10
264.07704247300205
 20
122.7
 10
264.705797336033
 20
122.7
 10
265.3345521990639
 20
122.7
 10
265.9633070620949
 20
122.7
 10
266.59206192512585
 20
103.11827600535563
 10
267.2208167881568
 20
102.06046883823666
 10
267.8495716511878
 20
101.39706179256632
 10
268.47832651421874
 20
100.8996188410225
 10
269.1070813772497
 20
100.5048532093368
 10
269.7358362402806
 20
100.18416336740594
 10
270.36459110331157
 20
99.92178365111306
 10
270.99334596634253
 20
99.70802503392142
 10
271.6221008293735
 20
99.53653767636825
 10
272.25085569240446
 20
99.40301083983478
 10
272.8796105554354
 20
99.30448843066645
 10
273.5083654184664
 20
99.23898462987208
 10
274.1371202814973
 20
99.20526214043855
 10
274.76587514452825
 20
99.20270818482823
 10
275.3946300075592
 20
99.23127700276552
 10
276.02338487059023
 20
99.29148565957185
 10
276.6521397336212
 20
99.38446223692038
 10
277.28089459665216
 20
99.51205735065584
 10
277.9096494596831
 20
99.67704656030648
 10
278.53840432271403
 20
99.88348123654393
 10
279.167159185745
 20
100.13730886258313
 10
279.79591404877596
 20
100.44753598057952
 10
280.4246689118069
 20
100.82862819404016
 10
281.0534237748379
 20
101.30625200795455
 10
281.68217863786884
 20
101.93481188214034
 10
282.3109335008998
 20
102.8868642895773
 10
282.9396883639307
 20
122.7
 10
283.5684432269617
 20
122.7
 10
284.19719808999264
 20
122.7
 10
284.8259529530236
 20
122.7
 10
285.45470781605457
 20
122.7
 10
286.0834626790855
 20
122.7
 10
286.7122175421165
 20
122.7
 10
287.3409724051474
 20
122.7
 10
287.96972726817836
 20
122.7
 10
288.5984821312093
 20
122.7
 10
289.2272369942403
 20
122.7
 10
289.85599185727125
 20
122.7
 10
290.48474672030227
 20
122.7
 10
291.1135015833332
 20
122.7
 10
291.74225644636414
 20
122.7
 10
292.3710113093951
 20
122.7
 10
292.99976617242606
 20
122.7
 10
293.628521035457
 20
122.7
 10
294.257275898488
 20
122.7
 10
294.88603076151895
 20
122.7
 10
295.51478562454986
 20
122.7
 10
296.1435404875808
 20
122.7
 10
296.7722953506118
 20
122.7
 10
297.40105021364275
 20
122.7
 10
298.0298050766737
 20
122.7
 10
298.6585599397047
 20
122.7
 10
299.28731480273564
 20
122.7
 10
299.91606966576654
 20
122.7
 10
300.5448245287975
 20
122.7
 10
301.17357939182847
 20
122.7
 10
301.80233425485943
 20
122.7
 10
302.4310891178904
 20
122.7
 10
303.05984398092136
 20
122.7
 10
303.6885988439523
 20
122.7
 10
304.3173537069833
 20
122.7
 10
304.94610857001425
 20
122.7
 10
305.5748634330452
 20
122.7
 10
306.2036182960762
 20
122.7
 10
306.83237315910714
 20
122.7
 10
307.4611280221381
 20
122.7
 10
308.08988288516906
 20
122.7
 10
308.71863774819997
 20
122.7
 10
309.34739261123093
 20
122.7
 10
309.9761474742619
 20
122.7
 10
310.60490233729286
 20
122.7
 10
311.2336572003238
 20
122.7
 10
311.8624120633548
 20
122.7
 10
312.49116692638574
 20
122.7
 10
313.11992178941665
 20
122.7
 10
313.7486766524476
 20
122.7
 10
314.3774315154786
 20
122.7
 10
315.00618637850954
 20
122.7
 10
315.6349412415405
 20
122.7
 10
316.26369610457147
 20
122.7
 10
316.89245096760243
 20
122.7
 10
317.52120583063333
 20
122.7
 10
318.1499606936643
 20
122.7
 10
318.7787155566953
 20
122.7
 10
319.4074704197263
 20
122.7
 10
320.03622528275724
 20
122.7
 10
320.6649801457882
 20
122.7
 10
321.2937350088191
 20
122.7
 10
321.9224898718501
 20
122.7
 10
322.55124473488104
 20
122.7
 10
323.179999597912
 20
122.7
 10
323.80875446094296
 20
122.7
 10
324.4375093239739
 20
122.7
 10
325.0662641870049
 20
122.7
 10
325.6950190500358
 20
122.7
 10
326.32377391306676
 20
122.7
 10
326.9525287760977
 20
122.7
 10
327.5812836391287
 20
122.7
 10
328.21003850215965
 20
122.7
 10
328.8387933651906
 20
122.7
 10
329.4675482282216
 20
122.7
 10
330.0963030912525
 20
122.7
 10
330.72505795428344
 20
122.7
 10
331.3538128173144
 20
122.7
 10
331.98256768034537
 20
122.7
 10
332.6113225433764
 20
122.7
 10
333.24007740640735
 20
122.7
 10
333.8688322694383
 20
122.7
 10
334.4975871324692
 20
122.7
 10
335.1263419955002
 20
122.7
 10
335.75509685853115
 20
122.7
 10
336.3838517215621
 20
122.7
 10
337.0126065845931
 20
122.7
 10
337.64136144762404
 20
122.7
 10
338.270116310655
 20
122.7
 10
338.8988711736859
 20
122.7
 10
339.52762603671687
 20
122.7
 10
340.15638089974783
 20
122.7
 10
340.7851357627788
 20
122.7
 10
341.41389062580976
 20
122.7
 10
342.0426454888407
 20
122.7
 10
342.6714003518717
 20
122.7
 10
343.3001552149026
 20
122.7
 10
343.92891007793355
 20
122.7
 10
344.5576649409645
 20
122.7
 10
345.1864198039955
 20
122.7
 10
345.81517466702644
 20
122.7
 10
346.4439295300574
 20
122.7
 10
347.07268439308837
 20
122.7
 10
347.70143925611933
 20
122.7
 10
348.3301941191503
 20
122.7
 10
348.95894898218125
 20
122.7
 10
349.5877038452122
 20
122.7
 10
350.2164587082432
 20
122.7
 10
350.84521357127414
 20
122.7
 10
351.47396843430505
 20
122.7
 10
352.102723297336
 20
122.7
 10
352.731478160367
 20
122.7
 10
353.36023302339794
 20
122.7
 10
353.9889878864289
 20
122.7
 10
354.61774274945986
 20
122.7
 10
355.2464976124908
 20
122.7
 10
355.87525247552173
 20
122.7
 10
356.5040073385527
 20
122.7
 10
357.13276220158366
 20
122.7
 10
357.7615170646146
 20
122.7
 10
358.3902719276456
 20
122.7
 10
359.01902679067655
 20
122.7
 10
359.6477816537075
 20
122.7
 10
360.2765365167384
 20
122.7
 10
360.90529137976944
 20
122.7
 10
361.5340462428004
 20
122.7
 10
362.16280110583136
 20
122.7
 10
362.7915559688623
 20
122.7
 10
363.4203108318933
 20
122.7
 10
364.04906569492425
 20
122.7
 10
364.67782055795516
 20
122.7
 10
365.3065754209861
 20
122.7
 10
365.9353302840171
 20
122.7
 10
366.56408514704805
 20
122.7
 10
367.192840010079
 20
122.7
 10
367.82159487311
 20
122.7
 10
368.45034973614094
 20
122.7
 10
369.07910459917184
 20
122.7
 10
369.7078594622028
 20
122.7
 10
370.33661432523377
 20
122.7
 10
370.96536918826473
 20
122.7
 10
371.5941240512957
 20
122.7
 10
372.22287891432666
 20
122.7
 10
372.8516337773576
 20
122.7
 10
373.4803886403885
 20
122.7
 10
374.1091435034195
 20
122.7
 10
374.73789836645045
 20
122.7
 10
375.36665322948147
 20
122.7
 10
375.99540809251243
 20
122.7
 10
376.6241629555434
 20
122.7
 10
377.2529178185743
 20
122.7
 10
377.88167268160527
 20
122.7
 10
378.51042754463623
 20
122.7
 10
379.1391824076672
 20
122.7
 10
379.76793727069816
 20
122.7
 10
380.3966921337291
 20
122.7
 10
381.0254469967601
 20
122.7
 10
381.654201859791
 20
122.7
 10
382.28295672282195
 20
122.7
 10
382.9117115858529
 20
122.7
 10
383.5404664488839
 20
122.7
 10
384.16922131191484
 20
122.7
 10
384.7979761749458
 20
122.7
 10
385.42673103797677
 20
122.7
 10
386.05548590100767
 20
122.7
 10
386.68424076403863
 20
122.7
 10
387.3129956270696
 20
122.7
 10
387.94175049010056
 20
122.7
 10
388.5705053531315
 20
122.7
 10
389.19926021616254
 20
122.7
 10
389.8280150791935
 20
122.7
 10
390.4567699422244
 20
122.7
 10
391.0855248052554
 20
122.7
 10
391.71427966828634
 20
122.7
 10
392.3430345313173
 20
122.7
 10
392.97178939434826
 20
122.7
 10
393.6005442573792
 20
122.7
 10
394.2292991204102
 20
122.7
 10
394.8580539834411
 20
122.7
 10
395.48680884647206
 20
122.7
 10
396.115563709503
 20
122.7
 10
396.744318572534
 20
122.7
 10
397.37307343556495
 20
122.7
 10
398.0018282985959
 20
122.7
 10
398.6305831616269
 20
122.7
 10
399.2593380246578
 20
122.7
 10
399.88809288768874
 20
122.7
 10
400.5168477507197
 20
122.7
 10
401.14560261375067
 20
122.7
 10
401.77435747678163
 20
122.7
 10
402.4031123398126
 20
122.7
 10
403.03186720284356
 20
122.7
 10
403.6606220658745
 20
122.7
 10
404.2893769289055
 20
122.7
 10
404.91813179193645
 20
122.7
 10
405.5468866549674
 20
122.7
 10
406.1756415179984
 20
122.7
 10
406.80439638102933
 20
122.7
 10
407.43315124406024
 20
122.7
 10
408.0619061070912
 20
122.7
 10
408.69066097012217
 20
122.7
 10
409.31941583315313
 20
122.7
 10
409.9481706961841
 20
122.7
 10
410.57692555921506
 20
122.7
 10
411.205680422246
 20
122.7
 10
411.8344352852769
 20
122.7
 10
412.4631901483079
 20
122.7
 10
413.09194501133885
 20
122.7
 10
413.7206998743698
 20
122.7
 10
414.3494547374008
 20
122.7
 10
414.97820960043174
 20
122.7
 10
415.6069644634627
 20
122.7
 10
416.23571932649367
 20
122.7
 10
416.86447418952457
 20
122.7
 10
417.4932290525556
 20
122.7
 10
418.12198391558655
 20
122.7
 10
418.7507387786175
 20
122.7
 10
419.3794936416485
 20
122.7
 10
420.00824850467944
 20
122.7
 10
420.63700336771035
 20
122.7
 10
421.2657582307413
 20
122.7
 10
421.8945130937723
 20
122.7
 10
422.52326795680324
 20
122.7
 10
423.1520228198342
 20
122.7
 10
423.78077768286516
 20
122.7
 10
424.4095325458961
 20
122.7
 10
425.03828740892703
 20
122.7
 10
425.667042271958
 20
122.7
 10
426.29579713498896
 20
122.7
 10
426.9245519980199
 20
122.7
 10
427.5533068610509
 20
122.7
 10
428.18206172408185
 20
122.7
 10
428.8108165871128
 20
122.7
 10
429.4395714501437
 20
122.7
 10
430.0683263131747
 20
122.7
 10
430.69708117620564
 20
122.7
 10
431.3258360392366
 20
122.7
 10
431.9545909022676
 20
122.7
 10
432.5833457652986
 20
122.7
 10
433.2121006283295
 20
122.7
 10
433.84085549136046
 20
122.7
 10
434.4696103543914
 20
122.7
 10
435.0983652174224
 20
122.7
 10
435.72712008045335
 20
122.7
 10
436.3558749434843
 20
122.7
 10
436.9846298065153
 20
122.7
 10
437.6133846695462
 20
122.7
 10
438.24213953257714
 20
122.7
 10
438.8708943956081
 20
122.7
 10
439.49964925863907
 20
122.7
 10
440.12840412167003
 20
122.7
 10
440.757158984701
 20
122.7
 10
441.38591384773196
 20
122.7
 10
442.0146687107629
 20
122.7
 10
442.6434235737938
 20
122.7
 10
443.2721784368248
 20
122.7
 10
443.90093329985575
 20
122.7
 10
444.5296881628867
 20
122.7
 10
445.1584430259177
 20
122.7
 10
445.7871978889487
 20
122.7
 10
446.4159527519796
 20
122.7
 10
447.04470761501057
 20
122.7
 10
447.67346247804153
 20
122.7
 10
448.3022173410725
 20
122.7
 10
448.93097220410345
 20
122.7
 10
449.5597270671344
 20
122.7
 10
450.1884819301654
 20
122.7
 10
450.8172367931963
 20
122.7
 10
451.44599165622725
 20
122.7
 10
452.0747465192582
 20
122.7
 10
452.7035013822892
 20
122.7
 10
452.7035013822892
 20
0.0
 10
0.0
 20
0.0
  0
CIRCLE
  5
36
330
17
100
AcDbEntity
  8
HOLE
100
AcDbCircle
 10
230.12128197100955
 20
98.2
 30
0.0
 40
4.0
  0
CIRCLE
  5
37
330
17
100
AcDbEntity
  8
HOLE
100
AcDbCircle
 10
230.12128197100955
 20
47.2
 30
0.0
 40
4.0
  0
LINE
  5
38
330
17
100
AcDbEntity
  8
CENTERLINE
100
AcDbLine
 10
227.12128197100955
 20
98.2
 30
0.0
 11
233.12128197100955
 21
98.2
 31
0.0
  0
LINE
  5
39
330
17
100
AcDbEntity
  8
CENTERLINE
100
AcDbLine
 10
230.12128197100955
 20
95.2
 30
0.0
 11
230.12128197100955
 21
101.2
 31
0.0
  0
LINE
  5
3A
330
17
100
AcDbEntity
  8
CENTERLINE
100
AcDbLine
 10
227.12128197100955
 20
47.2
 30
0.0
 11
233.12128197100955
 21
47.2
 31
0.0
  0
LINE
  5
3B
330
17
100
AcDbEntity
  8
CENTERLINE
100
AcDbLine
 10
230.12128197100955
 20
44.2
 30
0.0
 11
230.12128197100955
 21
50.2
 31
0.0
  0
CIRCLE
  5
3C
330
17
100
AcDbEntity
  8
HOLE
100
AcDbCircle
 10
395.58539013401656
 20
39.9
 30
0.0
 40
5.0
  0
LINE
  5
3D
330
17
100
AcDbEntity
  8
CENTERLINE
100
AcDbLine
 10
392.58539013401656
 20
39.9
 30
0.0
 11
398.58539013401656
 21
39.9
 31
0.0
  0
LINE
  5
3E
330
17
100
AcDbEntity
  8
CENTERLINE
100
AcDbLine
 10
395.58539013401656
 20
36.9
 30
0.0
 11
395.58539013401656
 21
42.9
 31
0.0
  0
TEXT
  5
3F
330
17
100
AcDbEntity
  8
LABEL
100
AcDbText
 10
5.0
 20
-10.0
 30
0.0
 40
5.0
  1
01A INNER HOUSING WALL
100
AcDbText
  0
TEXT
  5
40
330
17
100
AcDbEntity
  8
LABEL
100
AcDbText
 10
5.0
 20
-18.0
 30
0.0
 40
3.0
  1
Material: 304 Stainless Steel, 1.2mm
100
AcDbText
  0
TEXT
  5
41
330
17
100
AcDbEntity
  8
LABEL
100
AcDbText
 10
5.0
 20
-24.0
 30
0.0
 40
3.0
  1
Inside Bend Radius: 1.2mm (1×T)
100
AcDbText
  0
TEXT
  5
42
330
17
100
AcDbEntity
  8
LABEL
100
AcDbText
 10
5.0
 20
-30.0
 30
0.0
 40
3.0
  1
K-Factor: 0.44
100
AcDbText
  0
TEXT
  5
43
330
17
100
AcDbEntity
  8
LABEL
100
AcDbText
 10
5.0
 20
-36.0
 30
0.0
 40
3.0
  1
Flat: 452.7 x 122.7 mm
100
AcDbText
  0
TEXT
  5
44
330
17
100
AcDbEntity
  8
LABEL
100
AcDbText
 10
5.0
 20
-42.0
 30
0.0
 40
3.0
  1
Rolls into cylinder, R=70.85mm inner
100
AcDbText
  0
TEXT
  5
45
330
17
100
AcDbEntity
  8
LABEL
100
AcDbText
 10
5.0
 20
-55.0
 30
0.0
 40
3.0
  1
NOTES:
100
AcDbText
  0
TEXT
  5
46
330
17
100
AcDbEntity
  8
LABEL
100
AcDbText
 10
5.0
 20
-60.0
 30
0.0
 40
2.5
  1
1. All dimensions in mm
100
AcDbText
  0
TEXT
  5
47
330
17
100
AcDbEntity
  8
LABEL
100
AcDbText
 10
5.0
 20
-65.0
 30
0.0
 40
2.5
  1
2. Deburr all edges and holes
100
AcDbText
  0
TEXT
  5
48
330
17
100
AcDbEntity
  8
LABEL
100
AcDbText
 10
5.0
 20
-70.0
 30
0.0
 40
2.5
  1
3. Bend radii per callout (R1.2 unless noted)
100
AcDbText
  0
TEXT
  5
49
330
17
100
AcDbEntity
  8
LABEL
100
AcDbText
 10
5.0
 20
-75.0
 30
0.0
 40
2.5
  1
4. Grain direction parallel to longest dimension
100
AcDbText
  0
TEXT
  5
4A
330
17
100
AcDbEntity
  8
LABEL
100
AcDbText
 10
5.0
 20
-80.0
 30
0.0
 40
2.5
  1
5. All holes ±0.1mm
100
AcDbText
  0
LINE
  5
4B
330
17
100
AcDbEntity
  8
LABEL
100
AcDbLine
 10
226.3517506911446
 20
-10.0
 30
0.0
 11
266.3517506911446
 21
-10.0
 31
0.0
  0
LINE
  5
4C
330
17
100
AcDbEntity
  8
LABEL
100
AcDbLine
 10
266.3517506911446
 20
-10.0
 30
0.0
 11
262.3517506911446
 21
-8.0
 31
0.0
  0
LINE
  5
4D
330
17
100
AcDbEntity
  8
LABEL
100
AcDbLine
 10
266.3517506911446
 20
-10.0
 30
0.0
 11
262.3517506911446
 21
-12.0
 31
0.0
  0
TEXT
  5
4E
330
17
100
AcDbEntity
  8
LABEL
100
AcDbText
 10
241.3517506911446
 20
-7.0
 30
0.0
 40
2.5
  1
GRAIN
100
AcDbText
  0
ENDSEC
  0
SECTION
  2
OBJECTS
  0
DICTIONARY
  5
A
330
0
100
AcDbDictionary
281
1
  3
ACAD_COLOR
350
B
  3
ACAD_GROUP
350
C
  3
ACAD_LAYOUT
350
D
  3
ACAD_MATERIAL
350
E
  3
ACAD_MLEADERSTYLE
350
F
  3
ACAD_MLINESTYLE
350
10
  3
ACAD_PLOTSETTINGS
350
11
  3
ACAD_PLOTSTYLENAME
350
12
  3
ACAD_SCALELIST
350
14
  3
ACAD_TABLESTYLE
350
15
  3
ACAD_VISUALSTYLE
350
16
  3
EZDXF_META
350
2D
  0
DICTIONARY
  5
B
330
A
100
AcDbDictionary
281
1
  0
DICTIONARY
  5
C
330
A
100
AcDbDictionary
281
1
  0
DICTIONARY
  5
D
330
A
100
AcDbDictionary
281
1
  3
Model
350
1A
  3
Layout1
350
1E
  0
DICTIONARY
  5
E
330
A
100
AcDbDictionary
281
1
  3
ByBlock
350
1F
  3
ByLayer
350
20
  3
Global
350
21
  0
DICTIONARY
  5
F
330
A
100
AcDbDictionary
281
1
  3
Standard
350
2C
  0
DICTIONARY
  5
10
330
A
100
AcDbDictionary
281
1
  3
Standard
350
22
  0
DICTIONARY
  5
11
330
A
100
AcDbDictionary
281
1
  0
ACDBDICTIONARYWDFLT
  5
12
330
A
100
AcDbDictionary
281
1
  3
Normal
350
13
100
AcDbDictionaryWithDefault
340
13
  0
ACDBPLACEHOLDER
  5
13
330
12
  0
DICTIONARY
  5
14
330
A
100
AcDbDictionary
281
1
  0
DICTIONARY
  5
15
330
A
100
AcDbDictionary
281
1
  0
DICTIONARY
  5
16
330
A
100
AcDbDictionary
281
1
  0
LAYOUT
  5
1A
330
D
100
AcDbPlotSettings
  1

  4
A3
  6

 40
7.5
 41
20.0
 42
7.5
 43
20.0
 44
420.0
 45
297.0
 46
0.0
 47
0.0
 48
0.0
 49
0.0
140
0.0
141
0.0
142
1.0
143
1.0
 70
1024
 72
1
 73
0
 74
5
  7

 75
16
 76
0
 77
2
 78
300
147
1.0
148
0.0
149
0.0
100
AcDbLayout
  1
Model
 70
1
 71
0
 10
0.0
 20
0.0
 11
420.0
 21
297.0
 12
0.0
 22
0.0
 32
0.0
 14
1e+20
 24
1e+20
 34
1e+20
 15
-1e+20
 25
-1e+20
 35
-1e+20
146
0.0
 13
0.0
 23
0.0
 33
0.0
 16
1.0
 26
0.0
 36
0.0
 17
0.0
 27
1.0
 37
0.0
 76
1
330
17
  0
LAYOUT
  5
1E
330
D
100
AcDbPlotSettings
  1

  4
A3
  6

 40
7.5
 41
20.0
 42
7.5
 43
20.0
 44
420.0
 45
297.0
 46
0.0
 47
0.0
 48
0.0
 49
0.0
140
0.0
141
0.0
142
1.0
143
1.0
 70
0
 72
1
 73
0
 74
5
  7

 75
16
 76
0
 77
2
 78
300
147
1.0
148
0.0
149
0.0
100
AcDbLayout
  1
Layout1
 70
1
 71
1
 10
0.0
 20
0.0
 11
420.0
 21
297.0
 12
0.0
 22
0.0
 32
0.0
 14
1e+20
 24
1e+20
 34
1e+20
 15
-1e+20
 25
-1e+20
 35
-1e+20
146
0.0
 13
0.0
 23
0.0
 33
0.0
 16
1.0
 26
0.0
 36
0.0
 17
0.0
 27
1.0
 37
0.0
 76
1
330
1B
  0
MATERIAL
  5
1F
102
{ACAD_REACTORS
330
E
102
}
330
E
100
AcDbMaterial
  1
ByBlock
  2

 70
0
 40
1.0
 71
1
 41
1.0
 91
-1023410177
 42
1.0
 72
1
  3

 73
1
 74
1
 75
1
 44
0.5
 73
0
 45
1.0
 46
1.0
 77
1
  4

 78
1
 79
1
170
1
 48
1.0
171
1
  6

172
1
173
1
174
1
140
1.0
141
1.0
175
1
  7

176
1
177
1
178
1
143
1.0
179
1
  8

270
1
271
1
272
1
145
1.0
146
1.0
273
1
  9

274
1
275
1
276
1
 42
1.0
 72
1
  3

 73
1
 74
1
 75
1
 94
63
  0
MATERIAL
  5
20
102
{ACAD_REACTORS
330
E
102
}
330
E
100
AcDbMaterial
  1
ByLayer
  2

 70
0
 40
1.0
 71
1
 41
1.0
 91
-1023410177
 42
1.0
 72
1
  3

 73
1
 74
1
 75
1
 44
0.5
 73
0
 45
1.0
 46
1.0
 77
1
  4

 78
1
 79
1
170
1
 48
1.0
171
1
  6

172
1
173
1
174
1
140
1.0
141
1.0
175
1
  7

176
1
177
1
178
1
143
1.0
179
1
  8

270
1
271
1
272
1
145
1.0
146
1.0
273
1
  9

274
1
275
1
276
1
 42
1.0
 72
1
  3

 73
1
 74
1
 75
1
 94
63
  0
MATERIAL
  5
21
102
{ACAD_REACTORS
330
E
102
}
330
E
100
AcDbMaterial
  1
Global
  2

 70
0
 40
1.0
 71
1
 41
1.0
 91
-1023410177
 42
1.0
 72
1
  3

 73
1
 74
1
 75
1
 44
0.5
 73
0
 45
1.0
 46
1.0
 77
1
  4

 78
1
 79
1
170
1
 48
1.0
171
1
  6

172
1
173
1
174
1
140
1.0
141
1.0
175
1
  7

176
1
177
1
178
1
143
1.0
179
1
  8

270
1
271
1
272
1
145
1.0
146
1.0
273
1
  9

274
1
275
1
276
1
 42
1.0
 72
1
  3

 73
1
 74
1
 75
1
 94
63
  0
MLINESTYLE
  5
22
102
{ACAD_REACTORS
330
10
102
}
330
10
100
AcDbMlineStyle
  2
Standard
 70
0
  3

 62
256
 51
90.0
 52
90.0
 71
2
 49
0.5
 62
256
  6
BYLAYER
 49
-0.5
 62
256
  6
BYLAYER
  0
MLEADERSTYLE
  5
2C
102
{ACAD_REACTORS
330
F
102
}
330
F
100
AcDbMLeaderStyle
179
2
170
2
171
1
172
0
 90
2
 40
0.0
 41
0.0
173
1
 91
-1056964608
 92
-2
290
1
 42
2.0
291
1
 43
8.0
  3
Standard
 44
4.0
300

342
29
174
1
175
1
176
0
178
1
 93
-1056964608
 45
4.0
292
0
297
0
 46
4.0
 94
-1056964608
 47
1.0
 49
1.0
140
1.0
294
1
141
0.0
177
0
142
1.0
295
0
296
0
143
3.75
271
0
272
9
273
9
  0
DICTIONARY
  5
2D
330
A
100
AcDbDictionary
280
1
281
1
  3
CREATED_BY_EZDXF
350
2E
  3
WRITTEN_BY_EZDXF
350
51
  0
DICTIONARYVAR
  5
2E
330
2D
100
DictionaryVariables
280
0
  1
1.4.3 @ 2026-02-26T02:50:49.625176+00:00
  0
DICTIONARYVAR
  5
51
330
2D
100
DictionaryVariables
280
0
  1
1.4.3 @ 2026-02-26T02:50:49.627489+00:00
  0
ENDSEC
  0
EOF
