  0
SECTION
  2
HEADER
  9
$ACADVER
  1
AC1024
  9
$ACADMAINTVER
 70
6
  9
$DWGCODEPAGE
  3
ANSI_1252
  9
$LASTSAVEDBY
  1
ezdxf
  9
$INSBASE
 10
0.0
 20
0.0
 30
0.0
  9
$EXTMIN
 10
1e+20
 20
1e+20
 30
1e+20
  9
$EXTMAX
 10
-1e+20
 20
-1e+20
 30
-1e+20
  9
$LIMMIN
 10
0.0
 20
0.0
  9
$LIMMAX
 10
420.0
 20
297.0
  9
$ORTHOMODE
 70
0
  9
$REGENMODE
 70
1
  9
$FILLMODE
 70
1
  9
$QTEXTMODE
 70
0
  9
$MIRRTEXT
 70
1
  9
$LTSCALE
 40
1.0
  9
$ATTMODE
 70
1
  9
$TEXTSIZE
 40
2.5
  9
$TRACEWID
 40
1.0
  9
$TEXTSTYLE
  7
Standard
  9
$CLAYER
  8
0
  9
$CELTYPE
  6
ByLayer
  9
$CECOLOR
 62
256
  9
$CELTSCALE
 40
1.0
  9
$DISPSILH
 70
0
  9
$DIMSCALE
 40
1.0
  9
$DIMASZ
 40
2.5
  9
$DIMEXO
 40
0.625
  9
$DIMDLI
 40
3.75
  9
$DIMRND
 40
0.0
  9
$DIMDLE
 40
0.0
  9
$DIMEXE
 40
1.25
  9
$DIMTP
 40
0.0
  9
$DIMTM
 40
0.0
  9
$DIMTXT
 40
2.5
  9
$DIMCEN
 40
2.5
  9
$DIMTSZ
 40
0.0
  9
$DIMTOL
 70
0
  9
$DIMLIM
 70
0
  9
$DIMTIH
 70
0
  9
$DIMTOH
 70
0
  9
$DIMSE1
 70
0
  9
$DIMSE2
 70
0
  9
$DIMTAD
 70
1
  9
$DIMZIN
 70
8
  9
$DIMBLK
  1

  9
$DIMASO
 70
1
  9
$DIMSHO
 70
1
  9
$DIMPOST
  1

  9
$DIMAPOST
  1

  9
$DIMALT
 70
0
  9
$DIMALTD
 70
3
  9
$DIMALTF
 40
0.03937007874
  9
$DIMLFAC
 40
1.0
  9
$DIMTOFL
 70
1
  9
$DIMTVP
 40
0.0
  9
$DIMTIX
 70
0
  9
$DIMSOXD
 70
0
  9
$DIMSAH
 70
0
  9
$DIMBLK1
  1

  9
$DIMBLK2
  1

  9
$DIMSTYLE
  2
ISO-25
  9
$DIMCLRD
 70
0
  9
$DIMCLRE
 70
0
  9
$DIMCLRT
 70
0
  9
$DIMTFAC
 40
1.0
  9
$DIMGAP
 40
0.625
  9
$DIMJUST
 70
0
  9
$DIMSD1
 70
0
  9
$DIMSD2
 70
0
  9
$DIMTOLJ
 70
0
  9
$DIMTZIN
 70
8
  9
$DIMALTZ
 70
0
  9
$DIMALTTZ
 70
0
  9
$DIMUPT
 70
0
  9
$DIMDEC
 70
2
  9
$DIMTDEC
 70
2
  9
$DIMALTU
 70
2
  9
$DIMALTTD
 70
3
  9
$DIMTXSTY
  7
Standard
  9
$DIMAUNIT
 70
0
  9
$DIMADEC
 70
0
  9
$DIMALTRND
 40
0.0
  9
$DIMAZIN
 70
0
  9
$DIMDSEP
 70
44
  9
$DIMATFIT
 70
3
  9
$DIMFRAC
 70
0
  9
$DIMLDRBLK
  1

  9
$DIMLUNIT
 70
2
  9
$DIMLWD
 70
-2
  9
$DIMLWE
 70
-2
  9
$DIMTMOVE
 70
0
  9
$DIMFXL
 40
1.0
  9
$DIMFXLON
 70
0
  9
$DIMJOGANG
 40
0.785398163397
  9
$DIMTFILL
 70
0
  9
$DIMTFILLCLR
 70
0
  9
$DIMARCSYM
 70
0
  9
$DIMLTYPE
  6

  9
$DIMLTEX1
  6

  9
$DIMLTEX2
  6

  9
$DIMTXTDIRECTION
 70
0
  9
$LUNITS
 70
2
  9
$LUPREC
 70
4
  9
$SKETCHINC
 40
1.0
  9
$FILLETRAD
 40
10.0
  9
$AUNITS
 70
0
  9
$AUPREC
 70
2
  9
$MENU
  1
.
  9
$ELEVATION
 40
0.0
  9
$PELEVATION
 40
0.0
  9
$THICKNESS
 40
0.0
  9
$LIMCHECK
 70
0
  9
$CHAMFERA
 40
0.0
  9
$CHAMFERB
 40
0.0
  9
$CHAMFERC
 40
0.0
  9
$CHAMFERD
 40
0.0
  9
$SKPOLY
 70
0
  9
$TDCREATE
 40
2461157.4588194443
  9
$TDUCREATE
 40
2458532.153996898
  9
$TDUPDATE
 40
2461157.4588194443
  9
$TDUUPDATE
 40
2458532.1544311
  9
$TDINDWG
 40
0.0
  9
$TDUSRTIMER
 40
0.0
  9
$USRTIMER
 70
1
  9
$ANGBASE
 50
0.0
  9
$ANGDIR
 70
0
  9
$PDMODE
 70
0
  9
$PDSIZE
 40
0.0
  9
$PLINEWID
 40
0.0
  9
$SPLFRAME
 70
0
  9
$SPLINETYPE
 70
6
  9
$SPLINESEGS
 70
8
  9
$HANDSEED
  5
244
  9
$SURFTAB1
 70
6
  9
$SURFTAB2
 70
6
  9
$SURFTYPE
 70
6
  9
$SURFU
 70
6
  9
$SURFV
 70
6
  9
$UCSBASE
  2

  9
$UCSNAME
  2

  9
$UCSORG
 10
0.0
 20
0.0
 30
0.0
  9
$UCSXDIR
 10
1.0
 20
0.0
 30
0.0
  9
$UCSYDIR
 10
0.0
 20
1.0
 30
0.0
  9
$UCSORTHOREF
  2

  9
$UCSORTHOVIEW
 70
0
  9
$UCSORGTOP
 10
0.0
 20
0.0
 30
0.0
  9
$UCSORGBOTTOM
 10
0.0
 20
0.0
 30
0.0
  9
$UCSORGLEFT
 10
0.0
 20
0.0
 30
0.0
  9
$UCSORGRIGHT
 10
0.0
 20
0.0
 30
0.0
  9
$UCSORGFRONT
 10
0.0
 20
0.0
 30
0.0
  9
$UCSORGBACK
 10
0.0
 20
0.0
 30
0.0
  9
$PUCSBASE
  2

  9
$PUCSNAME
  2

  9
$PUCSORG
 10
0.0
 20
0.0
 30
0.0
  9
$PUCSXDIR
 10
1.0
 20
0.0
 30
0.0
  9
$PUCSYDIR
 10
0.0
 20
1.0
 30
0.0
  9
$PUCSORTHOREF
  2

  9
$PUCSORTHOVIEW
 70
0
  9
$PUCSORGTOP
 10
0.0
 20
0.0
 30
0.0
  9
$PUCSORGBOTTOM
 10
0.0
 20
0.0
 30
0.0
  9
$PUCSORGLEFT
 10
0.0
 20
0.0
 30
0.0
  9
$PUCSORGRIGHT
 10
0.0
 20
0.0
 30
0.0
  9
$PUCSORGFRONT
 10
0.0
 20
0.0
 30
0.0
  9
$PUCSORGBACK
 10
0.0
 20
0.0
 30
0.0
  9
$USERI1
 70
0
  9
$USERI2
 70
0
  9
$USERI3
 70
0
  9
$USERI4
 70
0
  9
$USERI5
 70
0
  9
$USERR1
 40
0.0
  9
$USERR2
 40
0.0
  9
$USERR3
 40
0.0
  9
$USERR4
 40
0.0
  9
$USERR5
 40
0.0
  9
$WORLDVIEW
 70
1
  9
$SHADEDGE
 70
3
  9
$SHADEDIF
 70
70
  9
$TILEMODE
 70
1
  9
$MAXACTVP
 70
64
  9
$PINSBASE
 10
0.0
 20
0.0
 30
0.0
  9
$PLIMCHECK
 70
0
  9
$PEXTMIN
 10
1e+20
 20
1e+20
 30
1e+20
  9
$PEXTMAX
 10
-1e+20
 20
-1e+20
 30
-1e+20
  9
$PLIMMIN
 10
0.0
 20
0.0
  9
$PLIMMAX
 10
420.0
 20
297.0
  9
$UNITMODE
 70
0
  9
$VISRETAIN
 70
1
  9
$PLINEGEN
 70
0
  9
$PSLTSCALE
 70
1
  9
$TREEDEPTH
 70
3020
  9
$CMLSTYLE
  2
Standard
  9
$CMLJUST
 70
0
  9
$CMLSCALE
 40
20.0
  9
$PROXYGRAPHICS
 70
1
  9
$MEASUREMENT
 70
1
  9
$CELWEIGHT
370
-1
  9
$ENDCAPS
280
0
  9
$JOINSTYLE
280
0
  9
$LWDISPLAY
290
0
  9
$INSUNITS
 70
6
  9
$HYPERLINKBASE
  1

  9
$STYLESHEET
  1

  9
$XEDIT
290
1
  9
$CEPSNTYPE
380
0
  9
$PSTYLEMODE
290
1
  9
$FINGERPRINTGUID
  2
{A6982ACD-8F80-443A-889D-DA4E02CC5DC5}
  9
$VERSIONGUID
  2
{D486DC09-513B-492E-98C2-F7CA3F5B2D38}
  9
$EXTNAMES
290
1
  9
$PSVPSCALE
 40
0.0
  9
$OLESTARTUP
290
0
  9
$SORTENTS
280
127
  9
$INDEXCTL
280
0
  9
$HIDETEXT
280
1
  9
$XCLIPFRAME
280
1
  9
$HALOGAP
280
0
  9
$OBSCOLOR
 70
257
  9
$OBSLTYPE
280
0
  9
$INTERSECTIONDISPLAY
280
0
  9
$INTERSECTIONCOLOR
 70
257
  9
$DIMASSOC
280
2
  9
$PROJECTNAME
  1

  9
$CAMERADISPLAY
290
0
  9
$LENSLENGTH
 40
50.0
  9
$CAMERAHEIGHT
 40
0.0
  9
$STEPSPERSEC
 40
24.0
  9
$STEPSIZE
 40
100.0
  9
$3DDWFPREC
 40
2.0
  9
$PSOLWIDTH
 40
0.005
  9
$PSOLHEIGHT
 40
0.08
  9
$LOFTANG1
 40
1.570796326795
  9
$LOFTANG2
 40
1.570796326795
  9
$LOFTMAG1
 40
0.0
  9
$LOFTMAG2
 40
0.0
  9
$LOFTPARAM
 70
7
  9
$LOFTNORMALS
280
1
  9
$LATITUDE
 40
37.795
  9
$LONGITUDE
 40
-122.394
  9
$NORTHDIRECTION
 40
0.0
  9
$TIMEZONE
 70
-8000
  9
$LIGHTGLYPHDISPLAY
280
1
  9
$TILEMODELIGHTSYNCH
280
1
  9
$CMATERIAL
347
20
  9
$SOLIDHIST
280
0
  9
$SHOWHIST
280
1
  9
$DWFFRAME
280
2
  9
$DGNFRAME
280
2
  9
$REALWORLDSCALE
290
1
  9
$INTERFERECOLOR
 62
256
  9
$CSHADOW
280
0
  9
$SHADOWPLANELOCATION
 40
0.0
  0
ENDSEC
  0
SECTION
  2
CLASSES
  0
CLASS
  1
ACDBDICTIONARYWDFLT
  2
AcDbDictionaryWithDefault
  3
ObjectDBX Classes
 90
0
 91
0
280
0
281
0
  0
CLASS
  1
SUN
  2
AcDbSun
  3
SCENEOE
 90
1153
 91
0
280
0
281
0
  0
CLASS
  1
VISUALSTYLE
  2
AcDbVisualStyle
  3
ObjectDBX Classes
 90
4095
 91
0
280
0
281
0
  0
CLASS
  1
MATERIAL
  2
AcDbMaterial
  3
ObjectDBX Classes
 90
1153
 91
0
280
0
281
0
  0
CLASS
  1
SCALE
  2
AcDbScale
  3
ObjectDBX Classes
 90
1153
 91
0
280
0
281
0
  0
CLASS
  1
TABLESTYLE
  2
AcDbTableStyle
  3
ObjectDBX Classes
 90
4095
 91
0
280
0
281
0
  0
CLASS
  1
MLEADERSTYLE
  2
AcDbMLeaderStyle
  3
ACDB_MLEADERSTYLE_CLASS
 90
4095
 91
0
280
0
281
0
  0
CLASS
  1
DICTIONARYVAR
  2
AcDbDictionaryVar
  3
ObjectDBX Classes
 90
0
 91
0
280
0
281
0
  0
CLASS
  1
CELLSTYLEMAP
  2
AcDbCellStyleMap
  3
ObjectDBX Classes
 90
1152
 91
0
280
0
281
0
  0
CLASS
  1
MENTALRAYRENDERSETTINGS
  2
AcDbMentalRayRenderSettings
  3
SCENEOE
 90
1024
 91
0
280
0
281
0
  0
CLASS
  1
ACDBDETAILVIEWSTYLE
  2
AcDbDetailViewStyle
  3
ObjectDBX Classes
 90
1025
 91
0
280
0
281
0
  0
CLASS
  1
ACDBSECTIONVIEWSTYLE
  2
AcDbSectionViewStyle
  3
ObjectDBX Classes
 90
1025
 91
0
280
0
281
0
  0
CLASS
  1
RASTERVARIABLES
  2
AcDbRasterVariables
  3
ISM
 90
0
 91
0
280
0
281
0
  0
CLASS
  1
ACDBPLACEHOLDER
  2
AcDbPlaceHolder
  3
ObjectDBX Classes
 90
0
 91
0
280
0
281
0
  0
CLASS
  1
LAYOUT
  2
AcDbLayout
  3
ObjectDBX Classes
 90
0
 91
0
280
0
281
0
  0
ENDSEC
  0
SECTION
  2
TABLES
  0
TABLE
  2
VPORT
  5
8
330
0
100
AcDbSymbolTable
 70
1
  0
VPORT
  5
23
330
8
100
AcDbSymbolTableRecord
100
AcDbViewportTableRecord
  2
*Active
 70
0
 10
0.0
 20
0.0
 11
1.0
 21
1.0
 12
0.0
 22
0.0
 13
0.0
 23
0.0
 14
0.5
 24
0.5
 15
0.5
 25
0.5
 16
0.0
 26
0.0
 36
1.0
 17
0.0
 27
0.0
 37
0.0
 40
1000.0
 41
1.34
 42
50.0
 43
0.0
 44
0.0
 50
0.0
 51
0.0
 71
0
 72
1000
 73
1
 74
3
 75
0
 76
0
 77
0
 78
0
281
0
 65
0
146
0.0
  0
ENDTAB
  0
TABLE
  2
LTYPE
  5
2
330
0
100
AcDbSymbolTable
 70
4
  0
LTYPE
  5
24
330
2
100
AcDbSymbolTableRecord
100
AcDbLinetypeTableRecord
  2
ByBlock
 70
0
  3

 72
65
 73
0
 40
0.0
  0
LTYPE
  5
25
330
2
100
AcDbSymbolTableRecord
100
AcDbLinetypeTableRecord
  2
ByLayer
 70
0
  3

 72
65
 73
0
 40
0.0
  0
LTYPE
  5
26
330
2
100
AcDbSymbolTableRecord
100
AcDbLinetypeTableRecord
  2
Continuous
 70
0
  3

 72
65
 73
0
 40
0.0
  0
LTYPE
  5
2F
330
2
100
AcDbSymbolTableRecord
100
AcDbLinetypeTableRecord
  2
DASHED
 70
0
  3

 72
65
 73
2
 40
0.5
 49
0.25
 74
0
 49
-0.25
 74
0
  0
ENDTAB
  0
TABLE
  2
LAYER
  5
1
330
0
100
AcDbSymbolTable
 70
7
  0
LAYER
  5
27
330
1
100
AcDbSymbolTableRecord
100
AcDbLayerTableRecord
  2
0
 70
0
 62
7
  6
Continuous
370
-3
390
13
347
21
  0
LAYER
  5
28
330
1
100
AcDbSymbolTableRecord
100
AcDbLayerTableRecord
  2
Defpoints
 70
0
 62
7
  6
Continuous
290
0
370
-3
390
13
347
21
  0
LAYER
  5
30
330
1
100
AcDbSymbolTableRecord
100
AcDbLayerTableRecord
  2
CUT
 70
0
 62
1
  6
Continuous
370
-3
390
13
347
21
  0
LAYER
  5
31
330
1
100
AcDbSymbolTableRecord
100
AcDbLayerTableRecord
  2
HOLE
 70
0
 62
3
  6
Continuous
370
-3
390
13
347
21
  0
LAYER
  5
32
330
1
100
AcDbSymbolTableRecord
100
AcDbLayerTableRecord
  2
BEND
 70
0
 62
2
  6
DASHED
370
-3
390
13
347
21
  0
LAYER
  5
33
330
1
100
AcDbSymbolTableRecord
100
AcDbLayerTableRecord
  2
LABEL
 70
0
 62
4
  6
Continuous
370
-3
390
13
347
21
  0
LAYER
  5
34
330
1
100
AcDbSymbolTableRecord
100
AcDbLayerTableRecord
  2
CENTERLINE
 70
0
 62
6
  6
Continuous
370
-3
390
13
347
21
  0
ENDTAB
  0
TABLE
  2
STYLE
  5
5
330
0
100
AcDbSymbolTable
 70
1
  0
STYLE
  5
29
330
5
100
AcDbSymbolTableRecord
100
AcDbTextStyleTableRecord
  2
Standard
 70
0
 40
0.0
 41
1.0
 50
0.0
 71
0
 42
2.5
  3
txt
  4

  0
ENDTAB
  0
TABLE
  2
VIEW
  5
7
330
0
100
AcDbSymbolTable
 70
0
  0
ENDTAB
  0
TABLE
  2
UCS
  5
6
330
0
100
AcDbSymbolTable
 70
0
  0
ENDTAB
  0
TABLE
  2
APPID
  5
3
330
0
100
AcDbSymbolTable
 70
3
  0
APPID
  5
2A
330
3
100
AcDbSymbolTableRecord
100
AcDbRegAppTableRecord
  2
ACAD
 70
0
  0
APPID
  5
241
330
3
100
AcDbSymbolTableRecord
100
AcDbRegAppTableRecord
  2
HATCHBACKGROUNDCOLOR
 70
0
  0
APPID
  5
242
330
3
100
AcDbSymbolTableRecord
100
AcDbRegAppTableRecord
  2
EZDXF
 70
0
  0
ENDTAB
  0
TABLE
  2
DIMSTYLE
  5
4
330
0
100
AcDbSymbolTable
 70
1
100
AcDbDimStyleTable
  0
DIMSTYLE
105
2B
330
4
100
AcDbSymbolTableRecord
100
AcDbDimStyleTableRecord
  2
Standard
 70
0
 40
1.0
 41
2.5
 42
0.625
 43
3.75
 44
1.25
 45
0.0
 46
0.0
 47
0.0
 48
0.0
 49
2.5
140
2.5
141
2.5
142
0.0
143
0.03937007874
144
1.0
145
0.0
146
1.0
147
0.625
148
0.0
 69
0
 70
0
 71
0
 72
0
 73
0
 74
0
 75
0
 76
0
 77
1
 78
8
 79
3
170
0
171
3
172
1
173
0
174
0
175
0
176
0
177
0
178
0
179
2
271
2
272
2
273
2
274
3
275
0
276
0
277
2
278
44
279
0
280
0
281
0
282
0
283
0
284
8
285
0
286
0
288
0
289
3
290
0
371
-2
372
-2
  0
ENDTAB
  0
TABLE
  2
BLOCK_RECORD
  5
9
330
0
100
AcDbSymbolTable
 70
2
  0
BLOCK_RECORD
  5
17
330
9
100
AcDbSymbolTableRecord
100
AcDbBlockTableRecord
  2
*Model_Space
340
1A
 70
0
280
1
281
0
  0
BLOCK_RECORD
  5
1B
330
9
100
AcDbSymbolTableRecord
100
AcDbBlockTableRecord
  2
*Paper_Space
340
1E
 70
0
280
1
281
0
  0
ENDTAB
  0
ENDSEC
  0
SECTION
  2
BLOCKS
  0
BLOCK
  5
18
330
17
100
AcDbEntity
  8
0
100
AcDbBlockBegin
  2
*Model_Space
 70
0
 10
0.0
 20
0.0
 30
0.0
  3
*Model_Space
  1

  0
ENDBLK
  5
19
330
17
100
AcDbEntity
  8
0
100
AcDbBlockEnd
  0
BLOCK
  5
1C
330
1B
100
AcDbEntity
  8
0
100
AcDbBlockBegin
  2
*Paper_Space
 70
0
 10
0.0
 20
0.0
 30
0.0
  3
*Paper_Space
  1

  0
ENDBLK
  5
1D
330
1B
100
AcDbEntity
  8
0
100
AcDbBlockEnd
  0
ENDSEC
  0
SECTION
  2
ENTITIES
  0
LWPOLYLINE
  5
35
330
17
100
AcDbEntity
  8
CUT
100
AcDbPolyline
 90
5
 70
1
 10
0.0
 20
0.0
 10
452.7035013822892
 20
0.0
 10
452.7035013822892
 20
35.0
 10
0.0
 20
35.0
 10
0.0
 20
0.0
  0
TEXT
  5
36
330
17
100
AcDbEntity
  8
LABEL
100
AcDbText
 10
5.0
 20
38.0
 30
0.0
 40
3.0
  1
LID INNER CYLINDER - 452.7 x 35 mm
100
AcDbText
  0
TEXT
  5
37
330
17
100
AcDbEntity
  8
LABEL
100
AcDbText
 10
5.0
 20
-6.0
 30
0.0
 40
2.5
  1
Rolls to R=70.85mm inner
100
AcDbText
  0
LWPOLYLINE
  5
38
330
17
100
AcDbEntity
  8
CUT
100
AcDbPolyline
 90
5
 70
1
 10
0.0
 20
60.0
 10
485.37606497962304
 20
60.0
 10
485.37606497962304
 20
95.0
 10
0.0
 20
95.0
 10
0.0
 20
60.0
  0
CIRCLE
  5
39
330
17
100
AcDbEntity
  8
HOLE
100
AcDbCircle
 10
6.0672008122452885
 20
65.0
 30
0.0
 40
2.0
  0
CIRCLE
  5
3A
330
17
100
AcDbEntity
  8
HOLE
100
AcDbCircle
 10
12.134401624490577
 20
65.0
 30
0.0
 40
2.0
  0
CIRCLE
  5
3B
330
17
100
AcDbEntity
  8
HOLE
100
AcDbCircle
 10
18.201602436735865
 20
65.0
 30
0.0
 40
2.0
  0
CIRCLE
  5
3C
330
17
100
AcDbEntity
  8
HOLE
100
AcDbCircle
 10
24.268803248981154
 20
65.0
 30
0.0
 40
2.0
  0
CIRCLE
  5
3D
330
17
100
AcDbEntity
  8
HOLE
100
AcDbCircle
 10
30.33600406122644
 20
65.0
 30
0.0
 40
2.0
  0
CIRCLE
  5
3E
330
17
100
AcDbEntity
  8
HOLE
100
AcDbCircle
 10
36.40320487347173
 20
65.0
 30
0.0
 40
2.0
  0
CIRCLE
  5
3F
330
17
100
AcDbEntity
  8
HOLE
100
AcDbCircle
 10
42.47040568571701
 20
65.0
 30
0.0
 40
2.0
  0
CIRCLE
  5
40
330
17
100
AcDbEntity
  8
HOLE
100
AcDbCircle
 10
48.53760649796231
 20
65.0
 30
0.0
 40
2.0
  0
CIRCLE
  5
41
330
17
100
AcDbEntity
  8
HOLE
100
AcDbCircle
 10
54.60480731020759
 20
65.0
 30
0.0
 40
2.0
  0
CIRCLE
  5
42
330
17
100
AcDbEntity
  8
HOLE
100
AcDbCircle
 10
60.67200812245288
 20
65.0
 30
0.0
 40
2.0
  0
CIRCLE
  5
43
330
17
100
AcDbEntity
  8
HOLE
100
AcDbCircle
 10
66.73920893469817
 20
65.0
 30
0.0
 40
2.0
  0
CIRCLE
  5
44
330
17
100
AcDbEntity
  8
HOLE
100
AcDbCircle
 10
72.80640974694346
 20
65.0
 30
0.0
 40
2.0
  0
CIRCLE
  5
45
330
17
100
AcDbEntity
  8
HOLE
100
AcDbCircle
 10
78.87361055918875
 20
65.0
 30
0.0
 40
2.0
  0
CIRCLE
  5
46
330
17
100
AcDbEntity
  8
HOLE
100
AcDbCircle
 10
84.94081137143402
 20
65.0
 30
0.0
 40
2.0
  0
CIRCLE
  5
47
330
17
100
AcDbEntity
  8
HOLE
100
AcDbCircle
 10
91.00801218367931
 20
65.0
 30
0.0
 40
2.0
  0
CIRCLE
  5
48
330
17
100
AcDbEntity
  8
HOLE
100
AcDbCircle
 10
97.07521299592462
 20
65.0
 30
0.0
 40
2.0
  0
CIRCLE
  5
49
330
17
100
AcDbEntity
  8
HOLE
100
AcDbCircle
 10
103.14241380816989
 20
65.0
 30
0.0
 40
2.0
  0
CIRCLE
  5
4A
330
17
100
AcDbEntity
  8
HOLE
100
AcDbCircle
 10
109.20961462041518
 20
65.0
 30
0.0
 40
2.0
  0
CIRCLE
  5
4B
330
17
100
AcDbEntity
  8
HOLE
100
AcDbCircle
 10
115.27681543266047
 20
65.0
 30
0.0
 40
2.0
  0
CIRCLE
  5
4C
330
17
100
AcDbEntity
  8
HOLE
100
AcDbCircle
 10
121.34401624490576
 20
65.0
 30
0.0
 40
2.0
  0
CIRCLE
  5
4D
330
17
100
AcDbEntity
  8
HOLE
100
AcDbCircle
 10
127.41121705715105
 20
65.0
 30
0.0
 40
2.0
  0
CIRCLE
  5
4E
330
17
100
AcDbEntity
  8
HOLE
100
AcDbCircle
 10
133.47841786939634
 20
65.0
 30
0.0
 40
2.0
  0
CIRCLE
  5
4F
330
17
100
AcDbEntity
  8
HOLE
100
AcDbCircle
 10
139.5456186816416
 20
65.0
 30
0.0
 40
2.0
  0
CIRCLE
  5
50
330
17
100
AcDbEntity
  8
HOLE
100
AcDbCircle
 10
145.61281949388692
 20
65.0
 30
0.0
 40
2.0
  0
CIRCLE
  5
51
330
17
100
AcDbEntity
  8
HOLE
100
AcDbCircle
 10
151.6800203061322
 20
65.0
 30
0.0
 40
2.0
  0
CIRCLE
  5
52
330
17
100
AcDbEntity
  8
HOLE
100
AcDbCircle
 10
157.7472211183775
 20
65.0
 30
0.0
 40
2.0
  0
CIRCLE
  5
53
330
17
100
AcDbEntity
  8
HOLE
100
AcDbCircle
 10
163.81442193062279
 20
65.0
 30
0.0
 40
2.0
  0
CIRCLE
  5
54
330
17
100
AcDbEntity
  8
HOLE
100
AcDbCircle
 10
169.88162274286805
 20
65.0
 30
0.0
 40
2.0
  0
CIRCLE
  5
55
330
17
100
AcDbEntity
  8
HOLE
100
AcDbCircle
 10
175.94882355511334
 20
65.0
 30
0.0
 40
2.0
  0
CIRCLE
  5
56
330
17
100
AcDbEntity
  8
HOLE
100
AcDbCircle
 10
182.01602436735863
 20
65.0
 30
0.0
 40
2.0
  0
CIRCLE
  5
57
330
17
100
AcDbEntity
  8
HOLE
100
AcDbCircle
 10
188.08322517960394
 20
65.0
 30
0.0
 40
2.0
  0
CIRCLE
  5
58
330
17
100
AcDbEntity
  8
HOLE
100
AcDbCircle
 10
194.15042599184923
 20
65.0
 30
0.0
 40
2.0
  0
CIRCLE
  5
59
330
17
100
AcDbEntity
  8
HOLE
100
AcDbCircle
 10
200.2176268040945
 20
65.0
 30
0.0
 40
2.0
  0
CIRCLE
  5
5A
330
17
100
AcDbEntity
  8
HOLE
100
AcDbCircle
 10
206.28482761633978
 20
65.0
 30
0.0
 40
2.0
  0
CIRCLE
  5
5B
330
17
100
AcDbEntity
  8
HOLE
100
AcDbCircle
 10
212.35202842858507
 20
65.0
 30
0.0
 40
2.0
  0
CIRCLE
  5
5C
330
17
100
AcDbEntity
  8
HOLE
100
AcDbCircle
 10
218.41922924083036
 20
65.0
 30
0.0
 40
2.0
  0
CIRCLE
  5
5D
330
17
100
AcDbEntity
  8
HOLE
100
AcDbCircle
 10
224.48643005307568
 20
65.0
 30
0.0
 40
2.0
  0
CIRCLE
  5
5E
330
17
100
AcDbEntity
  8
HOLE
100
AcDbCircle
 10
230.55363086532094
 20
65.0
 30
0.0
 40
2.0
  0
CIRCLE
  5
5F
330
17
100
AcDbEntity
  8
HOLE
100
AcDbCircle
 10
236.62083167756623
 20
65.0
 30
0.0
 40
2.0
  0
CIRCLE
  5
60
330
17
100
AcDbEntity
  8
HOLE
100
AcDbCircle
 10
242.68803248981152
 20
65.0
 30
0.0
 40
2.0
  0
CIRCLE
  5
61
330
17
100
AcDbEntity
  8
HOLE
100
AcDbCircle
 10
248.75523330205678
 20
65.0
 30
0.0
 40
2.0
  0
CIRCLE
  5
62
330
17
100
AcDbEntity
  8
HOLE
100
AcDbCircle
 10
254.8224341143021
 20
65.0
 30
0.0
 40
2.0
  0
CIRCLE
  5
63
330
17
100
AcDbEntity
  8
HOLE
100
AcDbCircle
 10
260.8896349265474
 20
65.0
 30
0.0
 40
2.0
  0
CIRCLE
  5
64
330
17
100
AcDbEntity
  8
HOLE
100
AcDbCircle
 10
266.9568357387927
 20
65.0
 30
0.0
 40
2.0
  0
CIRCLE
  5
65
330
17
100
AcDbEntity
  8
HOLE
100
AcDbCircle
 10
273.02403655103797
 20
65.0
 30
0.0
 40
2.0
  0
CIRCLE
  5
66
330
17
100
AcDbEntity
  8
HOLE
100
AcDbCircle
 10
279.0912373632832
 20
65.0
 30
0.0
 40
2.0
  0
CIRCLE
  5
67
330
17
100
AcDbEntity
  8
HOLE
100
AcDbCircle
 10
285.15843817552854
 20
65.0
 30
0.0
 40
2.0
  0
CIRCLE
  5
68
330
17
100
AcDbEntity
  8
HOLE
100
AcDbCircle
 10
291.22563898777383
 20
65.0
 30
0.0
 40
2.0
  0
CIRCLE
  5
69
330
17
100
AcDbEntity
  8
HOLE
100
AcDbCircle
 10
297.2928398000191
 20
65.0
 30
0.0
 40
2.0
  0
CIRCLE
  5
6A
330
17
100
AcDbEntity
  8
HOLE
100
AcDbCircle
 10
303.3600406122644
 20
65.0
 30
0.0
 40
2.0
  0
CIRCLE
  5
6B
330
17
100
AcDbEntity
  8
HOLE
100
AcDbCircle
 10
309.42724142450965
 20
65.0
 30
0.0
 40
2.0
  0
CIRCLE
  5
6C
330
17
100
AcDbEntity
  8
HOLE
100
AcDbCircle
 10
315.494442236755
 20
65.0
 30
0.0
 40
2.0
  0
CIRCLE
  5
6D
330
17
100
AcDbEntity
  8
HOLE
100
AcDbCircle
 10
321.5616430490002
 20
65.0
 30
0.0
 40
2.0
  0
CIRCLE
  5
6E
330
17
100
AcDbEntity
  8
HOLE
100
AcDbCircle
 10
327.62884386124557
 20
65.0
 30
0.0
 40
2.0
  0
CIRCLE
  5
6F
330
17
100
AcDbEntity
  8
HOLE
100
AcDbCircle
 10
333.69604467349086
 20
65.0
 30
0.0
 40
2.0
  0
CIRCLE
  5
70
330
17
100
AcDbEntity
  8
HOLE
100
AcDbCircle
 10
339.7632454857361
 20
65.0
 30
0.0
 40
2.0
  0
CIRCLE
  5
71
330
17
100
AcDbEntity
  8
HOLE
100
AcDbCircle
 10
345.83044629798144
 20
65.0
 30
0.0
 40
2.0
  0
CIRCLE
  5
72
330
17
100
AcDbEntity
  8
HOLE
100
AcDbCircle
 10
351.89764711022667
 20
65.0
 30
0.0
 40
2.0
  0
CIRCLE
  5
73
330
17
100
AcDbEntity
  8
HOLE
100
AcDbCircle
 10
357.964847922472
 20
65.0
 30
0.0
 40
2.0
  0
CIRCLE
  5
74
330
17
100
AcDbEntity
  8
HOLE
100
AcDbCircle
 10
364.03204873471725
 20
65.0
 30
0.0
 40
2.0
  0
CIRCLE
  5
75
330
17
100
AcDbEntity
  8
HOLE
100
AcDbCircle
 10
370.09924954696254
 20
65.0
 30
0.0
 40
2.0
  0
CIRCLE
  5
76
330
17
100
AcDbEntity
  8
HOLE
100
AcDbCircle
 10
376.1664503592079
 20
65.0
 30
0.0
 40
2.0
  0
CIRCLE
  5
77
330
17
100
AcDbEntity
  8
HOLE
100
AcDbCircle
 10
382.2336511714531
 20
65.0
 30
0.0
 40
2.0
  0
CIRCLE
  5
78
330
17
100
AcDbEntity
  8
HOLE
100
AcDbCircle
 10
388.30085198369846
 20
65.0
 30
0.0
 40
2.0
  0
CIRCLE
  5
79
330
17
100
AcDbEntity
  8
HOLE
100
AcDbCircle
 10
394.3680527959437
 20
65.0
 30
0.0
 40
2.0
  0
CIRCLE
  5
7A
330
17
100
AcDbEntity
  8
HOLE
100
AcDbCircle
 10
400.435253608189
 20
65.0
 30
0.0
 40
2.0
  0
CIRCLE
  5
7B
330
17
100
AcDbEntity
  8
HOLE
100
AcDbCircle
 10
406.50245442043433
 20
65.0
 30
0.0
 40
2.0
  0
CIRCLE
  5
7C
330
17
100
AcDbEntity
  8
HOLE
100
AcDbCircle
 10
412.56965523267957
 20
65.0
 30
0.0
 40
2.0
  0
CIRCLE
  5
7D
330
17
100
AcDbEntity
  8
HOLE
100
AcDbCircle
 10
418.6368560449249
 20
65.0
 30
0.0
 40
2.0
  0
CIRCLE
  5
7E
330
17
100
AcDbEntity
  8
HOLE
100
AcDbCircle
 10
424.70405685717014
 20
65.0
 30
0.0
 40
2.0
  0
CIRCLE
  5
7F
330
17
100
AcDbEntity
  8
HOLE
100
AcDbCircle
 10
430.77125766941543
 20
65.0
 30
0.0
 40
2.0
  0
CIRCLE
  5
80
330
17
100
AcDbEntity
  8
HOLE
100
AcDbCircle
 10
436.8384584816607
 20
65.0
 30
0.0
 40
2.0
  0
CIRCLE
  5
81
330
17
100
AcDbEntity
  8
HOLE
100
AcDbCircle
 10
442.905659293906
 20
65.0
 30
0.0
 40
2.0
  0
CIRCLE
  5
82
330
17
100
AcDbEntity
  8
HOLE
100
AcDbCircle
 10
448.97286010615136
 20
65.0
 30
0.0
 40
2.0
  0
CIRCLE
  5
83
330
17
100
AcDbEntity
  8
HOLE
100
AcDbCircle
 10
455.0400609183966
 20
65.0
 30
0.0
 40
2.0
  0
CIRCLE
  5
84
330
17
100
AcDbEntity
  8
HOLE
100
AcDbCircle
 10
461.1072617306419
 20
65.0
 30
0.0
 40
2.0
  0
CIRCLE
  5
85
330
17
100
AcDbEntity
  8
HOLE
100
AcDbCircle
 10
467.17446254288717
 20
65.0
 30
0.0
 40
2.0
  0
CIRCLE
  5
86
330
17
100
AcDbEntity
  8
HOLE
100
AcDbCircle
 10
473.24166335513246
 20
65.0
 30
0.0
 40
2.0
  0
CIRCLE
  5
87
330
17
100
AcDbEntity
  8
HOLE
100
AcDbCircle
 10
479.30886416737775
 20
65.0
 30
0.0
 40
2.0
  0
CIRCLE
  5
88
330
17
100
AcDbEntity
  8
HOLE
100
AcDbCircle
 10
3.0234833659491196
 20
71.0
 30
0.0
 40
2.0
  0
CIRCLE
  5
89
330
17
100
AcDbEntity
  8
HOLE
100
AcDbCircle
 10
9.090684178194408
 20
71.0
 30
0.0
 40
2.0
  0
CIRCLE
  5
8A
330
17
100
AcDbEntity
  8
HOLE
100
AcDbCircle
 10
15.157884990439698
 20
71.0
 30
0.0
 40
2.0
  0
CIRCLE
  5
8B
330
17
100
AcDbEntity
  8
HOLE
100
AcDbCircle
 10
21.225085802684983
 20
71.0
 30
0.0
 40
2.0
  0
CIRCLE
  5
8C
330
17
100
AcDbEntity
  8
HOLE
100
AcDbCircle
 10
27.292286614930273
 20
71.0
 30
0.0
 40
2.0
  0
CIRCLE
  5
8D
330
17
100
AcDbEntity
  8
HOLE
100
AcDbCircle
 10
33.35948742717556
 20
71.0
 30
0.0
 40
2.0
  0
CIRCLE
  5
8E
330
17
100
AcDbEntity
  8
HOLE
100
AcDbCircle
 10
39.42668823942085
 20
71.0
 30
0.0
 40
2.0
  0
CIRCLE
  5
8F
330
17
100
AcDbEntity
  8
HOLE
100
AcDbCircle
 10
45.49388905166613
 20
71.0
 30
0.0
 40
2.0
  0
CIRCLE
  5
90
330
17
100
AcDbEntity
  8
HOLE
100
AcDbCircle
 10
51.56108986391143
 20
71.0
 30
0.0
 40
2.0
  0
CIRCLE
  5
91
330
17
100
AcDbEntity
  8
HOLE
100
AcDbCircle
 10
57.62829067615671
 20
71.0
 30
0.0
 40
2.0
  0
CIRCLE
  5
92
330
17
100
AcDbEntity
  8
HOLE
100
AcDbCircle
 10
63.695491488402
 20
71.0
 30
0.0
 40
2.0
  0
CIRCLE
  5
93
330
17
100
AcDbEntity
  8
HOLE
100
AcDbCircle
 10
69.76269230064729
 20
71.0
 30
0.0
 40
2.0
  0
CIRCLE
  5
94
330
17
100
AcDbEntity
  8
HOLE
100
AcDbCircle
 10
75.82989311289258
 20
71.0
 30
0.0
 40
2.0
  0
CIRCLE
  5
95
330
17
100
AcDbEntity
  8
HOLE
100
AcDbCircle
 10
81.89709392513787
 20
71.0
 30
0.0
 40
2.0
  0
CIRCLE
  5
96
330
17
100
AcDbEntity
  8
HOLE
100
AcDbCircle
 10
87.96429473738314
 20
71.0
 30
0.0
 40
2.0
  0
CIRCLE
  5
97
330
17
100
AcDbEntity
  8
HOLE
100
AcDbCircle
 10
94.03149554962843
 20
71.0
 30
0.0
 40
2.0
  0
CIRCLE
  5
98
330
17
100
AcDbEntity
  8
HOLE
100
AcDbCircle
 10
100.09869636187373
 20
71.0
 30
0.0
 40
2.0
  0
CIRCLE
  5
99
330
17
100
AcDbEntity
  8
HOLE
100
AcDbCircle
 10
106.16589717411901
 20
71.0
 30
0.0
 40
2.0
  0
CIRCLE
  5
9A
330
17
100
AcDbEntity
  8
HOLE
100
AcDbCircle
 10
112.2330979863643
 20
71.0
 30
0.0
 40
2.0
  0
CIRCLE
  5
9B
330
17
100
AcDbEntity
  8
HOLE
100
AcDbCircle
 10
118.30029879860959
 20
71.0
 30
0.0
 40
2.0
  0
CIRCLE
  5
9C
330
17
100
AcDbEntity
  8
HOLE
100
AcDbCircle
 10
124.36749961085488
 20
71.0
 30
0.0
 40
2.0
  0
CIRCLE
  5
9D
330
17
100
AcDbEntity
  8
HOLE
100
AcDbCircle
 10
130.43470042310017
 20
71.0
 30
0.0
 40
2.0
  0
CIRCLE
  5
9E
330
17
100
AcDbEntity
  8
HOLE
100
AcDbCircle
 10
136.50190123534546
 20
71.0
 30
0.0
 40
2.0
  0
CIRCLE
  5
9F
330
17
100
AcDbEntity
  8
HOLE
100
AcDbCircle
 10
142.56910204759072
 20
71.0
 30
0.0
 40
2.0
  0
CIRCLE
  5
A0
330
17
100
AcDbEntity
  8
HOLE
100
AcDbCircle
 10
148.63630285983604
 20
71.0
 30
0.0
 40
2.0
  0
CIRCLE
  5
A1
330
17
100
AcDbEntity
  8
HOLE
100
AcDbCircle
 10
154.70350367208133
 20
71.0
 30
0.0
 40
2.0
  0
CIRCLE
  5
A2
330
17
100
AcDbEntity
  8
HOLE
100
AcDbCircle
 10
160.77070448432661
 20
71.0
 30
0.0
 40
2.0
  0
CIRCLE
  5
A3
330
17
100
AcDbEntity
  8
HOLE
100
AcDbCircle
 10
166.8379052965719
 20
71.0
 30
0.0
 40
2.0
  0
CIRCLE
  5
A4
330
17
100
AcDbEntity
  8
HOLE
100
AcDbCircle
 10
172.90510610881717
 20
71.0
 30
0.0
 40
2.0
  0
CIRCLE
  5
A5
330
17
100
AcDbEntity
  8
HOLE
100
AcDbCircle
 10
178.97230692106245
 20
71.0
 30
0.0
 40
2.0
  0
CIRCLE
  5
A6
330
17
100
AcDbEntity
  8
HOLE
100
AcDbCircle
 10
185.03950773330774
 20
71.0
 30
0.0
 40
2.0
  0
CIRCLE
  5
A7
330
17
100
AcDbEntity
  8
HOLE
100
AcDbCircle
 10
191.10670854555306
 20
71.0
 30
0.0
 40
2.0
  0
CIRCLE
  5
A8
330
17
100
AcDbEntity
  8
HOLE
100
AcDbCircle
 10
197.17390935779835
 20
71.0
 30
0.0
 40
2.0
  0
CIRCLE
  5
A9
330
17
100
AcDbEntity
  8
HOLE
100
AcDbCircle
 10
203.2411101700436
 20
71.0
 30
0.0
 40
2.0
  0
CIRCLE
  5
AA
330
17
100
AcDbEntity
  8
HOLE
100
AcDbCircle
 10
209.3083109822889
 20
71.0
 30
0.0
 40
2.0
  0
CIRCLE
  5
AB
330
17
100
AcDbEntity
  8
HOLE
100
AcDbCircle
 10
215.3755117945342
 20
71.0
 30
0.0
 40
2.0
  0
CIRCLE
  5
AC
330
17
100
AcDbEntity
  8
HOLE
100
AcDbCircle
 10
221.44271260677948
 20
71.0
 30
0.0
 40
2.0
  0
CIRCLE
  5
AD
330
17
100
AcDbEntity
  8
HOLE
100
AcDbCircle
 10
227.5099134190248
 20
71.0
 30
0.0
 40
2.0
  0
CIRCLE
  5
AE
330
17
100
AcDbEntity
  8
HOLE
100
AcDbCircle
 10
233.57711423127006
 20
71.0
 30
0.0
 40
2.0
  0
CIRCLE
  5
AF
330
17
100
AcDbEntity
  8
HOLE
100
AcDbCircle
 10
239.64431504351535
 20
71.0
 30
0.0
 40
2.0
  0
CIRCLE
  5
B0
330
17
100
AcDbEntity
  8
HOLE
100
AcDbCircle
 10
245.71151585576064
 20
71.0
 30
0.0
 40
2.0
  0
CIRCLE
  5
B1
330
17
100
AcDbEntity
  8
HOLE
100
AcDbCircle
 10
251.7787166680059
 20
71.0
 30
0.0
 40
2.0
  0
CIRCLE
  5
B2
330
17
100
AcDbEntity
  8
HOLE
100
AcDbCircle
 10
257.8459174802512
 20
71.0
 30
0.0
 40
2.0
  0
CIRCLE
  5
B3
330
17
100
AcDbEntity
  8
HOLE
100
AcDbCircle
 10
263.9131182924965
 20
71.0
 30
0.0
 40
2.0
  0
CIRCLE
  5
B4
330
17
100
AcDbEntity
  8
HOLE
100
AcDbCircle
 10
269.9803191047418
 20
71.0
 30
0.0
 40
2.0
  0
CIRCLE
  5
B5
330
17
100
AcDbEntity
  8
HOLE
100
AcDbCircle
 10
276.0475199169871
 20
71.0
 30
0.0
 40
2.0
  0
CIRCLE
  5
B6
330
17
100
AcDbEntity
  8
HOLE
100
AcDbCircle
 10
282.1147207292323
 20
71.0
 30
0.0
 40
2.0
  0
CIRCLE
  5
B7
330
17
100
AcDbEntity
  8
HOLE
100
AcDbCircle
 10
288.18192154147766
 20
71.0
 30
0.0
 40
2.0
  0
CIRCLE
  5
B8
330
17
100
AcDbEntity
  8
HOLE
100
AcDbCircle
 10
294.24912235372295
 20
71.0
 30
0.0
 40
2.0
  0
CIRCLE
  5
B9
330
17
100
AcDbEntity
  8
HOLE
100
AcDbCircle
 10
300.31632316596824
 20
71.0
 30
0.0
 40
2.0
  0
CIRCLE
  5
BA
330
17
100
AcDbEntity
  8
HOLE
100
AcDbCircle
 10
306.38352397821353
 20
71.0
 30
0.0
 40
2.0
  0
CIRCLE
  5
BB
330
17
100
AcDbEntity
  8
HOLE
100
AcDbCircle
 10
312.45072479045876
 20
71.0
 30
0.0
 40
2.0
  0
CIRCLE
  5
BC
330
17
100
AcDbEntity
  8
HOLE
100
AcDbCircle
 10
318.5179256027041
 20
71.0
 30
0.0
 40
2.0
  0
CIRCLE
  5
BD
330
17
100
AcDbEntity
  8
HOLE
100
AcDbCircle
 10
324.58512641494934
 20
71.0
 30
0.0
 40
2.0
  0
CIRCLE
  5
BE
330
17
100
AcDbEntity
  8
HOLE
100
AcDbCircle
 10
330.6523272271947
 20
71.0
 30
0.0
 40
2.0
  0
CIRCLE
  5
BF
330
17
100
AcDbEntity
  8
HOLE
100
AcDbCircle
 10
336.71952803944
 20
71.0
 30
0.0
 40
2.0
  0
CIRCLE
  5
C0
330
17
100
AcDbEntity
  8
HOLE
100
AcDbCircle
 10
342.7867288516852
 20
71.0
 30
0.0
 40
2.0
  0
CIRCLE
  5
C1
330
17
100
AcDbEntity
  8
HOLE
100
AcDbCircle
 10
348.85392966393056
 20
71.0
 30
0.0
 40
2.0
  0
CIRCLE
  5
C2
330
17
100
AcDbEntity
  8
HOLE
100
AcDbCircle
 10
354.9211304761758
 20
71.0
 30
0.0
 40
2.0
  0
CIRCLE
  5
C3
330
17
100
AcDbEntity
  8
HOLE
100
AcDbCircle
 10
360.98833128842114
 20
71.0
 30
0.0
 40
2.0
  0
CIRCLE
  5
C4
330
17
100
AcDbEntity
  8
HOLE
100
AcDbCircle
 10
367.05553210066637
 20
71.0
 30
0.0
 40
2.0
  0
CIRCLE
  5
C5
330
17
100
AcDbEntity
  8
HOLE
100
AcDbCircle
 10
373.12273291291166
 20
71.0
 30
0.0
 40
2.0
  0
CIRCLE
  5
C6
330
17
100
AcDbEntity
  8
HOLE
100
AcDbCircle
 10
379.189933725157
 20
71.0
 30
0.0
 40
2.0
  0
CIRCLE
  5
C7
330
17
100
AcDbEntity
  8
HOLE
100
AcDbCircle
 10
385.25713453740224
 20
71.0
 30
0.0
 40
2.0
  0
CIRCLE
  5
C8
330
17
100
AcDbEntity
  8
HOLE
100
AcDbCircle
 10
391.3243353496476
 20
71.0
 30
0.0
 40
2.0
  0
CIRCLE
  5
C9
330
17
100
AcDbEntity
  8
HOLE
100
AcDbCircle
 10
397.3915361618928
 20
71.0
 30
0.0
 40
2.0
  0
CIRCLE
  5
CA
330
17
100
AcDbEntity
  8
HOLE
100
AcDbCircle
 10
403.4587369741381
 20
71.0
 30
0.0
 40
2.0
  0
CIRCLE
  5
CB
330
17
100
AcDbEntity
  8
HOLE
100
AcDbCircle
 10
409.52593778638345
 20
71.0
 30
0.0
 40
2.0
  0
CIRCLE
  5
CC
330
17
100
AcDbEntity
  8
HOLE
100
AcDbCircle
 10
415.5931385986287
 20
71.0
 30
0.0
 40
2.0
  0
CIRCLE
  5
CD
330
17
100
AcDbEntity
  8
HOLE
100
AcDbCircle
 10
421.66033941087403
 20
71.0
 30
0.0
 40
2.0
  0
CIRCLE
  5
CE
330
17
100
AcDbEntity
  8
HOLE
100
AcDbCircle
 10
427.72754022311926
 20
71.0
 30
0.0
 40
2.0
  0
CIRCLE
  5
CF
330
17
100
AcDbEntity
  8
HOLE
100
AcDbCircle
 10
433.79474103536455
 20
71.0
 30
0.0
 40
2.0
  0
CIRCLE
  5
D0
330
17
100
AcDbEntity
  8
HOLE
100
AcDbCircle
 10
439.86194184760984
 20
71.0
 30
0.0
 40
2.0
  0
CIRCLE
  5
D1
330
17
100
AcDbEntity
  8
HOLE
100
AcDbCircle
 10
445.92914265985513
 20
71.0
 30
0.0
 40
2.0
  0
CIRCLE
  5
D2
330
17
100
AcDbEntity
  8
HOLE
100
AcDbCircle
 10
451.9963434721005
 20
71.0
 30
0.0
 40
2.0
  0
CIRCLE
  5
D3
330
17
100
AcDbEntity
  8
HOLE
100
AcDbCircle
 10
458.0635442843457
 20
71.0
 30
0.0
 40
2.0
  0
CIRCLE
  5
D4
330
17
100
AcDbEntity
  8
HOLE
100
AcDbCircle
 10
464.130745096591
 20
71.0
 30
0.0
 40
2.0
  0
CIRCLE
  5
D5
330
17
100
AcDbEntity
  8
HOLE
100
AcDbCircle
 10
470.1979459088363
 20
71.0
 30
0.0
 40
2.0
  0
CIRCLE
  5
D6
330
17
100
AcDbEntity
  8
HOLE
100
AcDbCircle
 10
476.2651467210816
 20
71.0
 30
0.0
 40
2.0
  0
CIRCLE
  5
D7
330
17
100
AcDbEntity
  8
HOLE
100
AcDbCircle
 10
482.33234753332687
 20
71.0
 30
0.0
 40
2.0
  0
CIRCLE
  5
D8
330
17
100
AcDbEntity
  8
HOLE
100
AcDbCircle
 10
6.0672008122452885
 20
77.0
 30
0.0
 40
2.0
  0
CIRCLE
  5
D9
330
17
100
AcDbEntity
  8
HOLE
100
AcDbCircle
 10
12.134401624490577
 20
77.0
 30
0.0
 40
2.0
  0
CIRCLE
  5
DA
330
17
100
AcDbEntity
  8
HOLE
100
AcDbCircle
 10
18.201602436735865
 20
77.0
 30
0.0
 40
2.0
  0
CIRCLE
  5
DB
330
17
100
AcDbEntity
  8
HOLE
100
AcDbCircle
 10
24.268803248981154
 20
77.0
 30
0.0
 40
2.0
  0
CIRCLE
  5
DC
330
17
100
AcDbEntity
  8
HOLE
100
AcDbCircle
 10
30.33600406122644
 20
77.0
 30
0.0
 40
2.0
  0
CIRCLE
  5
DD
330
17
100
AcDbEntity
  8
HOLE
100
AcDbCircle
 10
36.40320487347173
 20
77.0
 30
0.0
 40
2.0
  0
CIRCLE
  5
DE
330
17
100
AcDbEntity
  8
HOLE
100
AcDbCircle
 10
42.47040568571701
 20
77.0
 30
0.0
 40
2.0
  0
CIRCLE
  5
DF
330
17
100
AcDbEntity
  8
HOLE
100
AcDbCircle
 10
48.53760649796231
 20
77.0
 30
0.0
 40
2.0
  0
CIRCLE
  5
E0
330
17
100
AcDbEntity
  8
HOLE
100
AcDbCircle
 10
54.60480731020759
 20
77.0
 30
0.0
 40
2.0
  0
CIRCLE
  5
E1
330
17
100
AcDbEntity
  8
HOLE
100
AcDbCircle
 10
60.67200812245288
 20
77.0
 30
0.0
 40
2.0
  0
CIRCLE
  5
E2
330
17
100
AcDbEntity
  8
HOLE
100
AcDbCircle
 10
66.73920893469817
 20
77.0
 30
0.0
 40
2.0
  0
CIRCLE
  5
E3
330
17
100
AcDbEntity
  8
HOLE
100
AcDbCircle
 10
72.80640974694346
 20
77.0
 30
0.0
 40
2.0
  0
CIRCLE
  5
E4
330
17
100
AcDbEntity
  8
HOLE
100
AcDbCircle
 10
78.87361055918875
 20
77.0
 30
0.0
 40
2.0
  0
CIRCLE
  5
E5
330
17
100
AcDbEntity
  8
HOLE
100
AcDbCircle
 10
84.94081137143402
 20
77.0
 30
0.0
 40
2.0
  0
CIRCLE
  5
E6
330
17
100
AcDbEntity
  8
HOLE
100
AcDbCircle
 10
91.00801218367931
 20
77.0
 30
0.0
 40
2.0
  0
CIRCLE
  5
E7
330
17
100
AcDbEntity
  8
HOLE
100
AcDbCircle
 10
97.07521299592462
 20
77.0
 30
0.0
 40
2.0
  0
CIRCLE
  5
E8
330
17
100
AcDbEntity
  8
HOLE
100
AcDbCircle
 10
103.14241380816989
 20
77.0
 30
0.0
 40
2.0
  0
CIRCLE
  5
E9
330
17
100
AcDbEntity
  8
HOLE
100
AcDbCircle
 10
109.20961462041518
 20
77.0
 30
0.0
 40
2.0
  0
CIRCLE
  5
EA
330
17
100
AcDbEntity
  8
HOLE
100
AcDbCircle
 10
115.27681543266047
 20
77.0
 30
0.0
 40
2.0
  0
CIRCLE
  5
EB
330
17
100
AcDbEntity
  8
HOLE
100
AcDbCircle
 10
121.34401624490576
 20
77.0
 30
0.0
 40
2.0
  0
CIRCLE
  5
EC
330
17
100
AcDbEntity
  8
HOLE
100
AcDbCircle
 10
127.41121705715105
 20
77.0
 30
0.0
 40
2.0
  0
CIRCLE
  5
ED
330
17
100
AcDbEntity
  8
HOLE
100
AcDbCircle
 10
133.47841786939634
 20
77.0
 30
0.0
 40
2.0
  0
CIRCLE
  5
EE
330
17
100
AcDbEntity
  8
HOLE
100
AcDbCircle
 10
139.5456186816416
 20
77.0
 30
0.0
 40
2.0
  0
CIRCLE
  5
EF
330
17
100
AcDbEntity
  8
HOLE
100
AcDbCircle
 10
145.61281949388692
 20
77.0
 30
0.0
 40
2.0
  0
CIRCLE
  5
F0
330
17
100
AcDbEntity
  8
HOLE
100
AcDbCircle
 10
151.6800203061322
 20
77.0
 30
0.0
 40
2.0
  0
CIRCLE
  5
F1
330
17
100
AcDbEntity
  8
HOLE
100
AcDbCircle
 10
157.7472211183775
 20
77.0
 30
0.0
 40
2.0
  0
CIRCLE
  5
F2
330
17
100
AcDbEntity
  8
HOLE
100
AcDbCircle
 10
163.81442193062279
 20
77.0
 30
0.0
 40
2.0
  0
CIRCLE
  5
F3
330
17
100
AcDbEntity
  8
HOLE
100
AcDbCircle
 10
169.88162274286805
 20
77.0
 30
0.0
 40
2.0
  0
CIRCLE
  5
F4
330
17
100
AcDbEntity
  8
HOLE
100
AcDbCircle
 10
175.94882355511334
 20
77.0
 30
0.0
 40
2.0
  0
CIRCLE
  5
F5
330
17
100
AcDbEntity
  8
HOLE
100
AcDbCircle
 10
182.01602436735863
 20
77.0
 30
0.0
 40
2.0
  0
CIRCLE
  5
F6
330
17
100
AcDbEntity
  8
HOLE
100
AcDbCircle
 10
188.08322517960394
 20
77.0
 30
0.0
 40
2.0
  0
CIRCLE
  5
F7
330
17
100
AcDbEntity
  8
HOLE
100
AcDbCircle
 10
194.15042599184923
 20
77.0
 30
0.0
 40
2.0
  0
CIRCLE
  5
F8
330
17
100
AcDbEntity
  8
HOLE
100
AcDbCircle
 10
200.2176268040945
 20
77.0
 30
0.0
 40
2.0
  0
CIRCLE
  5
F9
330
17
100
AcDbEntity
  8
HOLE
100
AcDbCircle
 10
206.28482761633978
 20
77.0
 30
0.0
 40
2.0
  0
CIRCLE
  5
FA
330
17
100
AcDbEntity
  8
HOLE
100
AcDbCircle
 10
212.35202842858507
 20
77.0
 30
0.0
 40
2.0
  0
CIRCLE
  5
FB
330
17
100
AcDbEntity
  8
HOLE
100
AcDbCircle
 10
218.41922924083036
 20
77.0
 30
0.0
 40
2.0
  0
CIRCLE
  5
FC
330
17
100
AcDbEntity
  8
HOLE
100
AcDbCircle
 10
224.48643005307568
 20
77.0
 30
0.0
 40
2.0
  0
CIRCLE
  5
FD
330
17
100
AcDbEntity
  8
HOLE
100
AcDbCircle
 10
230.55363086532094
 20
77.0
 30
0.0
 40
2.0
  0
CIRCLE
  5
FE
330
17
100
AcDbEntity
  8
HOLE
100
AcDbCircle
 10
236.62083167756623
 20
77.0
 30
0.0
 40
2.0
  0
CIRCLE
  5
FF
330
17
100
AcDbEntity
  8
HOLE
100
AcDbCircle
 10
242.68803248981152
 20
77.0
 30
0.0
 40
2.0
  0
CIRCLE
  5
100
330
17
100
AcDbEntity
  8
HOLE
100
AcDbCircle
 10
248.75523330205678
 20
77.0
 30
0.0
 40
2.0
  0
CIRCLE
  5
101
330
17
100
AcDbEntity
  8
HOLE
100
AcDbCircle
 10
254.8224341143021
 20
77.0
 30
0.0
 40
2.0
  0
CIRCLE
  5
102
330
17
100
AcDbEntity
  8
HOLE
100
AcDbCircle
 10
260.8896349265474
 20
77.0
 30
0.0
 40
2.0
  0
CIRCLE
  5
103
330
17
100
AcDbEntity
  8
HOLE
100
AcDbCircle
 10
266.9568357387927
 20
77.0
 30
0.0
 40
2.0
  0
CIRCLE
  5
104
330
17
100
AcDbEntity
  8
HOLE
100
AcDbCircle
 10
273.02403655103797
 20
77.0
 30
0.0
 40
2.0
  0
CIRCLE
  5
105
330
17
100
AcDbEntity
  8
HOLE
100
AcDbCircle
 10
279.0912373632832
 20
77.0
 30
0.0
 40
2.0
  0
CIRCLE
  5
106
330
17
100
AcDbEntity
  8
HOLE
100
AcDbCircle
 10
285.15843817552854
 20
77.0
 30
0.0
 40
2.0
  0
CIRCLE
  5
107
330
17
100
AcDbEntity
  8
HOLE
100
AcDbCircle
 10
291.22563898777383
 20
77.0
 30
0.0
 40
2.0
  0
CIRCLE
  5
108
330
17
100
AcDbEntity
  8
HOLE
100
AcDbCircle
 10
297.2928398000191
 20
77.0
 30
0.0
 40
2.0
  0
CIRCLE
  5
109
330
17
100
AcDbEntity
  8
HOLE
100
AcDbCircle
 10
303.3600406122644
 20
77.0
 30
0.0
 40
2.0
  0
CIRCLE
  5
10A
330
17
100
AcDbEntity
  8
HOLE
100
AcDbCircle
 10
309.42724142450965
 20
77.0
 30
0.0
 40
2.0
  0
CIRCLE
  5
10B
330
17
100
AcDbEntity
  8
HOLE
100
AcDbCircle
 10
315.494442236755
 20
77.0
 30
0.0
 40
2.0
  0
CIRCLE
  5
10C
330
17
100
AcDbEntity
  8
HOLE
100
AcDbCircle
 10
321.5616430490002
 20
77.0
 30
0.0
 40
2.0
  0
CIRCLE
  5
10D
330
17
100
AcDbEntity
  8
HOLE
100
AcDbCircle
 10
327.62884386124557
 20
77.0
 30
0.0
 40
2.0
  0
CIRCLE
  5
10E
330
17
100
AcDbEntity
  8
HOLE
100
AcDbCircle
 10
333.69604467349086
 20
77.0
 30
0.0
 40
2.0
  0
CIRCLE
  5
10F
330
17
100
AcDbEntity
  8
HOLE
100
AcDbCircle
 10
339.7632454857361
 20
77.0
 30
0.0
 40
2.0
  0
CIRCLE
  5
110
330
17
100
AcDbEntity
  8
HOLE
100
AcDbCircle
 10
345.83044629798144
 20
77.0
 30
0.0
 40
2.0
  0
CIRCLE
  5
111
330
17
100
AcDbEntity
  8
HOLE
100
AcDbCircle
 10
351.89764711022667
 20
77.0
 30
0.0
 40
2.0
  0
CIRCLE
  5
112
330
17
100
AcDbEntity
  8
HOLE
100
AcDbCircle
 10
357.964847922472
 20
77.0
 30
0.0
 40
2.0
  0
CIRCLE
  5
113
330
17
100
AcDbEntity
  8
HOLE
100
AcDbCircle
 10
364.03204873471725
 20
77.0
 30
0.0
 40
2.0
  0
CIRCLE
  5
114
330
17
100
AcDbEntity
  8
HOLE
100
AcDbCircle
 10
370.09924954696254
 20
77.0
 30
0.0
 40
2.0
  0
CIRCLE
  5
115
330
17
100
AcDbEntity
  8
HOLE
100
AcDbCircle
 10
376.1664503592079
 20
77.0
 30
0.0
 40
2.0
  0
CIRCLE
  5
116
330
17
100
AcDbEntity
  8
HOLE
100
AcDbCircle
 10
382.2336511714531
 20
77.0
 30
0.0
 40
2.0
  0
CIRCLE
  5
117
330
17
100
AcDbEntity
  8
HOLE
100
AcDbCircle
 10
388.30085198369846
 20
77.0
 30
0.0
 40
2.0
  0
CIRCLE
  5
118
330
17
100
AcDbEntity
  8
HOLE
100
AcDbCircle
 10
394.3680527959437
 20
77.0
 30
0.0
 40
2.0
  0
CIRCLE
  5
119
330
17
100
AcDbEntity
  8
HOLE
100
AcDbCircle
 10
400.435253608189
 20
77.0
 30
0.0
 40
2.0
  0
CIRCLE
  5
11A
330
17
100
AcDbEntity
  8
HOLE
100
AcDbCircle
 10
406.50245442043433
 20
77.0
 30
0.0
 40
2.0
  0
CIRCLE
  5
11B
330
17
100
AcDbEntity
  8
HOLE
100
AcDbCircle
 10
412.56965523267957
 20
77.0
 30
0.0
 40
2.0
  0
CIRCLE
  5
11C
330
17
100
AcDbEntity
  8
HOLE
100
AcDbCircle
 10
418.6368560449249
 20
77.0
 30
0.0
 40
2.0
  0
CIRCLE
  5
11D
330
17
100
AcDbEntity
  8
HOLE
100
AcDbCircle
 10
424.70405685717014
 20
77.0
 30
0.0
 40
2.0
  0
CIRCLE
  5
11E
330
17
100
AcDbEntity
  8
HOLE
100
AcDbCircle
 10
430.77125766941543
 20
77.0
 30
0.0
 40
2.0
  0
CIRCLE
  5
11F
330
17
100
AcDbEntity
  8
HOLE
100
AcDbCircle
 10
436.8384584816607
 20
77.0
 30
0.0
 40
2.0
  0
CIRCLE
  5
120
330
17
100
AcDbEntity
  8
HOLE
100
AcDbCircle
 10
442.905659293906
 20
77.0
 30
0.0
 40
2.0
  0
CIRCLE
  5
121
330
17
100
AcDbEntity
  8
HOLE
100
AcDbCircle
 10
448.97286010615136
 20
77.0
 30
0.0
 40
2.0
  0
CIRCLE
  5
122
330
17
100
AcDbEntity
  8
HOLE
100
AcDbCircle
 10
455.0400609183966
 20
77.0
 30
0.0
 40
2.0
  0
CIRCLE
  5
123
330
17
100
AcDbEntity
  8
HOLE
100
AcDbCircle
 10
461.1072617306419
 20
77.0
 30
0.0
 40
2.0
  0
CIRCLE
  5
124
330
17
100
AcDbEntity
  8
HOLE
100
AcDbCircle
 10
467.17446254288717
 20
77.0
 30
0.0
 40
2.0
  0
CIRCLE
  5
125
330
17
100
AcDbEntity
  8
HOLE
100
AcDbCircle
 10
473.24166335513246
 20
77.0
 30
0.0
 40
2.0
  0
CIRCLE
  5
126
330
17
100
AcDbEntity
  8
HOLE
100
AcDbCircle
 10
479.30886416737775
 20
77.0
 30
0.0
 40
2.0
  0
CIRCLE
  5
127
330
17
100
AcDbEntity
  8
HOLE
100
AcDbCircle
 10
3.0234833659491196
 20
83.0
 30
0.0
 40
2.0
  0
CIRCLE
  5
128
330
17
100
AcDbEntity
  8
HOLE
100
AcDbCircle
 10
9.090684178194408
 20
83.0
 30
0.0
 40
2.0
  0
CIRCLE
  5
129
330
17
100
AcDbEntity
  8
HOLE
100
AcDbCircle
 10
15.157884990439698
 20
83.0
 30
0.0
 40
2.0
  0
CIRCLE
  5
12A
330
17
100
AcDbEntity
  8
HOLE
100
AcDbCircle
 10
21.225085802684983
 20
83.0
 30
0.0
 40
2.0
  0
CIRCLE
  5
12B
330
17
100
AcDbEntity
  8
HOLE
100
AcDbCircle
 10
27.292286614930273
 20
83.0
 30
0.0
 40
2.0
  0
CIRCLE
  5
12C
330
17
100
AcDbEntity
  8
HOLE
100
AcDbCircle
 10
33.35948742717556
 20
83.0
 30
0.0
 40
2.0
  0
CIRCLE
  5
12D
330
17
100
AcDbEntity
  8
HOLE
100
AcDbCircle
 10
39.42668823942085
 20
83.0
 30
0.0
 40
2.0
  0
CIRCLE
  5
12E
330
17
100
AcDbEntity
  8
HOLE
100
AcDbCircle
 10
45.49388905166613
 20
83.0
 30
0.0
 40
2.0
  0
CIRCLE
  5
12F
330
17
100
AcDbEntity
  8
HOLE
100
AcDbCircle
 10
51.56108986391143
 20
83.0
 30
0.0
 40
2.0
  0
CIRCLE
  5
130
330
17
100
AcDbEntity
  8
HOLE
100
AcDbCircle
 10
57.62829067615671
 20
83.0
 30
0.0
 40
2.0
  0
CIRCLE
  5
131
330
17
100
AcDbEntity
  8
HOLE
100
AcDbCircle
 10
63.695491488402
 20
83.0
 30
0.0
 40
2.0
  0
CIRCLE
  5
132
330
17
100
AcDbEntity
  8
HOLE
100
AcDbCircle
 10
69.76269230064729
 20
83.0
 30
0.0
 40
2.0
  0
CIRCLE
  5
133
330
17
100
AcDbEntity
  8
HOLE
100
AcDbCircle
 10
75.82989311289258
 20
83.0
 30
0.0
 40
2.0
  0
CIRCLE
  5
134
330
17
100
AcDbEntity
  8
HOLE
100
AcDbCircle
 10
81.89709392513787
 20
83.0
 30
0.0
 40
2.0
  0
CIRCLE
  5
135
330
17
100
AcDbEntity
  8
HOLE
100
AcDbCircle
 10
87.96429473738314
 20
83.0
 30
0.0
 40
2.0
  0
CIRCLE
  5
136
330
17
100
AcDbEntity
  8
HOLE
100
AcDbCircle
 10
94.03149554962843
 20
83.0
 30
0.0
 40
2.0
  0
CIRCLE
  5
137
330
17
100
AcDbEntity
  8
HOLE
100
AcDbCircle
 10
100.09869636187373
 20
83.0
 30
0.0
 40
2.0
  0
CIRCLE
  5
138
330
17
100
AcDbEntity
  8
HOLE
100
AcDbCircle
 10
106.16589717411901
 20
83.0
 30
0.0
 40
2.0
  0
CIRCLE
  5
139
330
17
100
AcDbEntity
  8
HOLE
100
AcDbCircle
 10
112.2330979863643
 20
83.0
 30
0.0
 40
2.0
  0
CIRCLE
  5
13A
330
17
100
AcDbEntity
  8
HOLE
100
AcDbCircle
 10
118.30029879860959
 20
83.0
 30
0.0
 40
2.0
  0
CIRCLE
  5
13B
330
17
100
AcDbEntity
  8
HOLE
100
AcDbCircle
 10
124.36749961085488
 20
83.0
 30
0.0
 40
2.0
  0
CIRCLE
  5
13C
330
17
100
AcDbEntity
  8
HOLE
100
AcDbCircle
 10
130.43470042310017
 20
83.0
 30
0.0
 40
2.0
  0
CIRCLE
  5
13D
330
17
100
AcDbEntity
  8
HOLE
100
AcDbCircle
 10
136.50190123534546
 20
83.0
 30
0.0
 40
2.0
  0
CIRCLE
  5
13E
330
17
100
AcDbEntity
  8
HOLE
100
AcDbCircle
 10
142.56910204759072
 20
83.0
 30
0.0
 40
2.0
  0
CIRCLE
  5
13F
330
17
100
AcDbEntity
  8
HOLE
100
AcDbCircle
 10
148.63630285983604
 20
83.0
 30
0.0
 40
2.0
  0
CIRCLE
  5
140
330
17
100
AcDbEntity
  8
HOLE
100
AcDbCircle
 10
154.70350367208133
 20
83.0
 30
0.0
 40
2.0
  0
CIRCLE
  5
141
330
17
100
AcDbEntity
  8
HOLE
100
AcDbCircle
 10
160.77070448432661
 20
83.0
 30
0.0
 40
2.0
  0
CIRCLE
  5
142
330
17
100
AcDbEntity
  8
HOLE
100
AcDbCircle
 10
166.8379052965719
 20
83.0
 30
0.0
 40
2.0
  0
CIRCLE
  5
143
330
17
100
AcDbEntity
  8
HOLE
100
AcDbCircle
 10
172.90510610881717
 20
83.0
 30
0.0
 40
2.0
  0
CIRCLE
  5
144
330
17
100
AcDbEntity
  8
HOLE
100
AcDbCircle
 10
178.97230692106245
 20
83.0
 30
0.0
 40
2.0
  0
CIRCLE
  5
145
330
17
100
AcDbEntity
  8
HOLE
100
AcDbCircle
 10
185.03950773330774
 20
83.0
 30
0.0
 40
2.0
  0
CIRCLE
  5
146
330
17
100
AcDbEntity
  8
HOLE
100
AcDbCircle
 10
191.10670854555306
 20
83.0
 30
0.0
 40
2.0
  0
CIRCLE
  5
147
330
17
100
AcDbEntity
  8
HOLE
100
AcDbCircle
 10
197.17390935779835
 20
83.0
 30
0.0
 40
2.0
  0
CIRCLE
  5
148
330
17
100
AcDbEntity
  8
HOLE
100
AcDbCircle
 10
203.2411101700436
 20
83.0
 30
0.0
 40
2.0
  0
CIRCLE
  5
149
330
17
100
AcDbEntity
  8
HOLE
100
AcDbCircle
 10
209.3083109822889
 20
83.0
 30
0.0
 40
2.0
  0
CIRCLE
  5
14A
330
17
100
AcDbEntity
  8
HOLE
100
AcDbCircle
 10
215.3755117945342
 20
83.0
 30
0.0
 40
2.0
  0
CIRCLE
  5
14B
330
17
100
AcDbEntity
  8
HOLE
100
AcDbCircle
 10
221.44271260677948
 20
83.0
 30
0.0
 40
2.0
  0
CIRCLE
  5
14C
330
17
100
AcDbEntity
  8
HOLE
100
AcDbCircle
 10
227.5099134190248
 20
83.0
 30
0.0
 40
2.0
  0
CIRCLE
  5
14D
330
17
100
AcDbEntity
  8
HOLE
100
AcDbCircle
 10
233.57711423127006
 20
83.0
 30
0.0
 40
2.0
  0
CIRCLE
  5
14E
330
17
100
AcDbEntity
  8
HOLE
100
AcDbCircle
 10
239.64431504351535
 20
83.0
 30
0.0
 40
2.0
  0
CIRCLE
  5
14F
330
17
100
AcDbEntity
  8
HOLE
100
AcDbCircle
 10
245.71151585576064
 20
83.0
 30
0.0
 40
2.0
  0
CIRCLE
  5
150
330
17
100
AcDbEntity
  8
HOLE
100
AcDbCircle
 10
251.7787166680059
 20
83.0
 30
0.0
 40
2.0
  0
CIRCLE
  5
151
330
17
100
AcDbEntity
  8
HOLE
100
AcDbCircle
 10
257.8459174802512
 20
83.0
 30
0.0
 40
2.0
  0
CIRCLE
  5
152
330
17
100
AcDbEntity
  8
HOLE
100
AcDbCircle
 10
263.9131182924965
 20
83.0
 30
0.0
 40
2.0
  0
CIRCLE
  5
153
330
17
100
AcDbEntity
  8
HOLE
100
AcDbCircle
 10
269.9803191047418
 20
83.0
 30
0.0
 40
2.0
  0
CIRCLE
  5
154
330
17
100
AcDbEntity
  8
HOLE
100
AcDbCircle
 10
276.0475199169871
 20
83.0
 30
0.0
 40
2.0
  0
CIRCLE
  5
155
330
17
100
AcDbEntity
  8
HOLE
100
AcDbCircle
 10
282.1147207292323
 20
83.0
 30
0.0
 40
2.0
  0
CIRCLE
  5
156
330
17
100
AcDbEntity
  8
HOLE
100
AcDbCircle
 10
288.18192154147766
 20
83.0
 30
0.0
 40
2.0
  0
CIRCLE
  5
157
330
17
100
AcDbEntity
  8
HOLE
100
AcDbCircle
 10
294.24912235372295
 20
83.0
 30
0.0
 40
2.0
  0
CIRCLE
  5
158
330
17
100
AcDbEntity
  8
HOLE
100
AcDbCircle
 10
300.31632316596824
 20
83.0
 30
0.0
 40
2.0
  0
CIRCLE
  5
159
330
17
100
AcDbEntity
  8
HOLE
100
AcDbCircle
 10
306.38352397821353
 20
83.0
 30
0.0
 40
2.0
  0
CIRCLE
  5
15A
330
17
100
AcDbEntity
  8
HOLE
100
AcDbCircle
 10
312.45072479045876
 20
83.0
 30
0.0
 40
2.0
  0
CIRCLE
  5
15B
330
17
100
AcDbEntity
  8
HOLE
100
AcDbCircle
 10
318.5179256027041
 20
83.0
 30
0.0
 40
2.0
  0
CIRCLE
  5
15C
330
17
100
AcDbEntity
  8
HOLE
100
AcDbCircle
 10
324.58512641494934
 20
83.0
 30
0.0
 40
2.0
  0
CIRCLE
  5
15D
330
17
100
AcDbEntity
  8
HOLE
100
AcDbCircle
 10
330.6523272271947
 20
83.0
 30
0.0
 40
2.0
  0
CIRCLE
  5
15E
330
17
100
AcDbEntity
  8
HOLE
100
AcDbCircle
 10
336.71952803944
 20
83.0
 30
0.0
 40
2.0
  0
CIRCLE
  5
15F
330
17
100
AcDbEntity
  8
HOLE
100
AcDbCircle
 10
342.7867288516852
 20
83.0
 30
0.0
 40
2.0
  0
CIRCLE
  5
160
330
17
100
AcDbEntity
  8
HOLE
100
AcDbCircle
 10
348.85392966393056
 20
83.0
 30
0.0
 40
2.0
  0
CIRCLE
  5
161
330
17
100
AcDbEntity
  8
HOLE
100
AcDbCircle
 10
354.9211304761758
 20
83.0
 30
0.0
 40
2.0
  0
CIRCLE
  5
162
330
17
100
AcDbEntity
  8
HOLE
100
AcDbCircle
 10
360.98833128842114
 20
83.0
 30
0.0
 40
2.0
  0
CIRCLE
  5
163
330
17
100
AcDbEntity
  8
HOLE
100
AcDbCircle
 10
367.05553210066637
 20
83.0
 30
0.0
 40
2.0
  0
CIRCLE
  5
164
330
17
100
AcDbEntity
  8
HOLE
100
AcDbCircle
 10
373.12273291291166
 20
83.0
 30
0.0
 40
2.0
  0
CIRCLE
  5
165
330
17
100
AcDbEntity
  8
HOLE
100
AcDbCircle
 10
379.189933725157
 20
83.0
 30
0.0
 40
2.0
  0
CIRCLE
  5
166
330
17
100
AcDbEntity
  8
HOLE
100
AcDbCircle
 10
385.25713453740224
 20
83.0
 30
0.0
 40
2.0
  0
CIRCLE
  5
167
330
17
100
AcDbEntity
  8
HOLE
100
AcDbCircle
 10
391.3243353496476
 20
83.0
 30
0.0
 40
2.0
  0
CIRCLE
  5
168
330
17
100
AcDbEntity
  8
HOLE
100
AcDbCircle
 10
397.3915361618928
 20
83.0
 30
0.0
 40
2.0
  0
CIRCLE
  5
169
330
17
100
AcDbEntity
  8
HOLE
100
AcDbCircle
 10
403.4587369741381
 20
83.0
 30
0.0
 40
2.0
  0
CIRCLE
  5
16A
330
17
100
AcDbEntity
  8
HOLE
100
AcDbCircle
 10
409.52593778638345
 20
83.0
 30
0.0
 40
2.0
  0
CIRCLE
  5
16B
330
17
100
AcDbEntity
  8
HOLE
100
AcDbCircle
 10
415.5931385986287
 20
83.0
 30
0.0
 40
2.0
  0
CIRCLE
  5
16C
330
17
100
AcDbEntity
  8
HOLE
100
AcDbCircle
 10
421.66033941087403
 20
83.0
 30
0.0
 40
2.0
  0
CIRCLE
  5
16D
330
17
100
AcDbEntity
  8
HOLE
100
AcDbCircle
 10
427.72754022311926
 20
83.0
 30
0.0
 40
2.0
  0
CIRCLE
  5
16E
330
17
100
AcDbEntity
  8
HOLE
100
AcDbCircle
 10
433.79474103536455
 20
83.0
 30
0.0
 40
2.0
  0
CIRCLE
  5
16F
330
17
100
AcDbEntity
  8
HOLE
100
AcDbCircle
 10
439.86194184760984
 20
83.0
 30
0.0
 40
2.0
  0
CIRCLE
  5
170
330
17
100
AcDbEntity
  8
HOLE
100
AcDbCircle
 10
445.92914265985513
 20
83.0
 30
0.0
 40
2.0
  0
CIRCLE
  5
171
330
17
100
AcDbEntity
  8
HOLE
100
AcDbCircle
 10
451.9963434721005
 20
83.0
 30
0.0
 40
2.0
  0
CIRCLE
  5
172
330
17
100
AcDbEntity
  8
HOLE
100
AcDbCircle
 10
458.0635442843457
 20
83.0
 30
0.0
 40
2.0
  0
CIRCLE
  5
173
330
17
100
AcDbEntity
  8
HOLE
100
AcDbCircle
 10
464.130745096591
 20
83.0
 30
0.0
 40
2.0
  0
CIRCLE
  5
174
330
17
100
AcDbEntity
  8
HOLE
100
AcDbCircle
 10
470.1979459088363
 20
83.0
 30
0.0
 40
2.0
  0
CIRCLE
  5
175
330
17
100
AcDbEntity
  8
HOLE
100
AcDbCircle
 10
476.2651467210816
 20
83.0
 30
0.0
 40
2.0
  0
CIRCLE
  5
176
330
17
100
AcDbEntity
  8
HOLE
100
AcDbCircle
 10
482.33234753332687
 20
83.0
 30
0.0
 40
2.0
  0
TEXT
  5
177
330
17
100
AcDbEntity
  8
LABEL
100
AcDbText
 10
5.0
 20
98.0
 30
0.0
 40
3.0
  1
LID OUTER MESH - 485.4 x 35 mm (318 perf holes)
100
AcDbText
  0
TEXT
  5
178
330
17
100
AcDbEntity
  8
LABEL
100
AcDbText
 10
5.0
 20
54.0
 30
0.0
 40
2.5
  1
Rolls to R=76.05mm inner
100
AcDbText
  0
CIRCLE
  5
179
330
17
100
AcDbEntity
  8
CUT
100
AcDbCircle
 10
87.25
 20
202.25
 30
0.0
 40
77.25
  0
CIRCLE
  5
17A
330
17
100
AcDbEntity
  8
CUT
100
AcDbCircle
 10
87.25
 20
202.25
 30
0.0
 40
46.25
  0
LINE
  5
17B
330
17
100
AcDbEntity
  8
CENTERLINE
100
AcDbLine
 10
82.25
 20
202.25
 30
0.0
 11
92.25
 21
202.25
 31
0.0
  0
LINE
  5
17C
330
17
100
AcDbEntity
  8
CENTERLINE
100
AcDbLine
 10
87.25
 20
197.25
 30
0.0
 11
87.25
 21
207.25
 31
0.0
  0
CIRCLE
  5
17D
330
17
100
AcDbEntity
  8
HOLE
100
AcDbCircle
 10
161.9
 20
202.25
 30
0.0
 40
2.0
  0
CIRCLE
  5
17E
330
17
100
AcDbEntity
  8
HOLE
100
AcDbCircle
 10
161.65793305221877
 20
208.2568293547036
 30
0.0
 40
2.0
  0
CIRCLE
  5
17F
330
17
100
AcDbEntity
  8
HOLE
100
AcDbCircle
 10
160.9333021059202
 20
214.2247021160318
 30
0.0
 40
2.0
  0
CIRCLE
  5
180
330
17
100
AcDbEntity
  8
HOLE
100
AcDbCircle
 10
159.7308066708548
 20
220.1149143390662
 30
0.0
 40
2.0
  0
CIRCLE
  5
181
330
17
100
AcDbEntity
  8
HOLE
100
AcDbCircle
 10
158.05824539135443
 20
225.8892657372799
 30
0.0
 40
2.0
  0
CIRCLE
  5
182
330
17
100
AcDbEntity
  8
HOLE
100
AcDbCircle
 10
155.92646546913124
 20
231.5103074260546
 30
0.0
 40
2.0
  0
CIRCLE
  5
183
330
17
100
AcDbEntity
  8
HOLE
100
AcDbCircle
 10
153.34929231501212
 20
236.94158479306734
 30
0.0
 40
2.0
  0
CIRCLE
  5
184
330
17
100
AcDbEntity
  8
HOLE
100
AcDbCircle
 10
150.3434398858443
 20
242.14787392044036
 30
0.0
 40
2.0
  0
CIRCLE
  5
185
330
17
100
AcDbEntity
  8
HOLE
100
AcDbCircle
 10
146.92840228807137
 20
247.09541002536514
 30
0.0
 40
2.0
  0
CIRCLE
  5
186
330
17
100
AcDbEntity
  8
HOLE
100
AcDbCircle
 10
143.1263273509727
 20
251.75210643767537
 30
0.0
 40
2.0
  0
CIRCLE
  5
187
330
17
100
AcDbEntity
  8
HOLE
100
AcDbCircle
 10
138.9618729894916
 20
256.08776269421577
 30
0.0
 40
2.0
  0
CIRCLE
  5
188
330
17
100
AcDbEntity
  8
HOLE
100
AcDbCircle
 10
134.46204728819492
 20
260.0742604004344
 30
0.0
 40
2.0
  0
CIRCLE
  5
189
330
17
100
AcDbEntity
  8
HOLE
100
AcDbCircle
 10
129.65603334348077
 20
263.6857455889615
 30
0.0
 40
2.0
  0
CIRCLE
  5
18A
330
17
100
AcDbEntity
  8
HOLE
100
AcDbCircle
 10
124.57500000000002
 20
266.89879639250836
 30
0.0
 40
2.0
  0
CIRCLE
  5
18B
330
17
100
AcDbEntity
  8
HOLE
100
AcDbCircle
 10
119.251899708738
 20
269.692574943665
 30
0.0
 40
2.0
  0
CIRCLE
  5
18C
330
17
100
AcDbEntity
  8
HOLE
100
AcDbCircle
 10
113.72125481772527
 20
272.04896251646625
 30
0.0
 40
2.0
  0
CIRCLE
  5
18D
330
17
100
AcDbEntity
  8
HOLE
100
AcDbCircle
 10
108.0189336813632
 20
273.95267703328193
 30
0.0
 40
2.0
  0
CIRCLE
  5
18E
330
17
100
AcDbEntity
  8
HOLE
100
AcDbCircle
 10
102.18191804038172
 20
275.3913721749553
 30
0.0
 40
2.0
  0
CIRCLE
  5
18F
330
17
100
AcDbEntity
  8
HOLE
100
AcDbCircle
 10
96.24806318105986
 20
276.35571745141976
 30
0.0
 40
2.0
  0
CIRCLE
  5
190
330
17
100
AcDbEntity
  8
HOLE
100
AcDbCircle
 10
90.25585242916785
 20
276.83945871350767
 30
0.0
 40
2.0
  0
CIRCLE
  5
191
330
17
100
AcDbEntity
  8
HOLE
100
AcDbCircle
 10
84.24414757083218
 20
276.83945871350767
 30
0.0
 40
2.0
  0
CIRCLE
  5
192
330
17
100
AcDbEntity
  8
HOLE
100
AcDbCircle
 10
78.25193681894015
 20
276.35571745141976
 30
0.0
 40
2.0
  0
CIRCLE
  5
193
330
17
100
AcDbEntity
  8
HOLE
100
AcDbCircle
 10
72.31808195961828
 20
275.3913721749553
 30
0.0
 40
2.0
  0
CIRCLE
  5
194
330
17
100
AcDbEntity
  8
HOLE
100
AcDbCircle
 10
66.4810663186368
 20
273.95267703328193
 30
0.0
 40
2.0
  0
CIRCLE
  5
195
330
17
100
AcDbEntity
  8
HOLE
100
AcDbCircle
 10
60.778745182274704
 20
272.0489625164662
 30
0.0
 40
2.0
  0
CIRCLE
  5
196
330
17
100
AcDbEntity
  8
HOLE
100
AcDbCircle
 10
55.248100291262
 20
269.692574943665
 30
0.0
 40
2.0
  0
CIRCLE
  5
197
330
17
100
AcDbEntity
  8
HOLE
100
AcDbCircle
 10
49.92500000000001
 20
266.89879639250836
 30
0.0
 40
2.0
  0
CIRCLE
  5
198
330
17
100
AcDbEntity
  8
HOLE
100
AcDbCircle
 10
44.84396665651922
 20
263.6857455889615
 30
0.0
 40
2.0
  0
CIRCLE
  5
199
330
17
100
AcDbEntity
  8
HOLE
100
AcDbCircle
 10
40.03795271180509
 20
260.0742604004344
 30
0.0
 40
2.0
  0
CIRCLE
  5
19A
330
17
100
AcDbEntity
  8
HOLE
100
AcDbCircle
 10
35.538127010508404
 20
256.08776269421577
 30
0.0
 40
2.0
  0
CIRCLE
  5
19B
330
17
100
AcDbEntity
  8
HOLE
100
AcDbCircle
 10
31.373672649027277
 20
251.75210643767534
 30
0.0
 40
2.0
  0
CIRCLE
  5
19C
330
17
100
AcDbEntity
  8
HOLE
100
AcDbCircle
 10
27.571597711928646
 20
247.09541002536514
 30
0.0
 40
2.0
  0
CIRCLE
  5
19D
330
17
100
AcDbEntity
  8
HOLE
100
AcDbCircle
 10
24.15656011415573
 20
242.14787392044036
 30
0.0
 40
2.0
  0
CIRCLE
  5
19E
330
17
100
AcDbEntity
  8
HOLE
100
AcDbCircle
 10
21.15070768498788
 20
236.94158479306734
 30
0.0
 40
2.0
  0
CIRCLE
  5
19F
330
17
100
AcDbEntity
  8
HOLE
100
AcDbCircle
 10
18.57353453086877
 20
231.51030742605462
 30
0.0
 40
2.0
  0
CIRCLE
  5
1A0
330
17
100
AcDbEntity
  8
HOLE
100
AcDbCircle
 10
16.44175460864558
 20
225.8892657372799
 30
0.0
 40
2.0
  0
CIRCLE
  5
1A1
330
17
100
AcDbEntity
  8
HOLE
100
AcDbCircle
 10
14.76919332914521
 20
220.1149143390662
 30
0.0
 40
2.0
  0
CIRCLE
  5
1A2
330
17
100
AcDbEntity
  8
HOLE
100
AcDbCircle
 10
13.566697894079795
 20
214.22470211603178
 30
0.0
 40
2.0
  0
CIRCLE
  5
1A3
330
17
100
AcDbEntity
  8
HOLE
100
AcDbCircle
 10
12.84206694778122
 20
208.2568293547036
 30
0.0
 40
2.0
  0
CIRCLE
  5
1A4
330
17
100
AcDbEntity
  8
HOLE
100
AcDbCircle
 10
12.599999999999994
 20
202.25
 30
0.0
 40
2.0
  0
CIRCLE
  5
1A5
330
17
100
AcDbEntity
  8
HOLE
100
AcDbCircle
 10
12.84206694778122
 20
196.24317064529646
 30
0.0
 40
2.0
  0
CIRCLE
  5
1A6
330
17
100
AcDbEntity
  8
HOLE
100
AcDbCircle
 10
13.566697894079795
 20
190.2752978839682
 30
0.0
 40
2.0
  0
CIRCLE
  5
1A7
330
17
100
AcDbEntity
  8
HOLE
100
AcDbCircle
 10
14.76919332914521
 20
184.38508566093384
 30
0.0
 40
2.0
  0
CIRCLE
  5
1A8
330
17
100
AcDbEntity
  8
HOLE
100
AcDbCircle
 10
16.44175460864558
 20
178.61073426272006
 30
0.0
 40
2.0
  0
CIRCLE
  5
1A9
330
17
100
AcDbEntity
  8
HOLE
100
AcDbCircle
 10
18.57353453086877
 20
172.9896925739454
 30
0.0
 40
2.0
  0
CIRCLE
  5
1AA
330
17
100
AcDbEntity
  8
HOLE
100
AcDbCircle
 10
21.15070768498788
 20
167.5584152069327
 30
0.0
 40
2.0
  0
CIRCLE
  5
1AB
330
17
100
AcDbEntity
  8
HOLE
100
AcDbCircle
 10
24.15656011415571
 20
162.35212607955964
 30
0.0
 40
2.0
  0
CIRCLE
  5
1AC
330
17
100
AcDbEntity
  8
HOLE
100
AcDbCircle
 10
27.571597711928618
 20
157.4045899746349
 30
0.0
 40
2.0
  0
CIRCLE
  5
1AD
330
17
100
AcDbEntity
  8
HOLE
100
AcDbCircle
 10
31.373672649027306
 20
152.74789356232463
 30
0.0
 40
2.0
  0
CIRCLE
  5
1AE
330
17
100
AcDbEntity
  8
HOLE
100
AcDbCircle
 10
35.53812701050841
 20
148.41223730578423
 30
0.0
 40
2.0
  0
CIRCLE
  5
1AF
330
17
100
AcDbEntity
  8
HOLE
100
AcDbCircle
 10
40.0379527118051
 20
144.4257395995656
 30
0.0
 40
2.0
  0
CIRCLE
  5
1B0
330
17
100
AcDbEntity
  8
HOLE
100
AcDbCircle
 10
44.84396665651921
 20
140.81425441103855
 30
0.0
 40
2.0
  0
CIRCLE
  5
1B1
330
17
100
AcDbEntity
  8
HOLE
100
AcDbCircle
 10
49.92499999999996
 20
137.60120360749167
 30
0.0
 40
2.0
  0
CIRCLE
  5
1B2
330
17
100
AcDbEntity
  8
HOLE
100
AcDbCircle
 10
55.248100291262006
 20
134.80742505633495
 30
0.0
 40
2.0
  0
CIRCLE
  5
1B3
330
17
100
AcDbEntity
  8
HOLE
100
AcDbCircle
 10
60.77874518227469
 20
132.45103748353378
 30
0.0
 40
2.0
  0
CIRCLE
  5
1B4
330
17
100
AcDbEntity
  8
HOLE
100
AcDbCircle
 10
66.48106631863683
 20
130.54732296671804
 30
0.0
 40
2.0
  0
CIRCLE
  5
1B5
330
17
100
AcDbEntity
  8
HOLE
100
AcDbCircle
 10
72.31808195961827
 20
129.10862782504472
 30
0.0
 40
2.0
  0
CIRCLE
  5
1B6
330
17
100
AcDbEntity
  8
HOLE
100
AcDbCircle
 10
78.2519368189401
 20
128.14428254858026
 30
0.0
 40
2.0
  0
CIRCLE
  5
1B7
330
17
100
AcDbEntity
  8
HOLE
100
AcDbCircle
 10
84.24414757083215
 20
127.66054128649232
 30
0.0
 40
2.0
  0
CIRCLE
  5
1B8
330
17
100
AcDbEntity
  8
HOLE
100
AcDbCircle
 10
90.25585242916787
 20
127.66054128649232
 30
0.0
 40
2.0
  0
CIRCLE
  5
1B9
330
17
100
AcDbEntity
  8
HOLE
100
AcDbCircle
 10
96.24806318105995
 20
128.1442825485803
 30
0.0
 40
2.0
  0
CIRCLE
  5
1BA
330
17
100
AcDbEntity
  8
HOLE
100
AcDbCircle
 10
102.1819180403817
 20
129.10862782504472
 30
0.0
 40
2.0
  0
CIRCLE
  5
1BB
330
17
100
AcDbEntity
  8
HOLE
100
AcDbCircle
 10
108.01893368136315
 20
130.54732296671804
 30
0.0
 40
2.0
  0
CIRCLE
  5
1BC
330
17
100
AcDbEntity
  8
HOLE
100
AcDbCircle
 10
113.72125481772528
 20
132.45103748353378
 30
0.0
 40
2.0
  0
CIRCLE
  5
1BD
330
17
100
AcDbEntity
  8
HOLE
100
AcDbCircle
 10
119.25189970873797
 20
134.80742505633495
 30
0.0
 40
2.0
  0
CIRCLE
  5
1BE
330
17
100
AcDbEntity
  8
HOLE
100
AcDbCircle
 10
124.57500000000002
 20
137.60120360749164
 30
0.0
 40
2.0
  0
CIRCLE
  5
1BF
330
17
100
AcDbEntity
  8
HOLE
100
AcDbCircle
 10
129.65603334348077
 20
140.81425441103852
 30
0.0
 40
2.0
  0
CIRCLE
  5
1C0
330
17
100
AcDbEntity
  8
HOLE
100
AcDbCircle
 10
134.46204728819492
 20
144.4257395995656
 30
0.0
 40
2.0
  0
CIRCLE
  5
1C1
330
17
100
AcDbEntity
  8
HOLE
100
AcDbCircle
 10
138.96187298949158
 20
148.41223730578423
 30
0.0
 40
2.0
  0
CIRCLE
  5
1C2
330
17
100
AcDbEntity
  8
HOLE
100
AcDbCircle
 10
143.12632735097267
 20
152.7478935623246
 30
0.0
 40
2.0
  0
CIRCLE
  5
1C3
330
17
100
AcDbEntity
  8
HOLE
100
AcDbCircle
 10
146.92840228807137
 20
157.40458997463486
 30
0.0
 40
2.0
  0
CIRCLE
  5
1C4
330
17
100
AcDbEntity
  8
HOLE
100
AcDbCircle
 10
150.34343988584428
 20
162.35212607955964
 30
0.0
 40
2.0
  0
CIRCLE
  5
1C5
330
17
100
AcDbEntity
  8
HOLE
100
AcDbCircle
 10
153.34929231501212
 20
167.5584152069327
 30
0.0
 40
2.0
  0
CIRCLE
  5
1C6
330
17
100
AcDbEntity
  8
HOLE
100
AcDbCircle
 10
155.92646546913124
 20
172.98969257394538
 30
0.0
 40
2.0
  0
CIRCLE
  5
1C7
330
17
100
AcDbEntity
  8
HOLE
100
AcDbCircle
 10
158.05824539135443
 20
178.6107342627201
 30
0.0
 40
2.0
  0
CIRCLE
  5
1C8
330
17
100
AcDbEntity
  8
HOLE
100
AcDbCircle
 10
159.7308066708548
 20
184.38508566093387
 30
0.0
 40
2.0
  0
CIRCLE
  5
1C9
330
17
100
AcDbEntity
  8
HOLE
100
AcDbCircle
 10
160.9333021059202
 20
190.27529788396816
 30
0.0
 40
2.0
  0
CIRCLE
  5
1CA
330
17
100
AcDbEntity
  8
HOLE
100
AcDbCircle
 10
161.65793305221877
 20
196.24317064529643
 30
0.0
 40
2.0
  0
TEXT
  5
1CB
330
17
100
AcDbEntity
  8
LABEL
100
AcDbText
 10
10.0
 20
284.5
 30
0.0
 40
3.0
  1
LID BOTTOM RING (78 perf holes)
100
AcDbText
  0
TEXT
  5
1CC
330
17
100
AcDbEntity
  8
LABEL
100
AcDbText
 10
10.0
 20
117.0
 30
0.0
 40
2.5
  1
ID=92.5, OD=154.5 mm
100
AcDbText
  0
CIRCLE
  5
1CD
330
17
100
AcDbEntity
  8
CUT
100
AcDbCircle
 10
87.25
 20
381.75
 30
0.0
 40
77.25
  0
LINE
  5
1CE
330
17
100
AcDbEntity
  8
CENTERLINE
100
AcDbLine
 10
82.25
 20
381.75
 30
0.0
 11
92.25
 21
381.75
 31
0.0
  0
LINE
  5
1CF
330
17
100
AcDbEntity
  8
CENTERLINE
100
AcDbLine
 10
87.25
 20
376.75
 30
0.0
 11
87.25
 21
386.75
 31
0.0
  0
CIRCLE
  5
1D0
330
17
100
AcDbEntity
  8
HOLE
100
AcDbCircle
 10
161.9
 20
381.75
 30
0.0
 40
2.0
  0
CIRCLE
  5
1D1
330
17
100
AcDbEntity
  8
HOLE
100
AcDbCircle
 10
161.65793305221877
 20
387.7568293547036
 30
0.0
 40
2.0
  0
CIRCLE
  5
1D2
330
17
100
AcDbEntity
  8
HOLE
100
AcDbCircle
 10
160.9333021059202
 20
393.7247021160318
 30
0.0
 40
2.0
  0
CIRCLE
  5
1D3
330
17
100
AcDbEntity
  8
HOLE
100
AcDbCircle
 10
159.7308066708548
 20
399.6149143390662
 30
0.0
 40
2.0
  0
CIRCLE
  5
1D4
330
17
100
AcDbEntity
  8
HOLE
100
AcDbCircle
 10
158.05824539135443
 20
405.3892657372799
 30
0.0
 40
2.0
  0
CIRCLE
  5
1D5
330
17
100
AcDbEntity
  8
HOLE
100
AcDbCircle
 10
155.92646546913124
 20
411.0103074260546
 30
0.0
 40
2.0
  0
CIRCLE
  5
1D6
330
17
100
AcDbEntity
  8
HOLE
100
AcDbCircle
 10
153.34929231501212
 20
416.4415847930673
 30
0.0
 40
2.0
  0
CIRCLE
  5
1D7
330
17
100
AcDbEntity
  8
HOLE
100
AcDbCircle
 10
150.3434398858443
 20
421.64787392044036
 30
0.0
 40
2.0
  0
CIRCLE
  5
1D8
330
17
100
AcDbEntity
  8
HOLE
100
AcDbCircle
 10
146.92840228807137
 20
426.59541002536514
 30
0.0
 40
2.0
  0
CIRCLE
  5
1D9
330
17
100
AcDbEntity
  8
HOLE
100
AcDbCircle
 10
143.1263273509727
 20
431.25210643767537
 30
0.0
 40
2.0
  0
CIRCLE
  5
1DA
330
17
100
AcDbEntity
  8
HOLE
100
AcDbCircle
 10
138.9618729894916
 20
435.58776269421577
 30
0.0
 40
2.0
  0
CIRCLE
  5
1DB
330
17
100
AcDbEntity
  8
HOLE
100
AcDbCircle
 10
134.46204728819492
 20
439.5742604004344
 30
0.0
 40
2.0
  0
CIRCLE
  5
1DC
330
17
100
AcDbEntity
  8
HOLE
100
AcDbCircle
 10
129.65603334348077
 20
443.1857455889615
 30
0.0
 40
2.0
  0
CIRCLE
  5
1DD
330
17
100
AcDbEntity
  8
HOLE
100
AcDbCircle
 10
124.57500000000002
 20
446.39879639250836
 30
0.0
 40
2.0
  0
CIRCLE
  5
1DE
330
17
100
AcDbEntity
  8
HOLE
100
AcDbCircle
 10
119.251899708738
 20
449.192574943665
 30
0.0
 40
2.0
  0
CIRCLE
  5
1DF
330
17
100
AcDbEntity
  8
HOLE
100
AcDbCircle
 10
113.72125481772527
 20
451.54896251646625
 30
0.0
 40
2.0
  0
CIRCLE
  5
1E0
330
17
100
AcDbEntity
  8
HOLE
100
AcDbCircle
 10
108.0189336813632
 20
453.45267703328193
 30
0.0
 40
2.0
  0
CIRCLE
  5
1E1
330
17
100
AcDbEntity
  8
HOLE
100
AcDbCircle
 10
102.18191804038172
 20
454.8913721749553
 30
0.0
 40
2.0
  0
CIRCLE
  5
1E2
330
17
100
AcDbEntity
  8
HOLE
100
AcDbCircle
 10
96.24806318105986
 20
455.85571745141976
 30
0.0
 40
2.0
  0
CIRCLE
  5
1E3
330
17
100
AcDbEntity
  8
HOLE
100
AcDbCircle
 10
90.25585242916785
 20
456.33945871350767
 30
0.0
 40
2.0
  0
CIRCLE
  5
1E4
330
17
100
AcDbEntity
  8
HOLE
100
AcDbCircle
 10
84.24414757083218
 20
456.33945871350767
 30
0.0
 40
2.0
  0
CIRCLE
  5
1E5
330
17
100
AcDbEntity
  8
HOLE
100
AcDbCircle
 10
78.25193681894015
 20
455.85571745141976
 30
0.0
 40
2.0
  0
CIRCLE
  5
1E6
330
17
100
AcDbEntity
  8
HOLE
100
AcDbCircle
 10
72.31808195961828
 20
454.8913721749553
 30
0.0
 40
2.0
  0
CIRCLE
  5
1E7
330
17
100
AcDbEntity
  8
HOLE
100
AcDbCircle
 10
66.4810663186368
 20
453.45267703328193
 30
0.0
 40
2.0
  0
CIRCLE
  5
1E8
330
17
100
AcDbEntity
  8
HOLE
100
AcDbCircle
 10
60.778745182274704
 20
451.5489625164662
 30
0.0
 40
2.0
  0
CIRCLE
  5
1E9
330
17
100
AcDbEntity
  8
HOLE
100
AcDbCircle
 10
55.248100291262
 20
449.192574943665
 30
0.0
 40
2.0
  0
CIRCLE
  5
1EA
330
17
100
AcDbEntity
  8
HOLE
100
AcDbCircle
 10
49.92500000000001
 20
446.39879639250836
 30
0.0
 40
2.0
  0
CIRCLE
  5
1EB
330
17
100
AcDbEntity
  8
HOLE
100
AcDbCircle
 10
44.84396665651922
 20
443.1857455889615
 30
0.0
 40
2.0
  0
CIRCLE
  5
1EC
330
17
100
AcDbEntity
  8
HOLE
100
AcDbCircle
 10
40.03795271180509
 20
439.5742604004344
 30
0.0
 40
2.0
  0
CIRCLE
  5
1ED
330
17
100
AcDbEntity
  8
HOLE
100
AcDbCircle
 10
35.538127010508404
 20
435.58776269421577
 30
0.0
 40
2.0
  0
CIRCLE
  5
1EE
330
17
100
AcDbEntity
  8
HOLE
100
AcDbCircle
 10
31.373672649027277
 20
431.25210643767537
 30
0.0
 40
2.0
  0
CIRCLE
  5
1EF
330
17
100
AcDbEntity
  8
HOLE
100
AcDbCircle
 10
27.571597711928646
 20
426.59541002536514
 30
0.0
 40
2.0
  0
CIRCLE
  5
1F0
330
17
100
AcDbEntity
  8
HOLE
100
AcDbCircle
 10
24.15656011415573
 20
421.64787392044036
 30
0.0
 40
2.0
  0
CIRCLE
  5
1F1
330
17
100
AcDbEntity
  8
HOLE
100
AcDbCircle
 10
21.15070768498788
 20
416.44158479306736
 30
0.0
 40
2.0
  0
CIRCLE
  5
1F2
330
17
100
AcDbEntity
  8
HOLE
100
AcDbCircle
 10
18.57353453086877
 20
411.0103074260546
 30
0.0
 40
2.0
  0
CIRCLE
  5
1F3
330
17
100
AcDbEntity
  8
HOLE
100
AcDbCircle
 10
16.44175460864558
 20
405.3892657372799
 30
0.0
 40
2.0
  0
CIRCLE
  5
1F4
330
17
100
AcDbEntity
  8
HOLE
100
AcDbCircle
 10
14.76919332914521
 20
399.61491433906616
 30
0.0
 40
2.0
  0
CIRCLE
  5
1F5
330
17
100
AcDbEntity
  8
HOLE
100
AcDbCircle
 10
13.566697894079795
 20
393.7247021160318
 30
0.0
 40
2.0
  0
CIRCLE
  5
1F6
330
17
100
AcDbEntity
  8
HOLE
100
AcDbCircle
 10
12.84206694778122
 20
387.7568293547036
 30
0.0
 40
2.0
  0
CIRCLE
  5
1F7
330
17
100
AcDbEntity
  8
HOLE
100
AcDbCircle
 10
12.599999999999994
 20
381.75
 30
0.0
 40
2.0
  0
CIRCLE
  5
1F8
330
17
100
AcDbEntity
  8
HOLE
100
AcDbCircle
 10
12.84206694778122
 20
375.74317064529646
 30
0.0
 40
2.0
  0
CIRCLE
  5
1F9
330
17
100
AcDbEntity
  8
HOLE
100
AcDbCircle
 10
13.566697894079795
 20
369.7752978839682
 30
0.0
 40
2.0
  0
CIRCLE
  5
1FA
330
17
100
AcDbEntity
  8
HOLE
100
AcDbCircle
 10
14.76919332914521
 20
363.88508566093384
 30
0.0
 40
2.0
  0
CIRCLE
  5
1FB
330
17
100
AcDbEntity
  8
HOLE
100
AcDbCircle
 10
16.44175460864558
 20
358.1107342627201
 30
0.0
 40
2.0
  0
CIRCLE
  5
1FC
330
17
100
AcDbEntity
  8
HOLE
100
AcDbCircle
 10
18.57353453086877
 20
352.4896925739454
 30
0.0
 40
2.0
  0
CIRCLE
  5
1FD
330
17
100
AcDbEntity
  8
HOLE
100
AcDbCircle
 10
21.15070768498788
 20
347.0584152069327
 30
0.0
 40
2.0
  0
CIRCLE
  5
1FE
330
17
100
AcDbEntity
  8
HOLE
100
AcDbCircle
 10
24.15656011415571
 20
341.85212607955964
 30
0.0
 40
2.0
  0
CIRCLE
  5
1FF
330
17
100
AcDbEntity
  8
HOLE
100
AcDbCircle
 10
27.571597711928618
 20
336.9045899746349
 30
0.0
 40
2.0
  0
CIRCLE
  5
200
330
17
100
AcDbEntity
  8
HOLE
100
AcDbCircle
 10
31.373672649027306
 20
332.24789356232463
 30
0.0
 40
2.0
  0
CIRCLE
  5
201
330
17
100
AcDbEntity
  8
HOLE
100
AcDbCircle
 10
35.53812701050841
 20
327.91223730578423
 30
0.0
 40
2.0
  0
CIRCLE
  5
202
330
17
100
AcDbEntity
  8
HOLE
100
AcDbCircle
 10
40.0379527118051
 20
323.9257395995656
 30
0.0
 40
2.0
  0
CIRCLE
  5
203
330
17
100
AcDbEntity
  8
HOLE
100
AcDbCircle
 10
44.84396665651921
 20
320.3142544110385
 30
0.0
 40
2.0
  0
CIRCLE
  5
204
330
17
100
AcDbEntity
  8
HOLE
100
AcDbCircle
 10
49.92499999999996
 20
317.1012036074917
 30
0.0
 40
2.0
  0
CIRCLE
  5
205
330
17
100
AcDbEntity
  8
HOLE
100
AcDbCircle
 10
55.248100291262006
 20
314.307425056335
 30
0.0
 40
2.0
  0
CIRCLE
  5
206
330
17
100
AcDbEntity
  8
HOLE
100
AcDbCircle
 10
60.77874518227469
 20
311.9510374835338
 30
0.0
 40
2.0
  0
CIRCLE
  5
207
330
17
100
AcDbEntity
  8
HOLE
100
AcDbCircle
 10
66.48106631863683
 20
310.04732296671807
 30
0.0
 40
2.0
  0
CIRCLE
  5
208
330
17
100
AcDbEntity
  8
HOLE
100
AcDbCircle
 10
72.31808195961827
 20
308.6086278250447
 30
0.0
 40
2.0
  0
CIRCLE
  5
209
330
17
100
AcDbEntity
  8
HOLE
100
AcDbCircle
 10
78.2519368189401
 20
307.64428254858024
 30
0.0
 40
2.0
  0
CIRCLE
  5
20A
330
17
100
AcDbEntity
  8
HOLE
100
AcDbCircle
 10
84.24414757083215
 20
307.16054128649233
 30
0.0
 40
2.0
  0
CIRCLE
  5
20B
330
17
100
AcDbEntity
  8
HOLE
100
AcDbCircle
 10
90.25585242916787
 20
307.16054128649233
 30
0.0
 40
2.0
  0
CIRCLE
  5
20C
330
17
100
AcDbEntity
  8
HOLE
100
AcDbCircle
 10
96.24806318105995
 20
307.6442825485803
 30
0.0
 40
2.0
  0
CIRCLE
  5
20D
330
17
100
AcDbEntity
  8
HOLE
100
AcDbCircle
 10
102.1819180403817
 20
308.6086278250447
 30
0.0
 40
2.0
  0
CIRCLE
  5
20E
330
17
100
AcDbEntity
  8
HOLE
100
AcDbCircle
 10
108.01893368136315
 20
310.04732296671807
 30
0.0
 40
2.0
  0
CIRCLE
  5
20F
330
17
100
AcDbEntity
  8
HOLE
100
AcDbCircle
 10
113.72125481772528
 20
311.9510374835338
 30
0.0
 40
2.0
  0
CIRCLE
  5
210
330
17
100
AcDbEntity
  8
HOLE
100
AcDbCircle
 10
119.25189970873797
 20
314.307425056335
 30
0.0
 40
2.0
  0
CIRCLE
  5
211
330
17
100
AcDbEntity
  8
HOLE
100
AcDbCircle
 10
124.57500000000002
 20
317.10120360749164
 30
0.0
 40
2.0
  0
CIRCLE
  5
212
330
17
100
AcDbEntity
  8
HOLE
100
AcDbCircle
 10
129.65603334348077
 20
320.3142544110385
 30
0.0
 40
2.0
  0
CIRCLE
  5
213
330
17
100
AcDbEntity
  8
HOLE
100
AcDbCircle
 10
134.46204728819492
 20
323.9257395995656
 30
0.0
 40
2.0
  0
CIRCLE
  5
214
330
17
100
AcDbEntity
  8
HOLE
100
AcDbCircle
 10
138.96187298949158
 20
327.91223730578423
 30
0.0
 40
2.0
  0
CIRCLE
  5
215
330
17
100
AcDbEntity
  8
HOLE
100
AcDbCircle
 10
143.12632735097267
 20
332.2478935623246
 30
0.0
 40
2.0
  0
CIRCLE
  5
216
330
17
100
AcDbEntity
  8
HOLE
100
AcDbCircle
 10
146.92840228807137
 20
336.90458997463486
 30
0.0
 40
2.0
  0
CIRCLE
  5
217
330
17
100
AcDbEntity
  8
HOLE
100
AcDbCircle
 10
150.34343988584428
 20
341.85212607955964
 30
0.0
 40
2.0
  0
CIRCLE
  5
218
330
17
100
AcDbEntity
  8
HOLE
100
AcDbCircle
 10
153.34929231501212
 20
347.0584152069327
 30
0.0
 40
2.0
  0
CIRCLE
  5
219
330
17
100
AcDbEntity
  8
HOLE
100
AcDbCircle
 10
155.92646546913124
 20
352.4896925739454
 30
0.0
 40
2.0
  0
CIRCLE
  5
21A
330
17
100
AcDbEntity
  8
HOLE
100
AcDbCircle
 10
158.05824539135443
 20
358.1107342627201
 30
0.0
 40
2.0
  0
CIRCLE
  5
21B
330
17
100
AcDbEntity
  8
HOLE
100
AcDbCircle
 10
159.7308066708548
 20
363.8850856609339
 30
0.0
 40
2.0
  0
CIRCLE
  5
21C
330
17
100
AcDbEntity
  8
HOLE
100
AcDbCircle
 10
160.9333021059202
 20
369.77529788396816
 30
0.0
 40
2.0
  0
CIRCLE
  5
21D
330
17
100
AcDbEntity
  8
HOLE
100
AcDbCircle
 10
161.65793305221877
 20
375.7431706452964
 30
0.0
 40
2.0
  0
CIRCLE
  5
21E
330
17
100
AcDbEntity
  8
HOLE
100
AcDbCircle
 10
47.00034329134189
 20
418.72902067751494
 30
0.0
 40
4.0
  0
CIRCLE
  5
21F
330
17
100
AcDbEntity
  8
HOLE
100
AcDbCircle
 10
97.00034329134189
 20
418.72902067751494
 30
0.0
 40
4.0
  0
LINE
  5
220
330
17
100
AcDbEntity
  8
CENTERLINE
100
AcDbLine
 10
45.00034329134189
 20
418.72902067751494
 30
0.0
 11
49.00034329134189
 21
418.72902067751494
 31
0.0
  0
LINE
  5
221
330
17
100
AcDbEntity
  8
CENTERLINE
100
AcDbLine
 10
47.00034329134189
 20
416.72902067751494
 30
0.0
 11
47.00034329134189
 21
420.72902067751494
 31
0.0
  0
LINE
  5
222
330
17
100
AcDbEntity
  8
CENTERLINE
100
AcDbLine
 10
95.00034329134189
 20
418.72902067751494
 30
0.0
 11
99.00034329134189
 21
418.72902067751494
 31
0.0
  0
LINE
  5
223
330
17
100
AcDbEntity
  8
CENTERLINE
100
AcDbLine
 10
97.00034329134189
 20
416.72902067751494
 30
0.0
 11
97.00034329134189
 21
420.72902067751494
 31
0.0
  0
TEXT
  5
224
330
17
100
AcDbEntity
  8
LABEL
100
AcDbText
 10
10.0
 20
464.0
 30
0.0
 40
3.0
  1
LID TOP DISK (78 perf holes + handle mounts)
100
AcDbText
  0
TEXT
  5
225
330
17
100
AcDbEntity
  8
LABEL
100
AcDbText
 10
10.0
 20
296.5
 30
0.0
 40
2.5
  1
OD=154.5 mm
100
AcDbText
  0
LWPOLYLINE
  5
226
330
17
100
AcDbEntity
  8
CUT
100
AcDbPolyline
 90
5
 70
1
 10
0.0
 20
479.0
 10
294.3672316413636
 20
479.0
 10
294.3672316413636
 20
482.3
 10
0.0
 20
482.3
 10
0.0
 20
479.0
  0
LINE
  5
227
330
17
100
AcDbEntity
  8
BEND
100
AcDbLine
 10
0.0
 20
482.3
 30
0.0
 11
294.3672316413636
 21
482.3
 31
0.0
  0
TEXT
  5
228
330
17
100
AcDbEntity
  8
LABEL
100
AcDbText
 10
147.1836158206818
 20
485.3
 30
0.0
 40
2.5
  1
BEND UP 90°
100
AcDbText
  0
TEXT
  5
229
330
17
100
AcDbEntity
  8
LABEL
100
AcDbText
 10
5.0
 20
485.3
 30
0.0
 40
3.0
  1
LID RETAINING WALL - 294.4 x 3.3 mm
100
AcDbText
  0
LWPOLYLINE
  5
22A
330
17
100
AcDbEntity
  8
CUT
100
AcDbPolyline
 90
5
 70
1
 10
0.0
 20
477.8
 10
2.2
 20
477.8
 10
2.2
 20
480.2
 10
0.0
 20
480.2
 10
0.0
 20
477.8
  0
LWPOLYLINE
  5
22B
330
17
100
AcDbEntity
  8
CUT
100
AcDbPolyline
 90
5
 70
1
 10
294.3672316413636
 20
477.8
 10
296.5672316413636
 20
477.8
 10
296.5672316413636
 20
480.2
 10
294.3672316413636
 20
480.2
 10
294.3672316413636
 20
477.8
  0
CIRCLE
  5
22C
330
17
100
AcDbEntity
  8
CUT
100
AcDbCircle
 10
56.25
 20
553.55
 30
0.0
 40
46.25
  0
CIRCLE
  5
22D
330
17
100
AcDbEntity
  8
CUT
100
AcDbCircle
 10
56.25
 20
553.55
 30
0.0
 40
36.25
  0
LINE
  5
22E
330
17
100
AcDbEntity
  8
CENTERLINE
100
AcDbLine
 10
51.25
 20
553.55
 30
0.0
 11
61.25
 21
553.55
 31
0.0
  0
LINE
  5
22F
330
17
100
AcDbEntity
  8
CENTERLINE
100
AcDbLine
 10
56.25
 20
548.55
 30
0.0
 11
56.25
 21
558.55
 31
0.0
  0
TEXT
  5
230
330
17
100
AcDbEntity
  8
LABEL
100
AcDbText
 10
10.0
 20
604.8
 30
0.0
 40
3.0
  1
LID SHELF
100
AcDbText
  0
TEXT
  5
231
330
17
100
AcDbEntity
  8
LABEL
100
AcDbText
 10
10.0
 20
499.29999999999995
 30
0.0
 40
2.5
  1
ID=72.5, OD=92.5 mm
100
AcDbText
  0
TEXT
  5
232
330
17
100
AcDbEntity
  8
LABEL
100
AcDbText
 10
0.0
 20
-15.0
 30
0.0
 40
5.0
  1
04 LID FLAT PATTERNS
100
AcDbText
  0
TEXT
  5
233
330
17
100
AcDbEntity
  8
LABEL
100
AcDbText
 10
0.0
 20
-23.0
 30
0.0
 40
3.0
  1
Material: 304 Stainless Steel, 1.2mm
100
AcDbText
  0
TEXT
  5
234
330
17
100
AcDbEntity
  8
LABEL
100
AcDbText
 10
0.0
 20
-29.0
 30
0.0
 40
3.0
  1
Inside Bend Radius: 1.2mm (1×T)
100
AcDbText
  0
TEXT
  5
235
330
17
100
AcDbEntity
  8
LABEL
100
AcDbText
 10
0.0
 20
-35.0
 30
0.0
 40
3.0
  1
K-Factor: 0.44
100
AcDbText
  0
TEXT
  5
236
330
17
100
AcDbEntity
  8
LABEL
100
AcDbText
 10
0.0
 20
-41.0
 30
0.0
 40
3.0
  1
All parts for lid assembly
100
AcDbText
  0
TEXT
  5
237
330
17
100
AcDbEntity
  8
LABEL
100
AcDbText
 10
0.0
 20
-54.0
 30
0.0
 40
3.0
  1
NOTES:
100
AcDbText
  0
TEXT
  5
238
330
17
100
AcDbEntity
  8
LABEL
100
AcDbText
 10
0.0
 20
-59.0
 30
0.0
 40
2.5
  1
1. All dimensions in mm
100
AcDbText
  0
TEXT
  5
239
330
17
100
AcDbEntity
  8
LABEL
100
AcDbText
 10
0.0
 20
-64.0
 30
0.0
 40
2.5
  1
2. Deburr all edges and holes
100
AcDbText
  0
TEXT
  5
23A
330
17
100
AcDbEntity
  8
LABEL
100
AcDbText
 10
0.0
 20
-69.0
 30
0.0
 40
2.5
  1
3. Bend radii per callout (R1.2 unless noted)
100
AcDbText
  0
TEXT
  5
23B
330
17
100
AcDbEntity
  8
LABEL
100
AcDbText
 10
0.0
 20
-74.0
 30
0.0
 40
2.5
  1
4. Grain direction parallel to longest dimension
100
AcDbText
  0
TEXT
  5
23C
330
17
100
AcDbEntity
  8
LABEL
100
AcDbText
 10
0.0
 20
-79.0
 30
0.0
 40
2.5
  1
5. All holes ±0.1mm
100
AcDbText
  0
LINE
  5
23D
330
17
100
AcDbEntity
  8
LABEL
100
AcDbLine
 10
120.0
 20
-15.0
 30
0.0
 11
160.0
 21
-15.0
 31
0.0
  0
LINE
  5
23E
330
17
100
AcDbEntity
  8
LABEL
100
AcDbLine
 10
160.0
 20
-15.0
 30
0.0
 11
156.0
 21
-13.0
 31
0.0
  0
LINE
  5
23F
330
17
100
AcDbEntity
  8
LABEL
100
AcDbLine
 10
160.0
 20
-15.0
 30
0.0
 11
156.0
 21
-17.0
 31
0.0
  0
TEXT
  5
240
330
17
100
AcDbEntity
  8
LABEL
100
AcDbText
 10
135.0
 20
-12.0
 30
0.0
 40
2.5
  1
GRAIN
100
AcDbText
  0
ENDSEC
  0
SECTION
  2
OBJECTS
  0
DICTIONARY
  5
A
330
0
100
AcDbDictionary
281
1
  3
ACAD_COLOR
350
B
  3
ACAD_GROUP
350
C
  3
ACAD_LAYOUT
350
D
  3
ACAD_MATERIAL
350
E
  3
ACAD_MLEADERSTYLE
350
F
  3
ACAD_MLINESTYLE
350
10
  3
ACAD_PLOTSETTINGS
350
11
  3
ACAD_PLOTSTYLENAME
350
12
  3
ACAD_SCALELIST
350
14
  3
ACAD_TABLESTYLE
350
15
  3
ACAD_VISUALSTYLE
350
16
  3
EZDXF_META
350
2D
  0
DICTIONARY
  5
B
330
A
100
AcDbDictionary
281
1
  0
DICTIONARY
  5
C
330
A
100
AcDbDictionary
281
1
  0
DICTIONARY
  5
D
330
A
100
AcDbDictionary
281
1
  3
Model
350
1A
  3
Layout1
350
1E
  0
DICTIONARY
  5
E
330
A
100
AcDbDictionary
281
1
  3
ByBlock
350
1F
  3
ByLayer
350
20
  3
Global
350
21
  0
DICTIONARY
  5
F
330
A
100
AcDbDictionary
281
1
  3
Standard
350
2C
  0
DICTIONARY
  5
10
330
A
100
AcDbDictionary
281
1
  3
Standard
350
22
  0
DICTIONARY
  5
11
330
A
100
AcDbDictionary
281
1
  0
ACDBDICTIONARYWDFLT
  5
12
330
A
100
AcDbDictionary
281
1
  3
Normal
350
13
100
AcDbDictionaryWithDefault
340
13
  0
ACDBPLACEHOLDER
  5
13
330
12
  0
DICTIONARY
  5
14
330
A
100
AcDbDictionary
281
1
  0
DICTIONARY
  5
15
330
A
100
AcDbDictionary
281
1
  0
DICTIONARY
  5
16
330
A
100
AcDbDictionary
281
1
  0
LAYOUT
  5
1A
330
D
100
AcDbPlotSettings
  1

  4
A3
  6

 40
7.5
 41
20.0
 42
7.5
 43
20.0
 44
420.0
 45
297.0
 46
0.0
 47
0.0
 48
0.0
 49
0.0
140
0.0
141
0.0
142
1.0
143
1.0
 70
1024
 72
1
 73
0
 74
5
  7

 75
16
 76
0
 77
2
 78
300
147
1.0
148
0.0
149
0.0
100
AcDbLayout
  1
Model
 70
1
 71
0
 10
0.0
 20
0.0
 11
420.0
 21
297.0
 12
0.0
 22
0.0
 32
0.0
 14
1e+20
 24
1e+20
 34
1e+20
 15
-1e+20
 25
-1e+20
 35
-1e+20
146
0.0
 13
0.0
 23
0.0
 33
0.0
 16
1.0
 26
0.0
 36
0.0
 17
0.0
 27
1.0
 37
0.0
 76
1
330
17
  0
LAYOUT
  5
1E
330
D
100
AcDbPlotSettings
  1

  4
A3
  6

 40
7.5
 41
20.0
 42
7.5
 43
20.0
 44
420.0
 45
297.0
 46
0.0
 47
0.0
 48
0.0
 49
0.0
140
0.0
141
0.0
142
1.0
143
1.0
 70
0
 72
1
 73
0
 74
5
  7

 75
16
 76
0
 77
2
 78
300
147
1.0
148
0.0
149
0.0
100
AcDbLayout
  1
Layout1
 70
1
 71
1
 10
0.0
 20
0.0
 11
420.0
 21
297.0
 12
0.0
 22
0.0
 32
0.0
 14
1e+20
 24
1e+20
 34
1e+20
 15
-1e+20
 25
-1e+20
 35
-1e+20
146
0.0
 13
0.0
 23
0.0
 33
0.0
 16
1.0
 26
0.0
 36
0.0
 17
0.0
 27
1.0
 37
0.0
 76
1
330
1B
  0
MATERIAL
  5
1F
102
{ACAD_REACTORS
330
E
102
}
330
E
100
AcDbMaterial
  1
ByBlock
  2

 70
0
 40
1.0
 71
1
 41
1.0
 91
-1023410177
 42
1.0
 72
1
  3

 73
1
 74
1
 75
1
 44
0.5
 73
0
 45
1.0
 46
1.0
 77
1
  4

 78
1
 79
1
170
1
 48
1.0
171
1
  6

172
1
173
1
174
1
140
1.0
141
1.0
175
1
  7

176
1
177
1
178
1
143
1.0
179
1
  8

270
1
271
1
272
1
145
1.0
146
1.0
273
1
  9

274
1
275
1
276
1
 42
1.0
 72
1
  3

 73
1
 74
1
 75
1
 94
63
  0
MATERIAL
  5
20
102
{ACAD_REACTORS
330
E
102
}
330
E
100
AcDbMaterial
  1
ByLayer
  2

 70
0
 40
1.0
 71
1
 41
1.0
 91
-1023410177
 42
1.0
 72
1
  3

 73
1
 74
1
 75
1
 44
0.5
 73
0
 45
1.0
 46
1.0
 77
1
  4

 78
1
 79
1
170
1
 48
1.0
171
1
  6

172
1
173
1
174
1
140
1.0
141
1.0
175
1
  7

176
1
177
1
178
1
143
1.0
179
1
  8

270
1
271
1
272
1
145
1.0
146
1.0
273
1
  9

274
1
275
1
276
1
 42
1.0
 72
1
  3

 73
1
 74
1
 75
1
 94
63
  0
MATERIAL
  5
21
102
{ACAD_REACTORS
330
E
102
}
330
E
100
AcDbMaterial
  1
Global
  2

 70
0
 40
1.0
 71
1
 41
1.0
 91
-1023410177
 42
1.0
 72
1
  3

 73
1
 74
1
 75
1
 44
0.5
 73
0
 45
1.0
 46
1.0
 77
1
  4

 78
1
 79
1
170
1
 48
1.0
171
1
  6

172
1
173
1
174
1
140
1.0
141
1.0
175
1
  7

176
1
177
1
178
1
143
1.0
179
1
  8

270
1
271
1
272
1
145
1.0
146
1.0
273
1
  9

274
1
275
1
276
1
 42
1.0
 72
1
  3

 73
1
 74
1
 75
1
 94
63
  0
MLINESTYLE
  5
22
102
{ACAD_REACTORS
330
10
102
}
330
10
100
AcDbMlineStyle
  2
Standard
 70
0
  3

 62
256
 51
90.0
 52
90.0
 71
2
 49
0.5
 62
256
  6
BYLAYER
 49
-0.5
 62
256
  6
BYLAYER
  0
MLEADERSTYLE
  5
2C
102
{ACAD_REACTORS
330
F
102
}
330
F
100
AcDbMLeaderStyle
179
2
170
2
171
1
172
0
 90
2
 40
0.0
 41
0.0
173
1
 91
-1056964608
 92
-2
290
1
 42
2.0
291
1
 43
8.0
  3
Standard
 44
4.0
300

342
29
174
1
175
1
176
0
178
1
 93
-1056964608
 45
4.0
292
0
297
0
 46
4.0
 94
-1056964608
 47
1.0
 49
1.0
140
1.0
294
1
141
0.0
177
0
142
1.0
295
0
296
0
143
3.75
271
0
272
9
273
9
  0
DICTIONARY
  5
2D
330
A
100
AcDbDictionary
280
1
281
1
  3
CREATED_BY_EZDXF
350
2E
  3
WRITTEN_BY_EZDXF
350
243
  0
DICTIONARYVAR
  5
2E
330
2D
100
DictionaryVariables
280
0
  1
1.4.2 @ 2026-04-26T18:00:42.288624+00:00
  0
DICTIONARYVAR
  5
243
330
2D
100
DictionaryVariables
280
0
  1
1.4.2 @ 2026-04-26T18:00:42.293882+00:00
  0
ENDSEC
  0
EOF
