0
SECTION
2
ENTITIES
0
ARC
8
CUT
10
0.000
20
0.000
40
40.750
50
13.034
51
70.613
0
ARC
8
CUT
10
0.000
20
0.000
40
40.750
50
83.621
51
141.200
0
ARC
8
CUT
10
0.000
20
0.000
40
40.750
50
154.208
51
211.787
0
ARC
8
CUT
10
0.000
20
0.000
40
40.750
50
224.795
51
0.026
0
ARC
8
CUT
10
0.000
20
0.000
40
41.950
50
13.034
51
70.613
0
ARC
8
CUT
10
0.000
20
0.000
40
41.950
50
83.621
51
141.200
0
ARC
8
CUT
10
0.000
20
0.000
40
41.950
50
154.208
51
211.787
0
ARC
8
CUT
10
0.000
20
0.000
40
41.950
50
224.795
51
0.026
0
ARC
8
CUT
10
0.000
20
0.000
40
46.250
50
13.034
51
70.613
0
ARC
8
CUT
10
0.000
20
0.000
40
46.250
50
83.621
51
141.200
0
ARC
8
CUT
10
0.000
20
0.000
40
46.250
50
154.208
51
211.787
0
ARC
8
CUT
10
0.000
20
0.000
40
46.250
50
224.795
51
0.026
0
ARC
8
CUT
10
0.000
20
0.000
40
47.450
50
13.034
51
70.613
0
ARC
8
CUT
10
0.000
20
0.000
40
47.450
50
83.621
51
141.200
0
ARC
8
CUT
10
0.000
20
0.000
40
47.450
50
154.208
51
211.787
0
ARC
8
CUT
10
0.000
20
0.000
40
47.450
50
224.795
51
0.026
0
ARC
8
CUT
10
0.000
20
0.000
40
69.650
50
13.034
51
70.613
0
ARC
8
CUT
10
0.000
20
0.000
40
69.650
50
83.621
51
141.200
0
ARC
8
CUT
10
0.000
20
0.000
40
69.650
50
154.208
51
211.787
0
ARC
8
CUT
10
0.000
20
0.000
40
69.650
50
224.795
51
0.026
0
ARC
8
CUT
10
0.000
20
0.000
40
70.850
50
13.034
51
70.613
0
ARC
8
CUT
10
0.000
20
0.000
40
70.850
50
83.621
51
141.200
0
ARC
8
CUT
10
0.000
20
0.000
40
70.850
50
154.208
51
211.787
0
ARC
8
CUT
10
0.000
20
0.000
40
70.850
50
224.795
51
0.026
0
LINE
8
CUT
10
40.750
20
0.019
11
70.850
21
0.032
0
LINE
8
CUT
10
39.700
20
9.190
11
69.025
21
15.979
0
LINE
8
CUT
10
13.527
20
38.439
11
23.518
21
66.833
0
LINE
8
CUT
10
4.528
20
40.498
11
7.872
21
70.411
0
LINE
8
CUT
10
-31.758
20
25.534
11
-55.216
21
44.395
0
LINE
8
CUT
10
-36.690
20
17.731
11
-63.792
21
30.827
0
LINE
8
CUT
10
-34.638
20
-21.466
11
-60.223
21
-37.321
0
LINE
8
CUT
10
-28.918
20
-28.711
11
-50.277
21
-49.919
0
TEXT
8
NOTE
10
-150.000
20
110.850
40
5.000
1
04b CERAMIC HOLD-DOWN RING - 304SS - TOP VIEW - DIMS IN MM
0
TEXT
8
NOTE
10
-150.000
20
102.850
40
4.000
1
FLAT TOP. Three walls hang DOWN from it:
0
TEXT
8
NOTE
10
-150.000
20
95.850
40
4.000
1
  R40.75-41.95 bore lip, 3mm deep
0
TEXT
8
NOTE
10
-150.000
20
88.850
40
4.000
1
  R46.25-47.45 ceramic flaps, 10mm deep
0
TEXT
8
NOTE
10
-150.000
20
81.850
40
4.000
1
  R69.65-70.85 chamber edge wall, 6mm deep
0
TEXT
8
NOTE
10
-150.000
20
74.850
40
4.000
1
Web 2mm thick. 4 notches match ceramic slots. NO fastener holes -
0
TEXT
8
NOTE
10
-150.000
20
67.850
40
4.000
1
part is CLAMPED between cap shell and chamber. 3D model authoritative.
0
ENDSEC
0
EOF
